<svg width="190" height="50" viewBox="0 0 190 50" fill="none" xmlns="http://www.w3.org/2000/svg">
<rect width="190" height="50" rx="25" fill="white"/>
<circle cx="26" cy="25" r="20" fill="#11F2BE"/>
<mask id="mask0_3_13" style="mask-type:alpha" maskUnits="userSpaceOnUse" x="11" y="10" width="30" height="30">
<rect x="11" y="10" width="30" height="30" fill="#D9D9D9"/>
</mask>
<g mask="url(#mask0_3_13)">
<path d="M35.3003 35.625C32.9447 35.625 30.5781 35.0773 28.2006 33.9819C25.8233 32.8865 23.6391 31.3412 21.6478 29.3463C19.6568 27.351 18.1135 25.1667 17.0181 22.7931C15.9227 20.4198 15.375 18.0553 15.375 15.6997C15.375 15.3211 15.5 15.0057 15.75 14.7534C16 14.5011 16.3125 14.375 16.6875 14.375H20.7644C21.08 14.375 21.3584 14.478 21.5997 14.6841C21.8409 14.8899 21.9944 15.1443 22.06 15.4472L22.7766 19.125C22.8261 19.4662 22.8157 19.7595 22.7453 20.0047C22.6747 20.2499 22.548 20.4558 22.3653 20.6225L19.4784 23.4328C19.943 24.2836 20.4739 25.0885 21.0709 25.8475C21.6678 26.6063 22.3141 27.3309 23.0097 28.0216C23.6955 28.7076 24.4247 29.3447 25.1972 29.9328C25.9697 30.5209 26.8039 31.0682 27.6997 31.5747L30.5047 28.7453C30.7003 28.5418 30.9372 28.3991 31.2153 28.3172C31.4932 28.2355 31.7821 28.2155 32.0819 28.2572L35.5528 28.9641C35.8684 29.0474 36.126 29.2084 36.3256 29.4472C36.5252 29.6859 36.625 29.9568 36.625 30.2597V34.3125C36.625 34.6875 36.4989 35 36.2466 35.25C35.9943 35.5 35.6789 35.625 35.3003 35.625ZM18.5912 21.6588L20.8222 19.5241C20.8622 19.492 20.8882 19.4479 20.9003 19.3919C20.9124 19.3358 20.9104 19.2837 20.8944 19.2356L20.3509 16.4422C20.3349 16.3782 20.3069 16.3302 20.2669 16.2981C20.2269 16.266 20.1748 16.25 20.1106 16.25H17.4375C17.3894 16.25 17.3493 16.266 17.3172 16.2981C17.2853 16.3302 17.2694 16.3703 17.2694 16.4184C17.3333 17.2726 17.4731 18.1403 17.6887 19.0216C17.9042 19.903 18.205 20.7821 18.5912 21.6588ZM29.4662 32.4616C30.2948 32.8478 31.159 33.1431 32.0588 33.3475C32.9587 33.5517 33.7997 33.673 34.5816 33.7116C34.6297 33.7116 34.6698 33.6955 34.7019 33.6634C34.734 33.6314 34.75 33.5912 34.75 33.5431V30.9134C34.75 30.8493 34.734 30.7972 34.7019 30.7572C34.6698 30.7172 34.6218 30.6892 34.5578 30.6731L31.9328 30.1394C31.8847 30.1233 31.8426 30.1214 31.8066 30.1334C31.7705 30.1455 31.7324 30.1716 31.6922 30.2116L29.4662 32.4616Z" fill="black"/>
</g>
<path d="M59.774 25.718C59.774 24.494 60.05 23.396 60.602 22.424C61.154 21.44 61.904 20.672 62.852 20.12C63.812 19.568 64.874 19.292 66.038 19.292C67.406 19.292 68.6 19.622 69.62 20.282C70.64 20.942 71.384 21.878 71.852 23.09H69.89C69.542 22.334 69.038 21.752 68.378 21.344C67.73 20.936 66.95 20.732 66.038 20.732C65.162 20.732 64.376 20.936 63.68 21.344C62.984 21.752 62.438 22.334 62.042 23.09C61.646 23.834 61.448 24.71 61.448 25.718C61.448 26.714 61.646 27.59 62.042 28.346C62.438 29.09 62.984 29.666 63.68 30.074C64.376 30.482 65.162 30.686 66.038 30.686C66.95 30.686 67.73 30.488 68.378 30.092C69.038 29.684 69.542 29.102 69.89 28.346H71.852C71.384 29.546 70.64 30.476 69.62 31.136C68.6 31.784 67.406 32.108 66.038 32.108C64.874 32.108 63.812 31.838 62.852 31.298C61.904 30.746 61.154 29.984 60.602 29.012C60.05 28.04 59.774 26.942 59.774 25.718ZM78.5923 32.162C77.6683 32.162 76.8283 31.952 76.0723 31.532C75.3283 31.112 74.7403 30.518 74.3083 29.75C73.8883 28.97 73.6783 28.07 73.6783 27.05C73.6783 26.042 73.8943 25.154 74.3263 24.386C74.7703 23.606 75.3703 23.012 76.1263 22.604C76.8823 22.184 77.7283 21.974 78.6643 21.974C79.6003 21.974 80.4463 22.184 81.2023 22.604C81.9583 23.012 82.5523 23.6 82.9843 24.368C83.4283 25.136 83.6503 26.03 83.6503 27.05C83.6503 28.07 83.4223 28.97 82.9663 29.75C82.5223 30.518 81.9163 31.112 81.1483 31.532C80.3803 31.952 79.5283 32.162 78.5923 32.162ZM78.5923 30.722C79.1803 30.722 79.7323 30.584 80.2483 30.308C80.7643 30.032 81.1783 29.618 81.4903 29.066C81.8143 28.514 81.9763 27.842 81.9763 27.05C81.9763 26.258 81.8203 25.586 81.5083 25.034C81.1963 24.482 80.7883 24.074 80.2843 23.81C79.7803 23.534 79.2343 23.396 78.6463 23.396C78.0463 23.396 77.4943 23.534 76.9903 23.81C76.4983 24.074 76.1023 24.482 75.8023 25.034C75.5023 25.586 75.3523 26.258 75.3523 27.05C75.3523 27.854 75.4963 28.532 75.7843 29.084C76.0843 29.636 76.4803 30.05 76.9723 30.326C77.4643 30.59 78.0043 30.722 78.5923 30.722ZM90.61 21.956C91.81 21.956 92.782 22.322 93.526 23.054C94.27 23.774 94.642 24.818 94.642 26.186V32H93.022V26.42C93.022 25.436 92.776 24.686 92.284 24.17C91.792 23.642 91.12 23.378 90.268 23.378C89.404 23.378 88.714 23.648 88.198 24.188C87.694 24.728 87.442 25.514 87.442 26.546V32H85.804V22.136H87.442V23.54C87.766 23.036 88.204 22.646 88.756 22.37C89.32 22.094 89.938 21.956 90.61 21.956ZM99.3156 23.486V29.3C99.3156 29.78 99.4176 30.122 99.6216 30.326C99.8256 30.518 100.18 30.614 100.684 30.614H101.89V32H100.414C99.5016 32 98.8176 31.79 98.3616 31.37C97.9056 30.95 97.6776 30.26 97.6776 29.3V23.486H96.3996V22.136H97.6776V19.652H99.3156V22.136H101.89V23.486H99.3156ZM103.262 27.032C103.262 26.024 103.466 25.142 103.874 24.386C104.282 23.618 104.84 23.024 105.548 22.604C106.268 22.184 107.066 21.974 107.942 21.974C108.806 21.974 109.556 22.16 110.192 22.532C110.828 22.904 111.302 23.372 111.614 23.936V22.136H113.27V32H111.614V30.164C111.29 30.74 110.804 31.22 110.156 31.604C109.52 31.976 108.776 32.162 107.924 32.162C107.048 32.162 106.256 31.946 105.548 31.514C104.84 31.082 104.282 30.476 103.874 29.696C103.466 28.916 103.262 28.028 103.262 27.032ZM111.614 27.05C111.614 26.306 111.464 25.658 111.164 25.106C110.864 24.554 110.456 24.134 109.94 23.846C109.436 23.546 108.878 23.396 108.266 23.396C107.654 23.396 107.096 23.54 106.592 23.828C106.088 24.116 105.686 24.536 105.386 25.088C105.086 25.64 104.936 26.288 104.936 27.032C104.936 27.788 105.086 28.448 105.386 29.012C105.686 29.564 106.088 29.99 106.592 30.29C107.096 30.578 107.654 30.722 108.266 30.722C108.878 30.722 109.436 30.578 109.94 30.29C110.456 29.99 110.864 29.564 111.164 29.012C111.464 28.448 111.614 27.794 111.614 27.05ZM115.426 27.05C115.426 26.03 115.63 25.142 116.038 24.386C116.446 23.618 117.01 23.024 117.73 22.604C118.462 22.184 119.296 21.974 120.232 21.974C121.444 21.974 122.44 22.268 123.22 22.856C124.012 23.444 124.534 24.26 124.786 25.304H123.022C122.854 24.704 122.524 24.23 122.032 23.882C121.552 23.534 120.952 23.36 120.232 23.36C119.296 23.36 118.54 23.684 117.964 24.332C117.388 24.968 117.1 25.874 117.1 27.05C117.1 28.238 117.388 29.156 117.964 29.804C118.54 30.452 119.296 30.776 120.232 30.776C120.952 30.776 121.552 30.608 122.032 30.272C122.512 29.936 122.842 29.456 123.022 28.832H124.786C124.522 29.84 123.994 30.65 123.202 31.262C122.41 31.862 121.42 32.162 120.232 32.162C119.296 32.162 118.462 31.952 117.73 31.532C117.01 31.112 116.446 30.518 116.038 29.75C115.63 28.982 115.426 28.082 115.426 27.05ZM128.97 23.486V29.3C128.97 29.78 129.072 30.122 129.276 30.326C129.48 30.518 129.834 30.614 130.338 30.614H131.544V32H130.068C129.156 32 128.472 31.79 128.016 31.37C127.56 30.95 127.332 30.26 127.332 29.3V23.486H126.054V22.136H127.332V19.652H128.97V22.136H131.544V23.486H128.97ZM139.929 19.454V27.392C139.929 28.508 140.199 29.336 140.739 29.876C141.291 30.416 142.053 30.686 143.025 30.686C143.985 30.686 144.735 30.416 145.275 29.876C145.827 29.336 146.103 28.508 146.103 27.392V19.454H147.741V27.374C147.741 28.418 147.531 29.3 147.111 30.02C146.691 30.728 146.121 31.256 145.401 31.604C144.693 31.952 143.895 32.126 143.007 32.126C142.119 32.126 141.315 31.952 140.595 31.604C139.887 31.256 139.323 30.728 138.903 30.02C138.495 29.3 138.291 28.418 138.291 27.374V19.454H139.929ZM153.966 32.162C153.21 32.162 152.532 32.036 151.932 31.784C151.332 31.52 150.858 31.16 150.51 30.704C150.162 30.236 149.97 29.702 149.934 29.102H151.626C151.674 29.594 151.902 29.996 152.31 30.308C152.73 30.62 153.276 30.776 153.948 30.776C154.572 30.776 155.064 30.638 155.424 30.362C155.784 30.086 155.964 29.738 155.964 29.318C155.964 28.886 155.772 28.568 155.388 28.364C155.004 28.148 154.41 27.938 153.606 27.734C152.874 27.542 152.274 27.35 151.806 27.158C151.35 26.954 150.954 26.66 150.618 26.276C150.294 25.88 150.132 25.364 150.132 24.728C150.132 24.224 150.282 23.762 150.582 23.342C150.882 22.922 151.308 22.592 151.86 22.352C152.412 22.1 153.042 21.974 153.75 21.974C154.842 21.974 155.724 22.25 156.396 22.802C157.068 23.354 157.428 24.11 157.476 25.07H155.838C155.802 24.554 155.592 24.14 155.208 23.828C154.836 23.516 154.332 23.36 153.696 23.36C153.108 23.36 152.64 23.486 152.292 23.738C151.944 23.99 151.77 24.32 151.77 24.728C151.77 25.052 151.872 25.322 152.076 25.538C152.292 25.742 152.556 25.91 152.868 26.042C153.192 26.162 153.636 26.3 154.2 26.456C154.908 26.648 155.484 26.84 155.928 27.032C156.372 27.212 156.75 27.488 157.062 27.86C157.386 28.232 157.554 28.718 157.566 29.318C157.566 29.858 157.416 30.344 157.116 30.776C156.816 31.208 156.39 31.55 155.838 31.802C155.298 32.042 154.674 32.162 153.966 32.162Z" fill="black"/>
</svg>
