<svg width="442" height="237" viewBox="0 0 442 237" fill="none" xmlns="http://www.w3.org/2000/svg">
<path d="M135.952 17.384C135.952 18.5147 135.685 19.5813 135.152 20.584C134.619 21.5867 133.765 22.408 132.592 23.048C131.419 23.6667 129.915 23.976 128.08 23.976H124.048V33H120.4V10.76H128.08C129.787 10.76 131.227 11.0587 132.4 11.656C133.595 12.232 134.48 13.0213 135.056 14.024C135.653 15.0267 135.952 16.1467 135.952 17.384ZM128.08 21C129.467 21 130.501 20.6907 131.184 20.072C131.867 19.432 132.208 18.536 132.208 17.384C132.208 14.952 130.832 13.736 128.08 13.736H124.048V21H128.08ZM147.079 33.288C145.415 33.288 143.911 32.9147 142.567 32.168C141.223 31.4 140.167 30.3333 139.399 28.968C138.631 27.5813 138.247 25.9813 138.247 24.168C138.247 22.376 138.642 20.7867 139.431 19.4C140.221 18.0133 141.298 16.9467 142.663 16.2C144.029 15.4533 145.554 15.08 147.239 15.08C148.925 15.08 150.45 15.4533 151.815 16.2C153.181 16.9467 154.258 18.0133 155.047 19.4C155.837 20.7867 156.231 22.376 156.231 24.168C156.231 25.96 155.826 27.5493 155.015 28.936C154.205 30.3227 153.095 31.4 151.687 32.168C150.301 32.9147 148.765 33.288 147.079 33.288ZM147.079 30.12C148.018 30.12 148.893 29.896 149.703 29.448C150.535 29 151.207 28.328 151.719 27.432C152.231 26.536 152.487 25.448 152.487 24.168C152.487 22.888 152.242 21.8107 151.751 20.936C151.261 20.04 150.61 19.368 149.799 18.92C148.989 18.472 148.114 18.248 147.175 18.248C146.237 18.248 145.362 18.472 144.551 18.92C143.762 19.368 143.133 20.04 142.663 20.936C142.194 21.8107 141.959 22.888 141.959 24.168C141.959 26.0667 142.439 27.5387 143.399 28.584C144.381 29.608 145.607 30.12 147.079 30.12ZM164.094 18.344V28.104C164.094 28.7653 164.243 29.2453 164.542 29.544C164.862 29.8213 165.395 29.96 166.142 29.96H168.382V33H165.502C163.859 33 162.6 32.616 161.726 31.848C160.851 31.08 160.414 29.832 160.414 28.104V18.344H158.334V15.368H160.414V10.984H164.094V15.368H168.382V18.344H164.094ZM187.904 23.752C187.904 24.4133 187.861 25.0107 187.776 25.544H174.304C174.41 26.952 174.933 28.0827 175.872 28.936C176.81 29.7893 177.962 30.216 179.328 30.216C181.29 30.216 182.677 29.3947 183.488 27.752H187.424C186.89 29.3733 185.92 30.7067 184.512 31.752C183.125 32.776 181.397 33.288 179.328 33.288C177.642 33.288 176.128 32.9147 174.784 32.168C173.461 31.4 172.416 30.3333 171.648 28.968C170.901 27.5813 170.528 25.9813 170.528 24.168C170.528 22.3547 170.89 20.7653 171.616 19.4C172.362 18.0133 173.397 16.9467 174.72 16.2C176.064 15.4533 177.6 15.08 179.328 15.08C180.992 15.08 182.474 15.4427 183.776 16.168C185.077 16.8933 186.09 17.9173 186.816 19.24C187.541 20.5413 187.904 22.0453 187.904 23.752ZM184.096 22.6C184.074 21.256 183.594 20.1787 182.656 19.368C181.717 18.5573 180.554 18.152 179.168 18.152C177.909 18.152 176.832 18.5573 175.936 19.368C175.04 20.1573 174.506 21.2347 174.336 22.6H184.096ZM200.39 15.08C201.776 15.08 203.014 15.368 204.102 15.944C205.211 16.52 206.075 17.3733 206.694 18.504C207.312 19.6347 207.622 21 207.622 22.6V33H204.006V23.144C204.006 21.5653 203.611 20.36 202.822 19.528C202.032 18.6747 200.955 18.248 199.59 18.248C198.224 18.248 197.136 18.6747 196.326 19.528C195.536 20.36 195.142 21.5653 195.142 23.144V33H191.494V15.368H195.142V17.384C195.739 16.6587 196.496 16.0933 197.414 15.688C198.352 15.2827 199.344 15.08 200.39 15.08ZM216.531 18.344V28.104C216.531 28.7653 216.68 29.2453 216.979 29.544C217.299 29.8213 217.832 29.96 218.579 29.96H220.819V33H217.939C216.296 33 215.038 32.616 214.163 31.848C213.288 31.08 212.851 29.832 212.851 28.104V18.344H210.771V15.368H212.851V10.984H216.531V15.368H220.819V18.344H216.531ZM226.037 13.032C225.376 13.032 224.821 12.808 224.373 12.36C223.925 11.912 223.701 11.3573 223.701 10.696C223.701 10.0347 223.925 9.48 224.373 9.032C224.821 8.584 225.376 8.36 226.037 8.36C226.677 8.36 227.221 8.584 227.669 9.032C228.117 9.48 228.341 10.0347 228.341 10.696C228.341 11.3573 228.117 11.912 227.669 12.36C227.221 12.808 226.677 13.032 226.037 13.032ZM227.829 15.368V33H224.181V15.368H227.829ZM231.403 24.104C231.403 22.3333 231.765 20.7653 232.491 19.4C233.237 18.0347 234.24 16.9787 235.499 16.232C236.779 15.464 238.187 15.08 239.723 15.08C241.109 15.08 242.315 15.3573 243.339 15.912C244.384 16.4453 245.216 17.1173 245.835 17.928V15.368H249.515V33H245.835V30.376C245.216 31.208 244.373 31.9013 243.307 32.456C242.24 33.0107 241.024 33.288 239.659 33.288C238.144 33.288 236.757 32.904 235.499 32.136C234.24 31.3467 233.237 30.2587 232.491 28.872C231.765 27.464 231.403 25.8747 231.403 24.104ZM245.835 24.168C245.835 22.952 245.579 21.896 245.067 21C244.576 20.104 243.925 19.4213 243.115 18.952C242.304 18.4827 241.429 18.248 240.491 18.248C239.552 18.248 238.677 18.4827 237.867 18.952C237.056 19.4 236.395 20.072 235.883 20.968C235.392 21.8427 235.147 22.888 235.147 24.104C235.147 25.32 235.392 26.3867 235.883 27.304C236.395 28.2213 237.056 28.9253 237.867 29.416C238.699 29.8853 239.573 30.12 240.491 30.12C241.429 30.12 242.304 29.8853 243.115 29.416C243.925 28.9467 244.576 28.264 245.067 27.368C245.579 26.4507 245.835 25.384 245.835 24.168ZM257.954 9.32V33H254.306V9.32H257.954ZM294.736 15.368L289.264 33H285.424L281.872 19.976L278.32 33H274.48L268.976 15.368H272.688L276.368 29.544L280.112 15.368H283.92L287.504 29.48L291.152 15.368H294.736ZM299.319 13.032C298.657 13.032 298.103 12.808 297.655 12.36C297.207 11.912 296.983 11.3573 296.983 10.696C296.983 10.0347 297.207 9.48 297.655 9.032C298.103 8.584 298.657 8.36 299.319 8.36C299.959 8.36 300.503 8.584 300.951 9.032C301.399 9.48 301.623 10.0347 301.623 10.696C301.623 11.3573 301.399 11.912 300.951 12.36C300.503 12.808 299.959 13.032 299.319 13.032ZM301.111 15.368V33H297.463V15.368H301.111ZM310.156 18.344V28.104C310.156 28.7653 310.305 29.2453 310.604 29.544C310.924 29.8213 311.457 29.96 312.204 29.96H314.444V33H311.564C309.921 33 308.663 32.616 307.788 31.848C306.913 31.08 306.476 29.832 306.476 28.104V18.344H304.396V15.368H306.476V10.984H310.156V15.368H314.444V18.344H310.156ZM326.926 15.08C328.27 15.08 329.465 15.368 330.51 15.944C331.577 16.52 332.409 17.3733 333.006 18.504C333.625 19.6347 333.934 21 333.934 22.6V33H330.318V23.144C330.318 21.5653 329.924 20.36 329.134 19.528C328.345 18.6747 327.268 18.248 325.902 18.248C324.537 18.248 323.449 18.6747 322.638 19.528C321.849 20.36 321.454 21.5653 321.454 23.144V33H317.806V9.32H321.454V17.416C322.073 16.6693 322.852 16.0933 323.79 15.688C324.75 15.2827 325.796 15.08 326.926 15.08ZM124.048 54.76V77H120.4V54.76H124.048ZM137.734 59.08C139.12 59.08 140.358 59.368 141.446 59.944C142.555 60.52 143.419 61.3733 144.038 62.504C144.656 63.6347 144.966 65 144.966 66.6V77H141.35V67.144C141.35 65.5653 140.955 64.36 140.166 63.528C139.376 62.6747 138.299 62.248 136.934 62.248C135.568 62.248 134.48 62.6747 133.67 63.528C132.88 64.36 132.486 65.5653 132.486 67.144V77H128.838V59.368H132.486V61.384C133.083 60.6587 133.84 60.0933 134.758 59.688C135.696 59.2827 136.688 59.08 137.734 59.08ZM158.515 59.08C159.901 59.08 161.139 59.368 162.227 59.944C163.336 60.52 164.2 61.3733 164.819 62.504C165.437 63.6347 165.747 65 165.747 66.6V77H162.131V67.144C162.131 65.5653 161.736 64.36 160.947 63.528C160.157 62.6747 159.08 62.248 157.715 62.248C156.349 62.248 155.261 62.6747 154.451 63.528C153.661 64.36 153.267 65.5653 153.267 67.144V77H149.619V59.368H153.267V61.384C153.864 60.6587 154.621 60.0933 155.539 59.688C156.477 59.2827 157.469 59.08 158.515 59.08ZM178.048 77.288C176.384 77.288 174.88 76.9147 173.536 76.168C172.192 75.4 171.136 74.3333 170.368 72.968C169.6 71.5813 169.216 69.9813 169.216 68.168C169.216 66.376 169.611 64.7867 170.4 63.4C171.189 62.0133 172.267 60.9467 173.632 60.2C174.997 59.4533 176.523 59.08 178.208 59.08C179.893 59.08 181.419 59.4533 182.784 60.2C184.149 60.9467 185.227 62.0133 186.016 63.4C186.805 64.7867 187.2 66.376 187.2 68.168C187.2 69.96 186.795 71.5493 185.984 72.936C185.173 74.3227 184.064 75.4 182.656 76.168C181.269 76.9147 179.733 77.288 178.048 77.288ZM178.048 74.12C178.987 74.12 179.861 73.896 180.672 73.448C181.504 73 182.176 72.328 182.688 71.432C183.2 70.536 183.456 69.448 183.456 68.168C183.456 66.888 183.211 65.8107 182.72 64.936C182.229 64.04 181.579 63.368 180.768 62.92C179.957 62.472 179.083 62.248 178.144 62.248C177.205 62.248 176.331 62.472 175.52 62.92C174.731 63.368 174.101 64.04 173.632 64.936C173.163 65.8107 172.928 66.888 172.928 68.168C172.928 70.0667 173.408 71.5387 174.368 72.584C175.349 73.608 176.576 74.12 178.048 74.12ZM197.622 73.736L202.614 59.368H206.486L199.766 77H195.414L188.726 59.368H192.63L197.622 73.736ZM208.028 68.104C208.028 66.3333 208.39 64.7653 209.116 63.4C209.862 62.0347 210.865 60.9787 212.124 60.232C213.404 59.464 214.812 59.08 216.348 59.08C217.734 59.08 218.94 59.3573 219.964 59.912C221.009 60.4453 221.841 61.1173 222.46 61.928V59.368H226.14V77H222.46V74.376C221.841 75.208 220.998 75.9013 219.932 76.456C218.865 77.0107 217.649 77.288 216.284 77.288C214.769 77.288 213.382 76.904 212.124 76.136C210.865 75.3467 209.862 74.2587 209.116 72.872C208.39 71.464 208.028 69.8747 208.028 68.104ZM222.46 68.168C222.46 66.952 222.204 65.896 221.692 65C221.201 64.104 220.55 63.4213 219.74 62.952C218.929 62.4827 218.054 62.248 217.116 62.248C216.177 62.248 215.302 62.4827 214.492 62.952C213.681 63.4 213.02 64.072 212.508 64.968C212.017 65.8427 211.772 66.888 211.772 68.104C211.772 69.32 212.017 70.3867 212.508 71.304C213.02 72.2213 213.681 72.9253 214.492 73.416C215.324 73.8853 216.198 74.12 217.116 74.12C218.054 74.12 218.929 73.8853 219.74 73.416C220.55 72.9467 221.201 72.264 221.692 71.368C222.204 70.4507 222.46 69.384 222.46 68.168ZM235.187 62.344V72.104C235.187 72.7653 235.337 73.2453 235.635 73.544C235.955 73.8213 236.489 73.96 237.235 73.96H239.475V77H236.595C234.953 77 233.694 76.616 232.819 75.848C231.945 75.08 231.507 73.832 231.507 72.104V62.344H229.427V59.368H231.507V54.984H235.187V59.368H239.475V62.344H235.187ZM244.694 57.032C244.032 57.032 243.478 56.808 243.03 56.36C242.582 55.912 242.358 55.3573 242.358 54.696C242.358 54.0347 242.582 53.48 243.03 53.032C243.478 52.584 244.032 52.36 244.694 52.36C245.334 52.36 245.878 52.584 246.326 53.032C246.774 53.48 246.998 54.0347 246.998 54.696C246.998 55.3573 246.774 55.912 246.326 56.36C245.878 56.808 245.334 57.032 244.694 57.032ZM246.486 59.368V77H242.838V59.368H246.486ZM258.091 73.736L263.083 59.368H266.955L260.235 77H255.883L249.195 59.368H253.099L258.091 73.736ZM285.873 67.752C285.873 68.4133 285.83 69.0107 285.745 69.544H272.273C272.379 70.952 272.902 72.0827 273.841 72.936C274.779 73.7893 275.931 74.216 277.297 74.216C279.259 74.216 280.646 73.3947 281.457 71.752H285.392C284.859 73.3733 283.889 74.7067 282.481 75.752C281.094 76.776 279.366 77.288 277.297 77.288C275.611 77.288 274.097 76.9147 272.753 76.168C271.43 75.4 270.385 74.3333 269.617 72.968C268.87 71.5813 268.497 69.9813 268.497 68.168C268.497 66.3547 268.859 64.7653 269.585 63.4C270.331 62.0133 271.366 60.9467 272.689 60.2C274.033 59.4533 275.569 59.08 277.297 59.08C278.961 59.08 280.443 59.4427 281.745 60.168C283.046 60.8933 284.059 61.9173 284.785 63.24C285.51 64.5413 285.873 66.0453 285.873 67.752ZM282.065 66.6C282.043 65.256 281.563 64.1787 280.625 63.368C279.686 62.5573 278.523 62.152 277.137 62.152C275.878 62.152 274.801 62.5573 273.905 63.368C273.009 64.1573 272.475 65.2347 272.305 66.6H282.065Z" fill="white"/>
<path d="M17.64 145.49L13.932 158H11.61L8.982 148.532L6.192 158L3.888 158.018L0.342 145.49H2.52L5.112 155.678L7.92 145.49H10.224L12.834 155.624L15.444 145.49H17.64ZM20.3764 146.768C20.0044 146.768 19.6924 146.642 19.4404 146.39C19.1884 146.138 19.0624 145.826 19.0624 145.454C19.0624 145.082 19.1884 144.77 19.4404 144.518C19.6924 144.266 20.0044 144.14 20.3764 144.14C20.7364 144.14 21.0424 144.266 21.2944 144.518C21.5464 144.77 21.6724 145.082 21.6724 145.454C21.6724 145.826 21.5464 146.138 21.2944 146.39C21.0424 146.642 20.7364 146.768 20.3764 146.768ZM21.3844 148.082V158H19.3324V148.082H21.3844ZM26.4725 149.756V155.246C26.4725 155.618 26.5565 155.888 26.7245 156.056C26.9045 156.212 27.2045 156.29 27.6245 156.29H28.8845V158H27.2645C26.3405 158 25.6325 157.784 25.1405 157.352C24.6485 156.92 24.4025 156.218 24.4025 155.246V149.756H23.2325V148.082H24.4025V145.616H26.4725V148.082H28.8845V149.756H26.4725ZM35.9058 147.92C36.6618 147.92 37.3338 148.082 37.9218 148.406C38.5218 148.73 38.9898 149.21 39.3258 149.846C39.6738 150.482 39.8478 151.25 39.8478 152.15V158H37.8138V152.456C37.8138 151.568 37.5918 150.89 37.1478 150.422C36.7038 149.942 36.0978 149.702 35.3298 149.702C34.5618 149.702 33.9498 149.942 33.4938 150.422C33.0498 150.89 32.8278 151.568 32.8278 152.456V158H30.7758V144.68H32.8278V149.234C33.1758 148.814 33.6138 148.49 34.1418 148.262C34.6818 148.034 35.2698 147.92 35.9058 147.92ZM46.457 152.996C46.457 152 46.661 151.118 47.069 150.35C47.489 149.582 48.053 148.988 48.761 148.568C49.481 148.136 50.273 147.92 51.137 147.92C51.917 147.92 52.595 148.076 53.171 148.388C53.759 148.688 54.227 149.066 54.575 149.522V148.082H56.645V158H54.575V156.524C54.227 156.992 53.753 157.382 53.153 157.694C52.553 158.006 51.869 158.162 51.101 158.162C50.249 158.162 49.469 157.946 48.761 157.514C48.053 157.07 47.489 156.458 47.069 155.678C46.661 154.886 46.457 153.992 46.457 152.996ZM54.575 153.032C54.575 152.348 54.431 151.754 54.143 151.25C53.867 150.746 53.501 150.362 53.045 150.098C52.589 149.834 52.097 149.702 51.569 149.702C51.041 149.702 50.549 149.834 50.093 150.098C49.637 150.35 49.265 150.728 48.977 151.232C48.701 151.724 48.563 152.312 48.563 152.996C48.563 153.68 48.701 154.28 48.977 154.796C49.265 155.312 49.637 155.708 50.093 155.984C50.561 156.248 51.053 156.38 51.569 156.38C52.097 156.38 52.589 156.248 53.045 155.984C53.501 155.72 53.867 155.336 54.143 154.832C54.431 154.316 54.575 153.716 54.575 153.032ZM66.068 149.558C66.416 149.078 66.89 148.688 67.49 148.388C68.102 148.076 68.78 147.92 69.524 147.92C70.4 147.92 71.192 148.13 71.9 148.55C72.608 148.97 73.166 149.57 73.574 150.35C73.982 151.118 74.186 152 74.186 152.996C74.186 153.992 73.982 154.886 73.574 155.678C73.166 156.458 72.602 157.07 71.882 157.514C71.174 157.946 70.388 158.162 69.524 158.162C68.756 158.162 68.072 158.012 67.472 157.712C66.884 157.412 66.416 157.028 66.068 156.56V158H64.016V144.68H66.068V149.558ZM72.098 152.996C72.098 152.312 71.954 151.724 71.666 151.232C71.39 150.728 71.018 150.35 70.55 150.098C70.094 149.834 69.602 149.702 69.074 149.702C68.558 149.702 68.066 149.834 67.598 150.098C67.142 150.362 66.77 150.746 66.482 151.25C66.206 151.754 66.068 152.348 66.068 153.032C66.068 153.716 66.206 154.316 66.482 154.832C66.77 155.336 67.142 155.72 67.598 155.984C68.066 156.248 68.558 156.38 69.074 156.38C69.602 156.38 70.094 156.248 70.55 155.984C71.018 155.708 71.39 155.312 71.666 154.796C71.954 154.28 72.098 153.68 72.098 152.996ZM78.2672 144.68V158H76.2152V144.68H78.2672ZM90.0513 152.798C90.0513 153.17 90.0273 153.506 89.9793 153.806H82.4013C82.4613 154.598 82.7553 155.234 83.2833 155.714C83.8113 156.194 84.4593 156.434 85.2273 156.434C86.3313 156.434 87.1113 155.972 87.5673 155.048H89.7813C89.4813 155.96 88.9353 156.71 88.1433 157.298C87.3633 157.874 86.3913 158.162 85.2273 158.162C84.2793 158.162 83.4273 157.952 82.6713 157.532C81.9273 157.1 81.3393 156.5 80.9073 155.732C80.4873 154.952 80.2773 154.052 80.2773 153.032C80.2773 152.012 80.4813 151.118 80.8893 150.35C81.3093 149.57 81.8913 148.97 82.6353 148.55C83.3913 148.13 84.2553 147.92 85.2273 147.92C86.1633 147.92 86.9973 148.124 87.7293 148.532C88.4613 148.94 89.0313 149.516 89.4393 150.26C89.8473 150.992 90.0513 151.838 90.0513 152.798ZM87.9093 152.15C87.8973 151.394 87.6273 150.788 87.0993 150.332C86.5713 149.876 85.9173 149.648 85.1373 149.648C84.4293 149.648 83.8233 149.876 83.3193 150.332C82.8153 150.776 82.5153 151.382 82.4193 152.15H87.9093ZM97.0747 147.92C97.8547 147.92 98.5507 148.082 99.1627 148.406C99.7867 148.73 100.273 149.21 100.621 149.846C100.969 150.482 101.143 151.25 101.143 152.15V158H99.1087V152.456C99.1087 151.568 98.8867 150.89 98.4427 150.422C97.9987 149.942 97.3927 149.702 96.6247 149.702C95.8567 149.702 95.2447 149.942 94.7887 150.422C94.3447 150.89 94.1227 151.568 94.1227 152.456V158H92.0707V148.082H94.1227V149.216C94.4587 148.808 94.8847 148.49 95.4007 148.262C95.9287 148.034 96.4867 147.92 97.0747 147.92ZM103.076 152.996C103.076 152 103.28 151.118 103.688 150.35C104.108 149.582 104.672 148.988 105.38 148.568C106.1 148.136 106.898 147.92 107.774 147.92C108.422 147.92 109.058 148.064 109.682 148.352C110.318 148.628 110.822 149 111.194 149.468V144.68H113.264V158H111.194V156.506C110.858 156.986 110.39 157.382 109.79 157.694C109.202 158.006 108.524 158.162 107.756 158.162C106.892 158.162 106.1 157.946 105.38 157.514C104.672 157.07 104.108 156.458 103.688 155.678C103.28 154.886 103.076 153.992 103.076 152.996ZM111.194 153.032C111.194 152.348 111.05 151.754 110.762 151.25C110.486 150.746 110.12 150.362 109.664 150.098C109.208 149.834 108.716 149.702 108.188 149.702C107.66 149.702 107.168 149.834 106.712 150.098C106.256 150.35 105.884 150.728 105.596 151.232C105.32 151.724 105.182 152.312 105.182 152.996C105.182 153.68 105.32 154.28 105.596 154.796C105.884 155.312 106.256 155.708 106.712 155.984C107.18 156.248 107.672 156.38 108.188 156.38C108.716 156.38 109.208 156.248 109.664 155.984C110.12 155.72 110.486 155.336 110.762 154.832C111.05 154.316 111.194 153.716 111.194 153.032ZM124.937 158.162C124.001 158.162 123.155 157.952 122.399 157.532C121.643 157.1 121.049 156.5 120.617 155.732C120.185 154.952 119.969 154.052 119.969 153.032C119.969 152.024 120.191 151.13 120.635 150.35C121.079 149.57 121.685 148.97 122.453 148.55C123.221 148.13 124.079 147.92 125.027 147.92C125.975 147.92 126.833 148.13 127.601 148.55C128.369 148.97 128.975 149.57 129.419 150.35C129.863 151.13 130.085 152.024 130.085 153.032C130.085 154.04 129.857 154.934 129.401 155.714C128.945 156.494 128.321 157.1 127.529 157.532C126.749 157.952 125.885 158.162 124.937 158.162ZM124.937 156.38C125.465 156.38 125.957 156.254 126.413 156.002C126.881 155.75 127.259 155.372 127.547 154.868C127.835 154.364 127.979 153.752 127.979 153.032C127.979 152.312 127.841 151.706 127.565 151.214C127.289 150.71 126.923 150.332 126.467 150.08C126.011 149.828 125.519 149.702 124.991 149.702C124.463 149.702 123.971 149.828 123.515 150.08C123.071 150.332 122.717 150.71 122.453 151.214C122.189 151.706 122.057 152.312 122.057 153.032C122.057 154.1 122.327 154.928 122.867 155.516C123.419 156.092 124.109 156.38 124.937 156.38ZM136.272 149.756H134.436V158H132.366V149.756H131.196V148.082H132.366V147.38C132.366 146.24 132.666 145.412 133.266 144.896C133.878 144.368 134.832 144.104 136.128 144.104V145.814C135.504 145.814 135.066 145.934 134.814 146.174C134.562 146.402 134.436 146.804 134.436 147.38V148.082H136.272V149.756ZM142.082 153.032C142.082 152.012 142.286 151.118 142.694 150.35C143.114 149.57 143.69 148.97 144.422 148.55C145.154 148.13 145.994 147.92 146.942 147.92C148.142 147.92 149.132 148.208 149.912 148.784C150.704 149.348 151.238 150.158 151.514 151.214H149.3C149.12 150.722 148.832 150.338 148.436 150.062C148.04 149.786 147.542 149.648 146.942 149.648C146.102 149.648 145.43 149.948 144.926 150.548C144.434 151.136 144.188 151.964 144.188 153.032C144.188 154.1 144.434 154.934 144.926 155.534C145.43 156.134 146.102 156.434 146.942 156.434C148.13 156.434 148.916 155.912 149.3 154.868H151.514C151.226 155.876 150.686 156.68 149.894 157.28C149.102 157.868 148.118 158.162 146.942 158.162C145.994 158.162 145.154 157.952 144.422 157.532C143.69 157.1 143.114 156.5 142.694 155.732C142.286 154.952 142.082 154.052 142.082 153.032ZM155.611 149.522C155.911 149.018 156.307 148.628 156.799 148.352C157.303 148.064 157.897 147.92 158.581 147.92V150.044H158.059C157.255 150.044 156.643 150.248 156.223 150.656C155.815 151.064 155.611 151.772 155.611 152.78V158H153.559V148.082H155.611V149.522ZM169.557 152.798C169.557 153.17 169.533 153.506 169.485 153.806H161.907C161.967 154.598 162.261 155.234 162.789 155.714C163.317 156.194 163.965 156.434 164.733 156.434C165.837 156.434 166.617 155.972 167.073 155.048H169.287C168.987 155.96 168.441 156.71 167.649 157.298C166.869 157.874 165.897 158.162 164.733 158.162C163.785 158.162 162.933 157.952 162.177 157.532C161.433 157.1 160.845 156.5 160.413 155.732C159.993 154.952 159.783 154.052 159.783 153.032C159.783 152.012 159.987 151.118 160.395 150.35C160.815 149.57 161.397 148.97 162.141 148.55C162.897 148.13 163.761 147.92 164.733 147.92C165.669 147.92 166.503 148.124 167.235 148.532C167.967 148.94 168.537 149.516 168.945 150.26C169.353 150.992 169.557 151.838 169.557 152.798ZM167.415 152.15C167.403 151.394 167.133 150.788 166.605 150.332C166.077 149.876 165.423 149.648 164.643 149.648C163.935 149.648 163.329 149.876 162.825 150.332C162.321 150.776 162.021 151.382 161.925 152.15H167.415ZM170.893 152.996C170.893 152 171.097 151.118 171.505 150.35C171.925 149.582 172.489 148.988 173.197 148.568C173.917 148.136 174.709 147.92 175.573 147.92C176.353 147.92 177.031 148.076 177.607 148.388C178.195 148.688 178.663 149.066 179.011 149.522V148.082H181.081V158H179.011V156.524C178.663 156.992 178.189 157.382 177.589 157.694C176.989 158.006 176.305 158.162 175.537 158.162C174.685 158.162 173.905 157.946 173.197 157.514C172.489 157.07 171.925 156.458 171.505 155.678C171.097 154.886 170.893 153.992 170.893 152.996ZM179.011 153.032C179.011 152.348 178.867 151.754 178.579 151.25C178.303 150.746 177.937 150.362 177.481 150.098C177.025 149.834 176.533 149.702 176.005 149.702C175.477 149.702 174.985 149.834 174.529 150.098C174.073 150.35 173.701 150.728 173.413 151.232C173.137 151.724 172.999 152.312 172.999 152.996C172.999 153.68 173.137 154.28 173.413 154.796C173.701 155.312 174.073 155.708 174.529 155.984C174.997 156.248 175.489 156.38 176.005 156.38C176.533 156.38 177.025 156.248 177.481 155.984C177.937 155.72 178.303 155.336 178.579 154.832C178.867 154.316 179.011 153.716 179.011 153.032ZM186.17 149.756V155.246C186.17 155.618 186.254 155.888 186.422 156.056C186.602 156.212 186.902 156.29 187.322 156.29H188.582V158H186.962C186.038 158 185.33 157.784 184.838 157.352C184.346 156.92 184.1 156.218 184.1 155.246V149.756H182.93V148.082H184.1V145.616H186.17V148.082H188.582V149.756H186.17ZM191.517 146.768C191.145 146.768 190.833 146.642 190.581 146.39C190.329 146.138 190.203 145.826 190.203 145.454C190.203 145.082 190.329 144.77 190.581 144.518C190.833 144.266 191.145 144.14 191.517 144.14C191.877 144.14 192.183 144.266 192.435 144.518C192.687 144.77 192.813 145.082 192.813 145.454C192.813 145.826 192.687 146.138 192.435 146.39C192.183 146.642 191.877 146.768 191.517 146.768ZM192.525 148.082V158H190.473V148.082H192.525ZM199.053 156.164L201.861 148.082H204.039L200.259 158H197.811L194.049 148.082H196.245L199.053 156.164ZM206.634 146.768C206.262 146.768 205.95 146.642 205.698 146.39C205.446 146.138 205.32 145.826 205.32 145.454C205.32 145.082 205.446 144.77 205.698 144.518C205.95 144.266 206.262 144.14 206.634 144.14C206.994 144.14 207.3 144.266 207.552 144.518C207.804 144.77 207.93 145.082 207.93 145.454C207.93 145.826 207.804 146.138 207.552 146.39C207.3 146.642 206.994 146.768 206.634 146.768ZM207.642 148.082V158H205.59V148.082H207.642ZM212.73 149.756V155.246C212.73 155.618 212.814 155.888 212.982 156.056C213.162 156.212 213.462 156.29 213.882 156.29H215.142V158H213.522C212.598 158 211.89 157.784 211.398 157.352C210.906 156.92 210.66 156.218 210.66 155.246V149.756H209.49V148.082H210.66V145.616H212.73V148.082H215.142V149.756H212.73ZM225.962 148.082L219.878 162.662H217.754L219.77 157.838L215.864 148.082H218.15L220.94 155.642L223.838 148.082H225.962ZM229.76 155.534L227.582 160.502H226.25L227.528 155.534H229.76ZM235.545 152.996C235.545 152 235.749 151.118 236.157 150.35C236.577 149.582 237.141 148.988 237.849 148.568C238.569 148.136 239.367 147.92 240.243 147.92C240.891 147.92 241.527 148.064 242.151 148.352C242.787 148.628 243.291 149 243.663 149.468V144.68H245.733V158H243.663V156.506C243.327 156.986 242.859 157.382 242.259 157.694C241.671 158.006 240.993 158.162 240.225 158.162C239.361 158.162 238.569 157.946 237.849 157.514C237.141 157.07 236.577 156.458 236.157 155.678C235.749 154.886 235.545 153.992 235.545 152.996ZM243.663 153.032C243.663 152.348 243.519 151.754 243.231 151.25C242.955 150.746 242.589 150.362 242.133 150.098C241.677 149.834 241.185 149.702 240.657 149.702C240.129 149.702 239.637 149.834 239.181 150.098C238.725 150.35 238.353 150.728 238.065 151.232C237.789 151.724 237.651 152.312 237.651 152.996C237.651 153.68 237.789 154.28 238.065 154.796C238.353 155.312 238.725 155.708 239.181 155.984C239.649 156.248 240.141 156.38 240.657 156.38C241.185 156.38 241.677 156.248 242.133 155.984C242.589 155.72 242.955 155.336 243.231 154.832C243.519 154.316 243.663 153.716 243.663 153.032ZM247.744 152.996C247.744 152 247.948 151.118 248.356 150.35C248.776 149.582 249.34 148.988 250.048 148.568C250.768 148.136 251.56 147.92 252.424 147.92C253.204 147.92 253.882 148.076 254.458 148.388C255.046 148.688 255.514 149.066 255.862 149.522V148.082H257.932V158H255.862V156.524C255.514 156.992 255.04 157.382 254.44 157.694C253.84 158.006 253.156 158.162 252.388 158.162C251.536 158.162 250.756 157.946 250.048 157.514C249.34 157.07 248.776 156.458 248.356 155.678C247.948 154.886 247.744 153.992 247.744 152.996ZM255.862 153.032C255.862 152.348 255.718 151.754 255.43 151.25C255.154 150.746 254.788 150.362 254.332 150.098C253.876 149.834 253.384 149.702 252.856 149.702C252.328 149.702 251.836 149.834 251.38 150.098C250.924 150.35 250.552 150.728 250.264 151.232C249.988 151.724 249.85 152.312 249.85 152.996C249.85 153.68 249.988 154.28 250.264 154.796C250.552 155.312 250.924 155.708 251.38 155.984C251.848 156.248 252.34 156.38 252.856 156.38C253.384 156.38 253.876 156.248 254.332 155.984C254.788 155.72 255.154 155.336 255.43 154.832C255.718 154.316 255.862 153.716 255.862 153.032ZM263.021 149.756V155.246C263.021 155.618 263.105 155.888 263.273 156.056C263.453 156.212 263.753 156.29 264.173 156.29H265.433V158H263.813C262.889 158 262.181 157.784 261.689 157.352C261.197 156.92 260.951 156.218 260.951 155.246V149.756H259.781V148.082H260.951V145.616H263.021V148.082H265.433V149.756H263.021ZM266.641 152.996C266.641 152 266.845 151.118 267.253 150.35C267.673 149.582 268.237 148.988 268.945 148.568C269.665 148.136 270.457 147.92 271.321 147.92C272.101 147.92 272.779 148.076 273.355 148.388C273.943 148.688 274.411 149.066 274.759 149.522V148.082H276.829V158H274.759V156.524C274.411 156.992 273.937 157.382 273.337 157.694C272.737 158.006 272.053 158.162 271.285 158.162C270.433 158.162 269.653 157.946 268.945 157.514C268.237 157.07 267.673 156.458 267.253 155.678C266.845 154.886 266.641 153.992 266.641 152.996ZM274.759 153.032C274.759 152.348 274.615 151.754 274.327 151.25C274.051 150.746 273.685 150.362 273.229 150.098C272.773 149.834 272.281 149.702 271.753 149.702C271.225 149.702 270.733 149.834 270.277 150.098C269.821 150.35 269.449 150.728 269.161 151.232C268.885 151.724 268.747 152.312 268.747 152.996C268.747 153.68 268.885 154.28 269.161 154.796C269.449 155.312 269.821 155.708 270.277 155.984C270.745 156.248 271.237 156.38 271.753 156.38C272.281 156.38 272.773 156.248 273.229 155.984C273.685 155.72 274.051 155.336 274.327 154.832C274.615 154.316 274.759 153.716 274.759 153.032ZM287.138 150.62V152.348H279.74V150.62H287.138ZM289.369 152.996C289.369 152 289.573 151.118 289.981 150.35C290.401 149.582 290.965 148.988 291.673 148.568C292.393 148.136 293.191 147.92 294.067 147.92C294.715 147.92 295.351 148.064 295.975 148.352C296.611 148.628 297.115 149 297.487 149.468V144.68H299.557V158H297.487V156.506C297.151 156.986 296.683 157.382 296.083 157.694C295.495 158.006 294.817 158.162 294.049 158.162C293.185 158.162 292.393 157.946 291.673 157.514C290.965 157.07 290.401 156.458 289.981 155.678C289.573 154.886 289.369 153.992 289.369 152.996ZM297.487 153.032C297.487 152.348 297.343 151.754 297.055 151.25C296.779 150.746 296.413 150.362 295.957 150.098C295.501 149.834 295.009 149.702 294.481 149.702C293.953 149.702 293.461 149.834 293.005 150.098C292.549 150.35 292.177 150.728 291.889 151.232C291.613 151.724 291.475 152.312 291.475 152.996C291.475 153.68 291.613 154.28 291.889 154.796C292.177 155.312 292.549 155.708 293.005 155.984C293.473 156.248 293.965 156.38 294.481 156.38C295.009 156.38 295.501 156.248 295.957 155.984C296.413 155.72 296.779 155.336 297.055 154.832C297.343 154.316 297.487 153.716 297.487 153.032ZM304.304 149.522C304.604 149.018 305 148.628 305.492 148.352C305.996 148.064 306.59 147.92 307.274 147.92V150.044H306.752C305.948 150.044 305.336 150.248 304.916 150.656C304.508 151.064 304.304 151.772 304.304 152.78V158H302.252V148.082H304.304V149.522ZM310.205 146.768C309.833 146.768 309.521 146.642 309.269 146.39C309.017 146.138 308.891 145.826 308.891 145.454C308.891 145.082 309.017 144.77 309.269 144.518C309.521 144.266 309.833 144.14 310.205 144.14C310.565 144.14 310.871 144.266 311.123 144.518C311.375 144.77 311.501 145.082 311.501 145.454C311.501 145.826 311.375 146.138 311.123 146.39C310.871 146.642 310.565 146.768 310.205 146.768ZM311.213 148.082V158H309.161V148.082H311.213ZM317.741 156.164L320.549 148.082H322.727L318.947 158H316.499L312.737 148.082H314.933L317.741 156.164ZM333.368 152.798C333.368 153.17 333.344 153.506 333.296 153.806H325.718C325.778 154.598 326.072 155.234 326.6 155.714C327.128 156.194 327.776 156.434 328.544 156.434C329.648 156.434 330.428 155.972 330.884 155.048H333.098C332.798 155.96 332.252 156.71 331.46 157.298C330.68 157.874 329.708 158.162 328.544 158.162C327.596 158.162 326.744 157.952 325.988 157.532C325.244 157.1 324.656 156.5 324.224 155.732C323.804 154.952 323.594 154.052 323.594 153.032C323.594 152.012 323.798 151.118 324.206 150.35C324.626 149.57 325.208 148.97 325.952 148.55C326.708 148.13 327.572 147.92 328.544 147.92C329.48 147.92 330.314 148.124 331.046 148.532C331.778 148.94 332.348 149.516 332.756 150.26C333.164 150.992 333.368 151.838 333.368 152.798ZM331.226 152.15C331.214 151.394 330.944 150.788 330.416 150.332C329.888 149.876 329.234 149.648 328.454 149.648C327.746 149.648 327.14 149.876 326.636 150.332C326.132 150.776 325.832 151.382 325.736 152.15H331.226ZM340.391 147.92C341.171 147.92 341.867 148.082 342.479 148.406C343.103 148.73 343.589 149.21 343.937 149.846C344.285 150.482 344.459 151.25 344.459 152.15V158H342.425V152.456C342.425 151.568 342.203 150.89 341.759 150.422C341.315 149.942 340.709 149.702 339.941 149.702C339.173 149.702 338.561 149.942 338.105 150.422C337.661 150.89 337.439 151.568 337.439 152.456V158H335.387V148.082H337.439V149.216C337.775 148.808 338.201 148.49 338.717 148.262C339.245 148.034 339.803 147.92 340.391 147.92ZM352.796 146.768C352.424 146.768 352.112 146.642 351.86 146.39C351.608 146.138 351.482 145.826 351.482 145.454C351.482 145.082 351.608 144.77 351.86 144.518C352.112 144.266 352.424 144.14 352.796 144.14C353.156 144.14 353.462 144.266 353.714 144.518C353.966 144.77 354.092 145.082 354.092 145.454C354.092 145.826 353.966 146.138 353.714 146.39C353.462 146.642 353.156 146.768 352.796 146.768ZM353.804 148.082V158H351.752V148.082H353.804ZM361.502 147.92C362.282 147.92 362.978 148.082 363.59 148.406C364.214 148.73 364.7 149.21 365.048 149.846C365.396 150.482 365.57 151.25 365.57 152.15V158H363.536V152.456C363.536 151.568 363.314 150.89 362.87 150.422C362.426 149.942 361.82 149.702 361.052 149.702C360.284 149.702 359.672 149.942 359.216 150.422C358.772 150.89 358.55 151.568 358.55 152.456V158H356.498V148.082H358.55V149.216C358.886 148.808 359.312 148.49 359.828 148.262C360.356 148.034 360.914 147.92 361.502 147.92ZM371.788 158.162C371.008 158.162 370.306 158.024 369.682 157.748C369.07 157.46 368.584 157.076 368.224 156.596C367.864 156.104 367.672 155.558 367.648 154.958H369.772C369.808 155.378 370.006 155.732 370.366 156.02C370.738 156.296 371.2 156.434 371.752 156.434C372.328 156.434 372.772 156.326 373.084 156.11C373.408 155.882 373.57 155.594 373.57 155.246C373.57 154.874 373.39 154.598 373.03 154.418C372.682 154.238 372.124 154.04 371.356 153.824C370.612 153.62 370.006 153.422 369.538 153.23C369.07 153.038 368.662 152.744 368.314 152.348C367.978 151.952 367.81 151.43 367.81 150.782C367.81 150.254 367.966 149.774 368.278 149.342C368.59 148.898 369.034 148.55 369.61 148.298C370.198 148.046 370.87 147.92 371.626 147.92C372.754 147.92 373.66 148.208 374.344 148.784C375.04 149.348 375.412 150.122 375.46 151.106H373.408C373.372 150.662 373.192 150.308 372.868 150.044C372.544 149.78 372.106 149.648 371.554 149.648C371.014 149.648 370.6 149.75 370.312 149.954C370.024 150.158 369.88 150.428 369.88 150.764C369.88 151.028 369.976 151.25 370.168 151.43C370.36 151.61 370.594 151.754 370.87 151.862C371.146 151.958 371.554 152.084 372.094 152.24C372.814 152.432 373.402 152.63 373.858 152.834C374.326 153.026 374.728 153.314 375.064 153.698C375.4 154.082 375.574 154.592 375.586 155.228C375.586 155.792 375.43 156.296 375.118 156.74C374.806 157.184 374.362 157.532 373.786 157.784C373.222 158.036 372.556 158.162 371.788 158.162ZM378.847 146.768C378.475 146.768 378.163 146.642 377.911 146.39C377.659 146.138 377.533 145.826 377.533 145.454C377.533 145.082 377.659 144.77 377.911 144.518C378.163 144.266 378.475 144.14 378.847 144.14C379.207 144.14 379.513 144.266 379.765 144.518C380.017 144.77 380.143 145.082 380.143 145.454C380.143 145.826 380.017 146.138 379.765 146.39C379.513 146.642 379.207 146.768 378.847 146.768ZM379.855 148.082V158H377.803V148.082H379.855ZM386.545 147.92C387.313 147.92 387.991 148.076 388.579 148.388C389.179 148.688 389.647 149.066 389.983 149.522V148.082H392.053V158.162C392.053 159.074 391.861 159.884 391.477 160.592C391.093 161.312 390.535 161.876 389.803 162.284C389.083 162.692 388.219 162.896 387.211 162.896C385.867 162.896 384.751 162.578 383.863 161.942C382.975 161.318 382.471 160.466 382.351 159.386H384.385C384.541 159.902 384.871 160.316 385.375 160.628C385.891 160.952 386.503 161.114 387.211 161.114C388.039 161.114 388.705 160.862 389.209 160.358C389.725 159.854 389.983 159.122 389.983 158.162V156.506C389.635 156.974 389.161 157.37 388.561 157.694C387.973 158.006 387.301 158.162 386.545 158.162C385.681 158.162 384.889 157.946 384.169 157.514C383.461 157.07 382.897 156.458 382.477 155.678C382.069 154.886 381.865 153.992 381.865 152.996C381.865 152 382.069 151.118 382.477 150.35C382.897 149.582 383.461 148.988 384.169 148.568C384.889 148.136 385.681 147.92 386.545 147.92ZM389.983 153.032C389.983 152.348 389.839 151.754 389.551 151.25C389.275 150.746 388.909 150.362 388.453 150.098C387.997 149.834 387.505 149.702 386.977 149.702C386.449 149.702 385.957 149.834 385.501 150.098C385.045 150.35 384.673 150.728 384.385 151.232C384.109 151.724 383.971 152.312 383.971 152.996C383.971 153.68 384.109 154.28 384.385 154.796C384.673 155.312 385.045 155.708 385.501 155.984C385.969 156.248 386.461 156.38 386.977 156.38C387.505 156.38 387.997 156.248 388.453 155.984C388.909 155.72 389.275 155.336 389.551 154.832C389.839 154.316 389.983 153.716 389.983 153.032ZM399.878 147.92C400.634 147.92 401.306 148.082 401.894 148.406C402.494 148.73 402.962 149.21 403.298 149.846C403.646 150.482 403.82 151.25 403.82 152.15V158H401.786V152.456C401.786 151.568 401.564 150.89 401.12 150.422C400.676 149.942 400.07 149.702 399.302 149.702C398.534 149.702 397.922 149.942 397.466 150.422C397.022 150.89 396.8 151.568 396.8 152.456V158H394.748V144.68H396.8V149.234C397.148 148.814 397.586 148.49 398.114 148.262C398.654 148.034 399.242 147.92 399.878 147.92ZM408.832 149.756V155.246C408.832 155.618 408.916 155.888 409.084 156.056C409.264 156.212 409.564 156.29 409.984 156.29H411.244V158H409.624C408.7 158 407.992 157.784 407.5 157.352C407.008 156.92 406.762 156.218 406.762 155.246V149.756H405.592V148.082H406.762V145.616H408.832V148.082H411.244V149.756H408.832ZM416.735 158.162C415.955 158.162 415.253 158.024 414.629 157.748C414.017 157.46 413.531 157.076 413.171 156.596C412.811 156.104 412.619 155.558 412.595 154.958H414.719C414.755 155.378 414.953 155.732 415.313 156.02C415.685 156.296 416.147 156.434 416.699 156.434C417.275 156.434 417.719 156.326 418.031 156.11C418.355 155.882 418.517 155.594 418.517 155.246C418.517 154.874 418.337 154.598 417.977 154.418C417.629 154.238 417.071 154.04 416.303 153.824C415.559 153.62 414.953 153.422 414.485 153.23C414.017 153.038 413.609 152.744 413.261 152.348C412.925 151.952 412.757 151.43 412.757 150.782C412.757 150.254 412.913 149.774 413.225 149.342C413.537 148.898 413.981 148.55 414.557 148.298C415.145 148.046 415.817 147.92 416.573 147.92C417.701 147.92 418.607 148.208 419.291 148.784C419.987 149.348 420.359 150.122 420.407 151.106H418.355C418.319 150.662 418.139 150.308 417.815 150.044C417.491 149.78 417.053 149.648 416.501 149.648C415.961 149.648 415.547 149.75 415.259 149.954C414.971 150.158 414.827 150.428 414.827 150.764C414.827 151.028 414.923 151.25 415.115 151.43C415.307 151.61 415.541 151.754 415.817 151.862C416.093 151.958 416.501 152.084 417.041 152.24C417.761 152.432 418.349 152.63 418.805 152.834C419.273 153.026 419.675 153.314 420.011 153.698C420.347 154.082 420.521 154.592 420.533 155.228C420.533 155.792 420.377 156.296 420.065 156.74C419.753 157.184 419.309 157.532 418.733 157.784C418.169 158.036 417.503 158.162 416.735 158.162ZM425 155.534L422.822 160.502H421.49L422.768 155.534H425ZM0.666 186.996C0.666 186 0.87 185.118 1.278 184.35C1.698 183.582 2.262 182.988 2.97 182.568C3.69 182.136 4.482 181.92 5.346 181.92C6.126 181.92 6.804 182.076 7.38 182.388C7.968 182.688 8.436 183.066 8.784 183.522V182.082H10.854V192H8.784V190.524C8.436 190.992 7.962 191.382 7.362 191.694C6.762 192.006 6.078 192.162 5.31 192.162C4.458 192.162 3.678 191.946 2.97 191.514C2.262 191.07 1.698 190.458 1.278 189.678C0.87 188.886 0.666 187.992 0.666 186.996ZM8.784 187.032C8.784 186.348 8.64 185.754 8.352 185.25C8.076 184.746 7.71 184.362 7.254 184.098C6.798 183.834 6.306 183.702 5.778 183.702C5.25 183.702 4.758 183.834 4.302 184.098C3.846 184.35 3.474 184.728 3.186 185.232C2.91 185.724 2.772 186.312 2.772 186.996C2.772 187.68 2.91 188.28 3.186 188.796C3.474 189.312 3.846 189.708 4.302 189.984C4.77 190.248 5.262 190.38 5.778 190.38C6.306 190.38 6.798 190.248 7.254 189.984C7.71 189.72 8.076 189.336 8.352 188.832C8.64 188.316 8.784 187.716 8.784 187.032ZM18.5532 181.92C19.3332 181.92 20.0292 182.082 20.6412 182.406C21.2652 182.73 21.7512 183.21 22.0992 183.846C22.4472 184.482 22.6212 185.25 22.6212 186.15V192H20.5872V186.456C20.5872 185.568 20.3652 184.89 19.9212 184.422C19.4772 183.942 18.8712 183.702 18.1032 183.702C17.3352 183.702 16.7232 183.942 16.2672 184.422C15.8232 184.89 15.6012 185.568 15.6012 186.456V192H13.5492V182.082H15.6012V183.216C15.9372 182.808 16.3632 182.49 16.8792 182.262C17.4072 182.034 17.9652 181.92 18.5532 181.92ZM24.5547 186.996C24.5547 186 24.7587 185.118 25.1667 184.35C25.5867 183.582 26.1507 182.988 26.8587 182.568C27.5787 182.136 28.3767 181.92 29.2527 181.92C29.9007 181.92 30.5367 182.064 31.1607 182.352C31.7967 182.628 32.3007 183 32.6727 183.468V178.68H34.7427V192H32.6727V190.506C32.3367 190.986 31.8687 191.382 31.2687 191.694C30.6807 192.006 30.0027 192.162 29.2347 192.162C28.3707 192.162 27.5787 191.946 26.8587 191.514C26.1507 191.07 25.5867 190.458 25.1667 189.678C24.7587 188.886 24.5547 187.992 24.5547 186.996ZM32.6727 187.032C32.6727 186.348 32.5287 185.754 32.2407 185.25C31.9647 184.746 31.5987 184.362 31.1427 184.098C30.6867 183.834 30.1947 183.702 29.6667 183.702C29.1387 183.702 28.6467 183.834 28.1907 184.098C27.7347 184.35 27.3627 184.728 27.0747 185.232C26.7987 185.724 26.6607 186.312 26.6607 186.996C26.6607 187.68 26.7987 188.28 27.0747 188.796C27.3627 189.312 27.7347 189.708 28.1907 189.984C28.6587 190.248 29.1507 190.38 29.6667 190.38C30.1947 190.38 30.6867 190.248 31.1427 189.984C31.5987 189.72 31.9647 189.336 32.2407 188.832C32.5287 188.316 32.6727 187.716 32.6727 187.032ZM43.1577 180.768C42.7857 180.768 42.4737 180.642 42.2217 180.39C41.9697 180.138 41.8437 179.826 41.8437 179.454C41.8437 179.082 41.9697 178.77 42.2217 178.518C42.4737 178.266 42.7857 178.14 43.1577 178.14C43.5177 178.14 43.8237 178.266 44.0757 178.518C44.3277 178.77 44.4537 179.082 44.4537 179.454C44.4537 179.826 44.3277 180.138 44.0757 180.39C43.8237 180.642 43.5177 180.768 43.1577 180.768ZM44.1657 182.082V192H42.1137V182.082H44.1657ZM51.8638 181.92C52.6438 181.92 53.3398 182.082 53.9518 182.406C54.5758 182.73 55.0618 183.21 55.4098 183.846C55.7578 184.482 55.9318 185.25 55.9318 186.15V192H53.8978V186.456C53.8978 185.568 53.6758 184.89 53.2318 184.422C52.7878 183.942 52.1818 183.702 51.4138 183.702C50.6458 183.702 50.0338 183.942 49.5778 184.422C49.1338 184.89 48.9118 185.568 48.9118 186.456V192H46.8598V182.082H48.9118V183.216C49.2478 182.808 49.6738 182.49 50.1898 182.262C50.7178 182.034 51.2758 181.92 51.8638 181.92ZM57.8652 186.996C57.8652 186 58.0692 185.118 58.4772 184.35C58.8972 183.582 59.4612 182.988 60.1692 182.568C60.8892 182.136 61.6872 181.92 62.5632 181.92C63.2112 181.92 63.8472 182.064 64.4712 182.352C65.1072 182.628 65.6112 183 65.9832 183.468V178.68H68.0532V192H65.9832V190.506C65.6472 190.986 65.1792 191.382 64.5792 191.694C63.9912 192.006 63.3132 192.162 62.5452 192.162C61.6812 192.162 60.8892 191.946 60.1692 191.514C59.4612 191.07 58.8972 190.458 58.4772 189.678C58.0692 188.886 57.8652 187.992 57.8652 186.996ZM65.9832 187.032C65.9832 186.348 65.8392 185.754 65.5512 185.25C65.2752 184.746 64.9092 184.362 64.4532 184.098C63.9972 183.834 63.5052 183.702 62.9772 183.702C62.4492 183.702 61.9572 183.834 61.5012 184.098C61.0452 184.35 60.6732 184.728 60.3852 185.232C60.1092 185.724 59.9712 186.312 59.9712 186.996C59.9712 187.68 60.1092 188.28 60.3852 188.796C60.6732 189.312 61.0452 189.708 61.5012 189.984C61.9692 190.248 62.4612 190.38 62.9772 190.38C63.5052 190.38 63.9972 190.248 64.4532 189.984C64.9092 189.72 65.2752 189.336 65.5512 188.832C65.8392 188.316 65.9832 187.716 65.9832 187.032ZM79.7304 182.082V192H77.6784V190.83C77.3544 191.238 76.9284 191.562 76.4004 191.802C75.8844 192.03 75.3324 192.144 74.7444 192.144C73.9644 192.144 73.2624 191.982 72.6384 191.658C72.0264 191.334 71.5404 190.854 71.1804 190.218C70.8324 189.582 70.6584 188.814 70.6584 187.914V182.082H72.6924V187.608C72.6924 188.496 72.9144 189.18 73.3584 189.66C73.8024 190.128 74.4084 190.362 75.1764 190.362C75.9444 190.362 76.5504 190.128 76.9944 189.66C77.4504 189.18 77.6784 188.496 77.6784 187.608V182.082H79.7304ZM86.0379 192.162C85.2579 192.162 84.5559 192.024 83.9319 191.748C83.3199 191.46 82.8339 191.076 82.4739 190.596C82.1139 190.104 81.9219 189.558 81.8979 188.958H84.0219C84.0579 189.378 84.2559 189.732 84.6159 190.02C84.9879 190.296 85.4499 190.434 86.0019 190.434C86.5779 190.434 87.0219 190.326 87.3339 190.11C87.6579 189.882 87.8199 189.594 87.8199 189.246C87.8199 188.874 87.6399 188.598 87.2799 188.418C86.9319 188.238 86.3739 188.04 85.6059 187.824C84.8619 187.62 84.2559 187.422 83.7879 187.23C83.3199 187.038 82.9119 186.744 82.5639 186.348C82.2279 185.952 82.0599 185.43 82.0599 184.782C82.0599 184.254 82.2159 183.774 82.5279 183.342C82.8399 182.898 83.2839 182.55 83.8599 182.298C84.4479 182.046 85.1199 181.92 85.8759 181.92C87.0039 181.92 87.9099 182.208 88.5939 182.784C89.2899 183.348 89.6619 184.122 89.7099 185.106H87.6579C87.6219 184.662 87.4419 184.308 87.1179 184.044C86.7939 183.78 86.3559 183.648 85.8039 183.648C85.2639 183.648 84.8499 183.75 84.5619 183.954C84.2739 184.158 84.1299 184.428 84.1299 184.764C84.1299 185.028 84.2259 185.25 84.4179 185.43C84.6099 185.61 84.8439 185.754 85.1199 185.862C85.3959 185.958 85.8039 186.084 86.3439 186.24C87.0639 186.432 87.6519 186.63 88.1079 186.834C88.5759 187.026 88.9779 187.314 89.3139 187.698C89.6499 188.082 89.8239 188.592 89.8359 189.228C89.8359 189.792 89.6799 190.296 89.3679 190.74C89.0559 191.184 88.6119 191.532 88.0359 191.784C87.4719 192.036 86.8059 192.162 86.0379 192.162ZM94.4471 183.756V189.246C94.4471 189.618 94.5311 189.888 94.6991 190.056C94.8791 190.212 95.1791 190.29 95.5991 190.29H96.8591V192H95.2391C94.3151 192 93.6071 191.784 93.1151 191.352C92.6231 190.92 92.3771 190.218 92.3771 189.246V183.756H91.2071V182.082H92.3771V179.616H94.4471V182.082H96.8591V183.756H94.4471ZM100.802 183.522C101.102 183.018 101.498 182.628 101.99 182.352C102.494 182.064 103.088 181.92 103.772 181.92V184.044H103.25C102.446 184.044 101.834 184.248 101.414 184.656C101.006 185.064 100.802 185.772 100.802 186.78V192H98.7504V182.082H100.802V183.522ZM114.587 182.082L108.503 196.662H106.379L108.395 191.838L104.489 182.082H106.775L109.565 189.642L112.463 182.082H114.587ZM129.901 186.798C129.901 187.17 129.877 187.506 129.829 187.806H122.251C122.311 188.598 122.605 189.234 123.133 189.714C123.661 190.194 124.309 190.434 125.077 190.434C126.181 190.434 126.961 189.972 127.417 189.048H129.631C129.331 189.96 128.785 190.71 127.993 191.298C127.213 191.874 126.241 192.162 125.077 192.162C124.129 192.162 123.277 191.952 122.521 191.532C121.777 191.1 121.189 190.5 120.757 189.732C120.337 188.952 120.127 188.052 120.127 187.032C120.127 186.012 120.331 185.118 120.739 184.35C121.159 183.57 121.741 182.97 122.485 182.55C123.241 182.13 124.105 181.92 125.077 181.92C126.013 181.92 126.847 182.124 127.579 182.532C128.311 182.94 128.881 183.516 129.289 184.26C129.697 184.992 129.901 185.838 129.901 186.798ZM127.759 186.15C127.747 185.394 127.477 184.788 126.949 184.332C126.421 183.876 125.767 183.648 124.987 183.648C124.279 183.648 123.673 183.876 123.169 184.332C122.665 184.776 122.365 185.382 122.269 186.15H127.759ZM136.168 186.978L139.372 192H137.05L134.908 188.634L132.892 192H130.75L133.954 187.122L130.75 182.082H133.072L135.214 185.448L137.23 182.082H139.372L136.168 186.978ZM142.955 183.54C143.303 183.084 143.777 182.7 144.377 182.388C144.977 182.076 145.655 181.92 146.411 181.92C147.275 181.92 148.061 182.136 148.769 182.568C149.489 182.988 150.053 183.582 150.461 184.35C150.869 185.118 151.073 186 151.073 186.996C151.073 187.992 150.869 188.886 150.461 189.678C150.053 190.458 149.489 191.07 148.769 191.514C148.061 191.946 147.275 192.162 146.411 192.162C145.655 192.162 144.983 192.012 144.395 191.712C143.807 191.4 143.327 191.016 142.955 190.56V196.716H140.903V182.082H142.955V183.54ZM148.985 186.996C148.985 186.312 148.841 185.724 148.553 185.232C148.277 184.728 147.905 184.35 147.437 184.098C146.981 183.834 146.489 183.702 145.961 183.702C145.445 183.702 144.953 183.834 144.485 184.098C144.029 184.362 143.657 184.746 143.369 185.25C143.093 185.754 142.955 186.348 142.955 187.032C142.955 187.716 143.093 188.316 143.369 188.832C143.657 189.336 144.029 189.72 144.485 189.984C144.953 190.248 145.445 190.38 145.961 190.38C146.489 190.38 146.981 190.248 147.437 189.984C147.905 189.708 148.277 189.312 148.553 188.796C148.841 188.28 148.985 187.68 148.985 186.996ZM162.192 186.798C162.192 187.17 162.168 187.506 162.12 187.806H154.542C154.602 188.598 154.896 189.234 155.424 189.714C155.952 190.194 156.6 190.434 157.368 190.434C158.472 190.434 159.252 189.972 159.708 189.048H161.922C161.622 189.96 161.076 190.71 160.284 191.298C159.504 191.874 158.532 192.162 157.368 192.162C156.42 192.162 155.568 191.952 154.812 191.532C154.068 191.1 153.48 190.5 153.048 189.732C152.628 188.952 152.418 188.052 152.418 187.032C152.418 186.012 152.622 185.118 153.03 184.35C153.45 183.57 154.032 182.97 154.776 182.55C155.532 182.13 156.396 181.92 157.368 181.92C158.304 181.92 159.138 182.124 159.87 182.532C160.602 182.94 161.172 183.516 161.58 184.26C161.988 184.992 162.192 185.838 162.192 186.798ZM160.05 186.15C160.038 185.394 159.768 184.788 159.24 184.332C158.712 183.876 158.058 183.648 157.278 183.648C156.57 183.648 155.964 183.876 155.46 184.332C154.956 184.776 154.656 185.382 154.56 186.15H160.05ZM166.263 183.522C166.563 183.018 166.959 182.628 167.451 182.352C167.955 182.064 168.549 181.92 169.233 181.92V184.044H168.711C167.907 184.044 167.295 184.248 166.875 184.656C166.467 185.064 166.263 185.772 166.263 186.78V192H164.211V182.082H166.263V183.522ZM173.514 183.756V189.246C173.514 189.618 173.598 189.888 173.766 190.056C173.946 190.212 174.246 190.29 174.666 190.29H175.926V192H174.306C173.382 192 172.674 191.784 172.182 191.352C171.69 190.92 171.444 190.218 171.444 189.246V183.756H170.274V182.082H171.444V179.616H173.514V182.082H175.926V183.756H173.514ZM178.861 180.768C178.489 180.768 178.177 180.642 177.925 180.39C177.673 180.138 177.547 179.826 177.547 179.454C177.547 179.082 177.673 178.77 177.925 178.518C178.177 178.266 178.489 178.14 178.861 178.14C179.221 178.14 179.527 178.266 179.779 178.518C180.031 178.77 180.157 179.082 180.157 179.454C180.157 179.826 180.031 180.138 179.779 180.39C179.527 180.642 179.221 180.768 178.861 180.768ZM179.869 182.082V192H177.817V182.082H179.869ZM186.163 192.162C185.383 192.162 184.681 192.024 184.057 191.748C183.445 191.46 182.959 191.076 182.599 190.596C182.239 190.104 182.047 189.558 182.023 188.958H184.147C184.183 189.378 184.381 189.732 184.741 190.02C185.113 190.296 185.575 190.434 186.127 190.434C186.703 190.434 187.147 190.326 187.459 190.11C187.783 189.882 187.945 189.594 187.945 189.246C187.945 188.874 187.765 188.598 187.405 188.418C187.057 188.238 186.499 188.04 185.731 187.824C184.987 187.62 184.381 187.422 183.913 187.23C183.445 187.038 183.037 186.744 182.689 186.348C182.353 185.952 182.185 185.43 182.185 184.782C182.185 184.254 182.341 183.774 182.653 183.342C182.965 182.898 183.409 182.55 183.985 182.298C184.573 182.046 185.245 181.92 186.001 181.92C187.129 181.92 188.035 182.208 188.719 182.784C189.415 183.348 189.787 184.122 189.835 185.106H187.783C187.747 184.662 187.567 184.308 187.243 184.044C186.919 183.78 186.481 183.648 185.929 183.648C185.389 183.648 184.975 183.75 184.687 183.954C184.399 184.158 184.255 184.428 184.255 184.764C184.255 185.028 184.351 185.25 184.543 185.43C184.735 185.61 184.969 185.754 185.245 185.862C185.521 185.958 185.929 186.084 186.469 186.24C187.189 186.432 187.777 186.63 188.233 186.834C188.701 187.026 189.103 187.314 189.439 187.698C189.775 188.082 189.949 188.592 189.961 189.228C189.961 189.792 189.805 190.296 189.493 190.74C189.181 191.184 188.737 191.532 188.161 191.784C187.597 192.036 186.931 192.162 186.163 192.162ZM201.268 186.798C201.268 187.17 201.244 187.506 201.196 187.806H193.618C193.678 188.598 193.972 189.234 194.5 189.714C195.028 190.194 195.676 190.434 196.444 190.434C197.548 190.434 198.328 189.972 198.784 189.048H200.998C200.698 189.96 200.152 190.71 199.36 191.298C198.58 191.874 197.608 192.162 196.444 192.162C195.496 192.162 194.644 191.952 193.888 191.532C193.144 191.1 192.556 190.5 192.124 189.732C191.704 188.952 191.494 188.052 191.494 187.032C191.494 186.012 191.698 185.118 192.106 184.35C192.526 183.57 193.108 182.97 193.852 182.55C194.608 182.13 195.472 181.92 196.444 181.92C197.38 181.92 198.214 182.124 198.946 182.532C199.678 182.94 200.248 183.516 200.656 184.26C201.064 184.992 201.268 185.838 201.268 186.798ZM199.126 186.15C199.114 185.394 198.844 184.788 198.316 184.332C197.788 183.876 197.134 183.648 196.354 183.648C195.646 183.648 195.04 183.876 194.536 184.332C194.032 184.776 193.732 185.382 193.636 186.15H199.126ZM205.538 189.534L203.36 194.502H202.028L203.306 189.534H205.538ZM225.326 182.082L222.248 192H220.088L218.09 184.674L216.092 192H213.932L210.836 182.082H212.924L214.994 190.056L217.1 182.082H219.242L221.258 190.02L223.31 182.082H225.326ZM235.95 186.798C235.95 187.17 235.926 187.506 235.878 187.806H228.3C228.36 188.598 228.654 189.234 229.182 189.714C229.71 190.194 230.358 190.434 231.126 190.434C232.23 190.434 233.01 189.972 233.466 189.048H235.68C235.38 189.96 234.834 190.71 234.042 191.298C233.262 191.874 232.29 192.162 231.126 192.162C230.178 192.162 229.326 191.952 228.57 191.532C227.826 191.1 227.238 190.5 226.806 189.732C226.386 188.952 226.176 188.052 226.176 187.032C226.176 186.012 226.38 185.118 226.788 184.35C227.208 183.57 227.79 182.97 228.534 182.55C229.29 182.13 230.154 181.92 231.126 181.92C232.062 181.92 232.896 182.124 233.628 182.532C234.36 182.94 234.93 183.516 235.338 184.26C235.746 184.992 235.95 185.838 235.95 186.798ZM233.808 186.15C233.796 185.394 233.526 184.788 232.998 184.332C232.47 183.876 231.816 183.648 231.036 183.648C230.328 183.648 229.722 183.876 229.218 184.332C228.714 184.776 228.414 185.382 228.318 186.15H233.808ZM241.961 186.996C241.961 186 242.165 185.118 242.573 184.35C242.993 183.582 243.557 182.988 244.265 182.568C244.985 182.136 245.783 181.92 246.659 181.92C247.307 181.92 247.943 182.064 248.567 182.352C249.203 182.628 249.707 183 250.079 183.468V178.68H252.149V192H250.079V190.506C249.743 190.986 249.275 191.382 248.675 191.694C248.087 192.006 247.409 192.162 246.641 192.162C245.777 192.162 244.985 191.946 244.265 191.514C243.557 191.07 242.993 190.458 242.573 189.678C242.165 188.886 241.961 187.992 241.961 186.996ZM250.079 187.032C250.079 186.348 249.935 185.754 249.647 185.25C249.371 184.746 249.005 184.362 248.549 184.098C248.093 183.834 247.601 183.702 247.073 183.702C246.545 183.702 246.053 183.834 245.597 184.098C245.141 184.35 244.769 184.728 244.481 185.232C244.205 185.724 244.067 186.312 244.067 186.996C244.067 187.68 244.205 188.28 244.481 188.796C244.769 189.312 245.141 189.708 245.597 189.984C246.065 190.248 246.557 190.38 247.073 190.38C247.601 190.38 248.093 190.248 248.549 189.984C249.005 189.72 249.371 189.336 249.647 188.832C249.935 188.316 250.079 187.716 250.079 187.032ZM263.934 186.798C263.934 187.17 263.91 187.506 263.862 187.806H256.284C256.344 188.598 256.638 189.234 257.166 189.714C257.694 190.194 258.342 190.434 259.11 190.434C260.214 190.434 260.994 189.972 261.45 189.048H263.664C263.364 189.96 262.818 190.71 262.026 191.298C261.246 191.874 260.274 192.162 259.11 192.162C258.162 192.162 257.31 191.952 256.554 191.532C255.81 191.1 255.222 190.5 254.79 189.732C254.37 188.952 254.16 188.052 254.16 187.032C254.16 186.012 254.364 185.118 254.772 184.35C255.192 183.57 255.774 182.97 256.518 182.55C257.274 182.13 258.138 181.92 259.11 181.92C260.046 181.92 260.88 182.124 261.612 182.532C262.344 182.94 262.914 183.516 263.322 184.26C263.73 184.992 263.934 185.838 263.934 186.798ZM261.792 186.15C261.78 185.394 261.51 184.788 260.982 184.332C260.454 183.876 259.8 183.648 259.02 183.648C258.312 183.648 257.706 183.876 257.202 184.332C256.698 184.776 256.398 185.382 256.302 186.15H261.792ZM269.788 190.164L272.596 182.082H274.774L270.994 192H268.546L264.784 182.082H266.98L269.788 190.164ZM285.415 186.798C285.415 187.17 285.391 187.506 285.343 187.806H277.765C277.825 188.598 278.119 189.234 278.647 189.714C279.175 190.194 279.823 190.434 280.591 190.434C281.695 190.434 282.475 189.972 282.931 189.048H285.145C284.845 189.96 284.299 190.71 283.507 191.298C282.727 191.874 281.755 192.162 280.591 192.162C279.643 192.162 278.791 191.952 278.035 191.532C277.291 191.1 276.703 190.5 276.271 189.732C275.851 188.952 275.641 188.052 275.641 187.032C275.641 186.012 275.845 185.118 276.253 184.35C276.673 183.57 277.255 182.97 277.999 182.55C278.755 182.13 279.619 181.92 280.591 181.92C281.527 181.92 282.361 182.124 283.093 182.532C283.825 182.94 284.395 183.516 284.803 184.26C285.211 184.992 285.415 185.838 285.415 186.798ZM283.273 186.15C283.261 185.394 282.991 184.788 282.463 184.332C281.935 183.876 281.281 183.648 280.501 183.648C279.793 183.648 279.187 183.876 278.683 184.332C278.179 184.776 277.879 185.382 277.783 186.15H283.273ZM289.486 178.68V192H287.434V178.68H289.486ZM296.482 192.162C295.546 192.162 294.7 191.952 293.944 191.532C293.188 191.1 292.594 190.5 292.162 189.732C291.73 188.952 291.514 188.052 291.514 187.032C291.514 186.024 291.736 185.13 292.18 184.35C292.624 183.57 293.23 182.97 293.998 182.55C294.766 182.13 295.624 181.92 296.572 181.92C297.52 181.92 298.378 182.13 299.146 182.55C299.914 182.97 300.52 183.57 300.964 184.35C301.408 185.13 301.63 186.024 301.63 187.032C301.63 188.04 301.402 188.934 300.946 189.714C300.49 190.494 299.866 191.1 299.074 191.532C298.294 191.952 297.43 192.162 296.482 192.162ZM296.482 190.38C297.01 190.38 297.502 190.254 297.958 190.002C298.426 189.75 298.804 189.372 299.092 188.868C299.38 188.364 299.524 187.752 299.524 187.032C299.524 186.312 299.386 185.706 299.11 185.214C298.834 184.71 298.468 184.332 298.012 184.08C297.556 183.828 297.064 183.702 296.536 183.702C296.008 183.702 295.516 183.828 295.06 184.08C294.616 184.332 294.262 184.71 293.998 185.214C293.734 185.706 293.602 186.312 293.602 187.032C293.602 188.1 293.872 188.928 294.412 189.516C294.964 190.092 295.654 190.38 296.482 190.38ZM305.711 183.54C306.059 183.084 306.533 182.7 307.133 182.388C307.733 182.076 308.411 181.92 309.167 181.92C310.031 181.92 310.817 182.136 311.525 182.568C312.245 182.988 312.809 183.582 313.217 184.35C313.625 185.118 313.829 186 313.829 186.996C313.829 187.992 313.625 188.886 313.217 189.678C312.809 190.458 312.245 191.07 311.525 191.514C310.817 191.946 310.031 192.162 309.167 192.162C308.411 192.162 307.739 192.012 307.151 191.712C306.563 191.4 306.083 191.016 305.711 190.56V196.716H303.659V182.082H305.711V183.54ZM311.741 186.996C311.741 186.312 311.597 185.724 311.309 185.232C311.033 184.728 310.661 184.35 310.193 184.098C309.737 183.834 309.245 183.702 308.717 183.702C308.201 183.702 307.709 183.834 307.241 184.098C306.785 184.362 306.413 184.746 306.125 185.25C305.849 185.754 305.711 186.348 305.711 187.032C305.711 187.716 305.849 188.316 306.125 188.832C306.413 189.336 306.785 189.72 307.241 189.984C307.709 190.248 308.201 190.38 308.717 190.38C309.245 190.38 309.737 190.248 310.193 189.984C310.661 189.708 311.033 189.312 311.309 188.796C311.597 188.28 311.741 187.68 311.741 186.996ZM319.85 187.032C319.85 186.012 320.054 185.118 320.462 184.35C320.882 183.57 321.458 182.97 322.19 182.55C322.922 182.13 323.762 181.92 324.71 181.92C325.91 181.92 326.9 182.208 327.68 182.784C328.472 183.348 329.006 184.158 329.282 185.214H327.068C326.888 184.722 326.6 184.338 326.204 184.062C325.808 183.786 325.31 183.648 324.71 183.648C323.87 183.648 323.198 183.948 322.694 184.548C322.202 185.136 321.956 185.964 321.956 187.032C321.956 188.1 322.202 188.934 322.694 189.534C323.198 190.134 323.87 190.434 324.71 190.434C325.898 190.434 326.684 189.912 327.068 188.868H329.282C328.994 189.876 328.454 190.68 327.662 191.28C326.87 191.868 325.886 192.162 324.71 192.162C323.762 192.162 322.922 191.952 322.19 191.532C321.458 191.1 320.882 190.5 320.462 189.732C320.054 188.952 319.85 188.052 319.85 187.032ZM330.643 186.996C330.643 186 330.847 185.118 331.255 184.35C331.675 183.582 332.239 182.988 332.947 182.568C333.667 182.136 334.459 181.92 335.323 181.92C336.103 181.92 336.781 182.076 337.357 182.388C337.945 182.688 338.413 183.066 338.761 183.522V182.082H340.831V192H338.761V190.524C338.413 190.992 337.939 191.382 337.339 191.694C336.739 192.006 336.055 192.162 335.287 192.162C334.435 192.162 333.655 191.946 332.947 191.514C332.239 191.07 331.675 190.458 331.255 189.678C330.847 188.886 330.643 187.992 330.643 186.996ZM338.761 187.032C338.761 186.348 338.617 185.754 338.329 185.25C338.053 184.746 337.687 184.362 337.231 184.098C336.775 183.834 336.283 183.702 335.755 183.702C335.227 183.702 334.735 183.834 334.279 184.098C333.823 184.35 333.451 184.728 333.163 185.232C332.887 185.724 332.749 186.312 332.749 186.996C332.749 187.68 332.887 188.28 333.163 188.796C333.451 189.312 333.823 189.708 334.279 189.984C334.747 190.248 335.239 190.38 335.755 190.38C336.283 190.38 336.775 190.248 337.231 189.984C337.687 189.72 338.053 189.336 338.329 188.832C338.617 188.316 338.761 187.716 338.761 187.032ZM355.532 181.92C356.312 181.92 357.008 182.082 357.62 182.406C358.244 182.73 358.73 183.21 359.078 183.846C359.438 184.482 359.618 185.25 359.618 186.15V192H357.584V186.456C357.584 185.568 357.362 184.89 356.918 184.422C356.474 183.942 355.868 183.702 355.1 183.702C354.332 183.702 353.72 183.942 353.264 184.422C352.82 184.89 352.598 185.568 352.598 186.456V192H350.564V186.456C350.564 185.568 350.342 184.89 349.898 184.422C349.454 183.942 348.848 183.702 348.08 183.702C347.312 183.702 346.7 183.942 346.244 184.422C345.8 184.89 345.578 185.568 345.578 186.456V192H343.526V182.082H345.578V183.216C345.914 182.808 346.34 182.49 346.856 182.262C347.372 182.034 347.924 181.92 348.512 181.92C349.304 181.92 350.012 182.088 350.636 182.424C351.26 182.76 351.74 183.246 352.076 183.882C352.376 183.282 352.844 182.808 353.48 182.46C354.116 182.1 354.8 181.92 355.532 181.92ZM364.281 183.54C364.629 183.084 365.103 182.7 365.703 182.388C366.303 182.076 366.981 181.92 367.737 181.92C368.601 181.92 369.387 182.136 370.095 182.568C370.815 182.988 371.379 183.582 371.787 184.35C372.195 185.118 372.399 186 372.399 186.996C372.399 187.992 372.195 188.886 371.787 189.678C371.379 190.458 370.815 191.07 370.095 191.514C369.387 191.946 368.601 192.162 367.737 192.162C366.981 192.162 366.309 192.012 365.721 191.712C365.133 191.4 364.653 191.016 364.281 190.56V196.716H362.229V182.082H364.281V183.54ZM370.311 186.996C370.311 186.312 370.167 185.724 369.879 185.232C369.603 184.728 369.231 184.35 368.763 184.098C368.307 183.834 367.815 183.702 367.287 183.702C366.771 183.702 366.279 183.834 365.811 184.098C365.355 184.362 364.983 184.746 364.695 185.25C364.419 185.754 364.281 186.348 364.281 187.032C364.281 187.716 364.419 188.316 364.695 188.832C364.983 189.336 365.355 189.72 365.811 189.984C366.279 190.248 366.771 190.38 367.287 190.38C367.815 190.38 368.307 190.248 368.763 189.984C369.231 189.708 369.603 189.312 369.879 188.796C370.167 188.28 370.311 187.68 370.311 186.996ZM373.744 186.996C373.744 186 373.948 185.118 374.356 184.35C374.776 183.582 375.34 182.988 376.048 182.568C376.768 182.136 377.56 181.92 378.424 181.92C379.204 181.92 379.882 182.076 380.458 182.388C381.046 182.688 381.514 183.066 381.862 183.522V182.082H383.932V192H381.862V190.524C381.514 190.992 381.04 191.382 380.44 191.694C379.84 192.006 379.156 192.162 378.388 192.162C377.536 192.162 376.756 191.946 376.048 191.514C375.34 191.07 374.776 190.458 374.356 189.678C373.948 188.886 373.744 187.992 373.744 186.996ZM381.862 187.032C381.862 186.348 381.718 185.754 381.43 185.25C381.154 184.746 380.788 184.362 380.332 184.098C379.876 183.834 379.384 183.702 378.856 183.702C378.328 183.702 377.836 183.834 377.38 184.098C376.924 184.35 376.552 184.728 376.264 185.232C375.988 185.724 375.85 186.312 375.85 186.996C375.85 187.68 375.988 188.28 376.264 188.796C376.552 189.312 376.924 189.708 377.38 189.984C377.848 190.248 378.34 190.38 378.856 190.38C379.384 190.38 379.876 190.248 380.332 189.984C380.788 189.72 381.154 189.336 381.43 188.832C381.718 188.316 381.862 187.716 381.862 187.032ZM387.671 180.768C387.299 180.768 386.987 180.642 386.735 180.39C386.483 180.138 386.357 179.826 386.357 179.454C386.357 179.082 386.483 178.77 386.735 178.518C386.987 178.266 387.299 178.14 387.671 178.14C388.031 178.14 388.337 178.266 388.589 178.518C388.841 178.77 388.967 179.082 388.967 179.454C388.967 179.826 388.841 180.138 388.589 180.39C388.337 180.642 388.031 180.768 387.671 180.768ZM388.679 182.082V192H386.627V182.082H388.679ZM395.369 181.92C396.137 181.92 396.815 182.076 397.403 182.388C398.003 182.688 398.471 183.066 398.807 183.522V182.082H400.877V192.162C400.877 193.074 400.685 193.884 400.301 194.592C399.917 195.312 399.359 195.876 398.627 196.284C397.907 196.692 397.043 196.896 396.035 196.896C394.691 196.896 393.575 196.578 392.687 195.942C391.799 195.318 391.295 194.466 391.175 193.386H393.209C393.365 193.902 393.695 194.316 394.199 194.628C394.715 194.952 395.327 195.114 396.035 195.114C396.863 195.114 397.529 194.862 398.033 194.358C398.549 193.854 398.807 193.122 398.807 192.162V190.506C398.459 190.974 397.985 191.37 397.385 191.694C396.797 192.006 396.125 192.162 395.369 192.162C394.505 192.162 393.713 191.946 392.993 191.514C392.285 191.07 391.721 190.458 391.301 189.678C390.893 188.886 390.689 187.992 390.689 186.996C390.689 186 390.893 185.118 391.301 184.35C391.721 183.582 392.285 182.988 392.993 182.568C393.713 182.136 394.505 181.92 395.369 181.92ZM398.807 187.032C398.807 186.348 398.663 185.754 398.375 185.25C398.099 184.746 397.733 184.362 397.277 184.098C396.821 183.834 396.329 183.702 395.801 183.702C395.273 183.702 394.781 183.834 394.325 184.098C393.869 184.35 393.497 184.728 393.209 185.232C392.933 185.724 392.795 186.312 392.795 186.996C392.795 187.68 392.933 188.28 393.209 188.796C393.497 189.312 393.869 189.708 394.325 189.984C394.793 190.248 395.285 190.38 395.801 190.38C396.329 190.38 396.821 190.248 397.277 189.984C397.733 189.72 398.099 189.336 398.375 188.832C398.663 188.316 398.807 187.716 398.807 187.032ZM408.577 181.92C409.357 181.92 410.053 182.082 410.665 182.406C411.289 182.73 411.775 183.21 412.123 183.846C412.471 184.482 412.645 185.25 412.645 186.15V192H410.611V186.456C410.611 185.568 410.389 184.89 409.945 184.422C409.501 183.942 408.895 183.702 408.127 183.702C407.359 183.702 406.747 183.942 406.291 184.422C405.847 184.89 405.625 185.568 405.625 186.456V192H403.573V182.082H405.625V183.216C405.961 182.808 406.387 182.49 406.903 182.262C407.431 182.034 407.989 181.92 408.577 181.92ZM418.862 192.162C418.082 192.162 417.38 192.024 416.756 191.748C416.144 191.46 415.658 191.076 415.298 190.596C414.938 190.104 414.746 189.558 414.722 188.958H416.846C416.882 189.378 417.08 189.732 417.44 190.02C417.812 190.296 418.274 190.434 418.826 190.434C419.402 190.434 419.846 190.326 420.158 190.11C420.482 189.882 420.644 189.594 420.644 189.246C420.644 188.874 420.464 188.598 420.104 188.418C419.756 188.238 419.198 188.04 418.43 187.824C417.686 187.62 417.08 187.422 416.612 187.23C416.144 187.038 415.736 186.744 415.388 186.348C415.052 185.952 414.884 185.43 414.884 184.782C414.884 184.254 415.04 183.774 415.352 183.342C415.664 182.898 416.108 182.55 416.684 182.298C417.272 182.046 417.944 181.92 418.7 181.92C419.828 181.92 420.734 182.208 421.418 182.784C422.114 183.348 422.486 184.122 422.534 185.106H420.482C420.446 184.662 420.266 184.308 419.942 184.044C419.618 183.78 419.18 183.648 418.628 183.648C418.088 183.648 417.674 183.75 417.386 183.954C417.098 184.158 416.954 184.428 416.954 184.764C416.954 185.028 417.05 185.25 417.242 185.43C417.434 185.61 417.668 185.754 417.944 185.862C418.22 185.958 418.628 186.084 419.168 186.24C419.888 186.432 420.476 186.63 420.932 186.834C421.4 187.026 421.802 187.314 422.138 187.698C422.474 188.082 422.648 188.592 422.66 189.228C422.66 189.792 422.504 190.296 422.192 190.74C421.88 191.184 421.436 191.532 420.86 191.784C420.296 192.036 419.63 192.162 418.862 192.162ZM3.744 217.756V223.246C3.744 223.618 3.828 223.888 3.996 224.056C4.176 224.212 4.476 224.29 4.896 224.29H6.156V226H4.536C3.612 226 2.904 225.784 2.412 225.352C1.92 224.92 1.674 224.218 1.674 223.246V217.756H0.504V216.082H1.674V213.616H3.744V216.082H6.156V217.756H3.744ZM13.1773 215.92C13.9333 215.92 14.6053 216.082 15.1933 216.406C15.7933 216.73 16.2613 217.21 16.5973 217.846C16.9453 218.482 17.1193 219.25 17.1193 220.15V226H15.0853V220.456C15.0853 219.568 14.8633 218.89 14.4193 218.422C13.9753 217.942 13.3693 217.702 12.6013 217.702C11.8333 217.702 11.2213 217.942 10.7653 218.422C10.3213 218.89 10.0993 219.568 10.0993 220.456V226H8.04727V212.68H10.0993V217.234C10.4473 216.814 10.8853 216.49 11.4133 216.262C11.9533 216.034 12.5413 215.92 13.1773 215.92ZM19.0527 220.996C19.0527 220 19.2567 219.118 19.6647 218.35C20.0847 217.582 20.6487 216.988 21.3567 216.568C22.0767 216.136 22.8687 215.92 23.7327 215.92C24.5127 215.92 25.1907 216.076 25.7667 216.388C26.3547 216.688 26.8227 217.066 27.1707 217.522V216.082H29.2407V226H27.1707V224.524C26.8227 224.992 26.3487 225.382 25.7487 225.694C25.1487 226.006 24.4647 226.162 23.6967 226.162C22.8447 226.162 22.0647 225.946 21.3567 225.514C20.6487 225.07 20.0847 224.458 19.6647 223.678C19.2567 222.886 19.0527 221.992 19.0527 220.996ZM27.1707 221.032C27.1707 220.348 27.0267 219.754 26.7387 219.25C26.4627 218.746 26.0967 218.362 25.6407 218.098C25.1847 217.834 24.6927 217.702 24.1647 217.702C23.6367 217.702 23.1447 217.834 22.6887 218.098C22.2327 218.35 21.8607 218.728 21.5727 219.232C21.2967 219.724 21.1587 220.312 21.1587 220.996C21.1587 221.68 21.2967 222.28 21.5727 222.796C21.8607 223.312 22.2327 223.708 22.6887 223.984C23.1567 224.248 23.6487 224.38 24.1647 224.38C24.6927 224.38 25.1847 224.248 25.6407 223.984C26.0967 223.72 26.4627 223.336 26.7387 222.832C27.0267 222.316 27.1707 221.716 27.1707 221.032ZM34.3299 217.756V223.246C34.3299 223.618 34.4139 223.888 34.5819 224.056C34.7619 224.212 35.0619 224.29 35.4819 224.29H36.7419V226H35.1219C34.1979 226 33.4899 225.784 32.9979 225.352C32.5059 224.92 32.2599 224.218 32.2599 223.246V217.756H31.0899V216.082H32.2599V213.616H34.3299V216.082H36.7419V217.756H34.3299ZM45.361 217.522C45.661 217.018 46.057 216.628 46.549 216.352C47.053 216.064 47.647 215.92 48.331 215.92V218.044H47.809C47.005 218.044 46.393 218.248 45.973 218.656C45.565 219.064 45.361 219.772 45.361 220.78V226H43.309V216.082H45.361V217.522ZM59.3072 220.798C59.3072 221.17 59.2832 221.506 59.2352 221.806H51.6572C51.7172 222.598 52.0112 223.234 52.5392 223.714C53.0672 224.194 53.7152 224.434 54.4832 224.434C55.5872 224.434 56.3672 223.972 56.8232 223.048H59.0372C58.7372 223.96 58.1912 224.71 57.3992 225.298C56.6192 225.874 55.6472 226.162 54.4832 226.162C53.5352 226.162 52.6832 225.952 51.9272 225.532C51.1832 225.1 50.5952 224.5 50.1632 223.732C49.7432 222.952 49.5332 222.052 49.5332 221.032C49.5332 220.012 49.7372 219.118 50.1452 218.35C50.5652 217.57 51.1472 216.97 51.8912 216.55C52.6472 216.13 53.5112 215.92 54.4832 215.92C55.4192 215.92 56.2532 216.124 56.9852 216.532C57.7172 216.94 58.2872 217.516 58.6952 218.26C59.1032 218.992 59.3072 219.838 59.3072 220.798ZM57.1652 220.15C57.1532 219.394 56.8832 218.788 56.3552 218.332C55.8272 217.876 55.1732 217.648 54.3932 217.648C53.6852 217.648 53.0792 217.876 52.5752 218.332C52.0712 218.776 51.7712 219.382 51.6752 220.15H57.1652ZM64.9266 226.162C64.1466 226.162 63.4446 226.024 62.8206 225.748C62.2086 225.46 61.7226 225.076 61.3626 224.596C61.0026 224.104 60.8106 223.558 60.7866 222.958H62.9106C62.9466 223.378 63.1446 223.732 63.5046 224.02C63.8766 224.296 64.3386 224.434 64.8906 224.434C65.4666 224.434 65.9106 224.326 66.2226 224.11C66.5466 223.882 66.7086 223.594 66.7086 223.246C66.7086 222.874 66.5286 222.598 66.1686 222.418C65.8206 222.238 65.2626 222.04 64.4946 221.824C63.7506 221.62 63.1446 221.422 62.6766 221.23C62.2086 221.038 61.8006 220.744 61.4526 220.348C61.1166 219.952 60.9486 219.43 60.9486 218.782C60.9486 218.254 61.1046 217.774 61.4166 217.342C61.7286 216.898 62.1726 216.55 62.7486 216.298C63.3366 216.046 64.0086 215.92 64.7646 215.92C65.8926 215.92 66.7986 216.208 67.4826 216.784C68.1786 217.348 68.5506 218.122 68.5986 219.106H66.5466C66.5106 218.662 66.3306 218.308 66.0066 218.044C65.6826 217.78 65.2446 217.648 64.6926 217.648C64.1526 217.648 63.7386 217.75 63.4506 217.954C63.1626 218.158 63.0186 218.428 63.0186 218.764C63.0186 219.028 63.1146 219.25 63.3066 219.43C63.4986 219.61 63.7326 219.754 64.0086 219.862C64.2846 219.958 64.6926 220.084 65.2326 220.24C65.9526 220.432 66.5406 220.63 66.9966 220.834C67.4646 221.026 67.8666 221.314 68.2026 221.698C68.5386 222.082 68.7126 222.592 68.7246 223.228C68.7246 223.792 68.5686 224.296 68.2566 224.74C67.9446 225.184 67.5006 225.532 66.9246 225.784C66.3606 226.036 65.6946 226.162 64.9266 226.162ZM75.2438 226.162C74.3078 226.162 73.4618 225.952 72.7058 225.532C71.9498 225.1 71.3558 224.5 70.9238 223.732C70.4918 222.952 70.2758 222.052 70.2758 221.032C70.2758 220.024 70.4978 219.13 70.9418 218.35C71.3858 217.57 71.9918 216.97 72.7598 216.55C73.5278 216.13 74.3858 215.92 75.3338 215.92C76.2818 215.92 77.1398 216.13 77.9078 216.55C78.6758 216.97 79.2818 217.57 79.7258 218.35C80.1698 219.13 80.3918 220.024 80.3918 221.032C80.3918 222.04 80.1638 222.934 79.7078 223.714C79.2518 224.494 78.6278 225.1 77.8358 225.532C77.0558 225.952 76.1918 226.162 75.2438 226.162ZM75.2438 224.38C75.7718 224.38 76.2638 224.254 76.7198 224.002C77.1878 223.75 77.5658 223.372 77.8538 222.868C78.1418 222.364 78.2858 221.752 78.2858 221.032C78.2858 220.312 78.1478 219.706 77.8718 219.214C77.5958 218.71 77.2298 218.332 76.7738 218.08C76.3178 217.828 75.8258 217.702 75.2978 217.702C74.7698 217.702 74.2778 217.828 73.8218 218.08C73.3778 218.332 73.0238 218.71 72.7598 219.214C72.4958 219.706 72.3638 220.312 72.3638 221.032C72.3638 222.1 72.6338 222.928 73.1738 223.516C73.7258 224.092 74.4158 224.38 75.2438 224.38ZM87.4243 215.92C88.2043 215.92 88.9003 216.082 89.5123 216.406C90.1363 216.73 90.6223 217.21 90.9703 217.846C91.3183 218.482 91.4923 219.25 91.4923 220.15V226H89.4583V220.456C89.4583 219.568 89.2363 218.89 88.7923 218.422C88.3483 217.942 87.7423 217.702 86.9743 217.702C86.2063 217.702 85.5943 217.942 85.1383 218.422C84.6943 218.89 84.4723 219.568 84.4723 220.456V226H82.4203V216.082H84.4723V217.216C84.8083 216.808 85.2343 216.49 85.7503 216.262C86.2783 216.034 86.8363 215.92 87.4243 215.92ZM93.4258 220.996C93.4258 220 93.6298 219.118 94.0378 218.35C94.4578 217.582 95.0218 216.988 95.7298 216.568C96.4498 216.136 97.2418 215.92 98.1058 215.92C98.8858 215.92 99.5638 216.076 100.14 216.388C100.728 216.688 101.196 217.066 101.544 217.522V216.082H103.614V226H101.544V224.524C101.196 224.992 100.722 225.382 100.122 225.694C99.5218 226.006 98.8378 226.162 98.0698 226.162C97.2178 226.162 96.4378 225.946 95.7298 225.514C95.0218 225.07 94.4578 224.458 94.0378 223.678C93.6298 222.886 93.4258 221.992 93.4258 220.996ZM101.544 221.032C101.544 220.348 101.4 219.754 101.112 219.25C100.836 218.746 100.47 218.362 100.014 218.098C99.5578 217.834 99.0658 217.702 98.5378 217.702C98.0098 217.702 97.5178 217.834 97.0618 218.098C96.6058 218.35 96.2338 218.728 95.9458 219.232C95.6698 219.724 95.5318 220.312 95.5318 220.996C95.5318 221.68 95.6698 222.28 95.9458 222.796C96.2338 223.312 96.6058 223.708 97.0618 223.984C97.5298 224.248 98.0218 224.38 98.5378 224.38C99.0658 224.38 99.5578 224.248 100.014 223.984C100.47 223.72 100.836 223.336 101.112 222.832C101.4 222.316 101.544 221.716 101.544 221.032ZM108.703 217.756V223.246C108.703 223.618 108.787 223.888 108.955 224.056C109.135 224.212 109.435 224.29 109.855 224.29H111.115V226H109.495C108.571 226 107.863 225.784 107.371 225.352C106.879 224.92 106.633 224.218 106.633 223.246V217.756H105.463V216.082H106.633V213.616H108.703V216.082H111.115V217.756H108.703ZM122.096 220.798C122.096 221.17 122.072 221.506 122.024 221.806H114.446C114.506 222.598 114.8 223.234 115.328 223.714C115.856 224.194 116.504 224.434 117.272 224.434C118.376 224.434 119.156 223.972 119.612 223.048H121.826C121.526 223.96 120.98 224.71 120.188 225.298C119.408 225.874 118.436 226.162 117.272 226.162C116.324 226.162 115.472 225.952 114.716 225.532C113.972 225.1 113.384 224.5 112.952 223.732C112.532 222.952 112.322 222.052 112.322 221.032C112.322 220.012 112.526 219.118 112.934 218.35C113.354 217.57 113.936 216.97 114.68 216.55C115.436 216.13 116.3 215.92 117.272 215.92C118.208 215.92 119.042 216.124 119.774 216.532C120.506 216.94 121.076 217.516 121.484 218.26C121.892 218.992 122.096 219.838 122.096 220.798ZM119.954 220.15C119.942 219.394 119.672 218.788 119.144 218.332C118.616 217.876 117.962 217.648 117.182 217.648C116.474 217.648 115.868 217.876 115.364 218.332C114.86 218.776 114.56 219.382 114.464 220.15H119.954ZM142.111 216.082L139.033 226H136.873L134.875 218.674L132.877 226H130.717L127.621 216.082H129.709L131.779 224.056L133.885 216.082H136.027L138.043 224.02L140.095 216.082H142.111ZM144.689 214.768C144.317 214.768 144.005 214.642 143.753 214.39C143.501 214.138 143.375 213.826 143.375 213.454C143.375 213.082 143.501 212.77 143.753 212.518C144.005 212.266 144.317 212.14 144.689 212.14C145.049 212.14 145.355 212.266 145.607 212.518C145.859 212.77 145.985 213.082 145.985 213.454C145.985 213.826 145.859 214.138 145.607 214.39C145.355 214.642 145.049 214.768 144.689 214.768ZM145.697 216.082V226H143.645V216.082H145.697ZM150.785 217.756V223.246C150.785 223.618 150.869 223.888 151.037 224.056C151.217 224.212 151.517 224.29 151.937 224.29H153.197V226H151.577C150.653 226 149.945 225.784 149.453 225.352C148.961 224.92 148.715 224.218 148.715 223.246V217.756H147.545V216.082H148.715V213.616H150.785V216.082H153.197V217.756H150.785ZM160.218 215.92C160.974 215.92 161.646 216.082 162.234 216.406C162.834 216.73 163.302 217.21 163.638 217.846C163.986 218.482 164.16 219.25 164.16 220.15V226H162.126V220.456C162.126 219.568 161.904 218.89 161.46 218.422C161.016 217.942 160.41 217.702 159.642 217.702C158.874 217.702 158.262 217.942 157.806 218.422C157.362 218.89 157.14 219.568 157.14 220.456V226H155.088V212.68H157.14V217.234C157.488 216.814 157.926 216.49 158.454 216.262C158.994 216.034 159.582 215.92 160.218 215.92ZM180.382 216.082L174.298 230.662H172.174L174.19 225.838L170.284 216.082H172.57L175.36 223.642L178.258 216.082H180.382ZM186.232 226.162C185.296 226.162 184.45 225.952 183.694 225.532C182.938 225.1 182.344 224.5 181.912 223.732C181.48 222.952 181.264 222.052 181.264 221.032C181.264 220.024 181.486 219.13 181.93 218.35C182.374 217.57 182.98 216.97 183.748 216.55C184.516 216.13 185.374 215.92 186.322 215.92C187.27 215.92 188.128 216.13 188.896 216.55C189.664 216.97 190.27 217.57 190.714 218.35C191.158 219.13 191.38 220.024 191.38 221.032C191.38 222.04 191.152 222.934 190.696 223.714C190.24 224.494 189.616 225.1 188.824 225.532C188.044 225.952 187.18 226.162 186.232 226.162ZM186.232 224.38C186.76 224.38 187.252 224.254 187.708 224.002C188.176 223.75 188.554 223.372 188.842 222.868C189.13 222.364 189.274 221.752 189.274 221.032C189.274 220.312 189.136 219.706 188.86 219.214C188.584 218.71 188.218 218.332 187.762 218.08C187.306 217.828 186.814 217.702 186.286 217.702C185.758 217.702 185.266 217.828 184.81 218.08C184.366 218.332 184.012 218.71 183.748 219.214C183.484 219.706 183.352 220.312 183.352 221.032C183.352 222.1 183.622 222.928 184.162 223.516C184.714 224.092 185.404 224.38 186.232 224.38ZM202.391 216.082V226H200.339V224.83C200.015 225.238 199.589 225.562 199.061 225.802C198.545 226.03 197.993 226.144 197.405 226.144C196.625 226.144 195.923 225.982 195.299 225.658C194.687 225.334 194.201 224.854 193.841 224.218C193.493 223.582 193.319 222.814 193.319 221.914V216.082H195.353V221.608C195.353 222.496 195.575 223.18 196.019 223.66C196.463 224.128 197.069 224.362 197.837 224.362C198.605 224.362 199.211 224.128 199.655 223.66C200.111 223.18 200.339 222.496 200.339 221.608V216.082H202.391ZM207.15 217.522C207.45 217.018 207.846 216.628 208.338 216.352C208.842 216.064 209.436 215.92 210.12 215.92V218.044H209.598C208.794 218.044 208.182 218.248 207.762 218.656C207.354 219.064 207.15 219.772 207.15 220.78V226H205.098V216.082H207.15V217.522ZM215.998 220.996C215.998 220 216.202 219.118 216.61 218.35C217.03 217.582 217.594 216.988 218.302 216.568C219.022 216.136 219.814 215.92 220.678 215.92C221.458 215.92 222.136 216.076 222.712 216.388C223.3 216.688 223.768 217.066 224.116 217.522V216.082H226.186V226H224.116V224.524C223.768 224.992 223.294 225.382 222.694 225.694C222.094 226.006 221.41 226.162 220.642 226.162C219.79 226.162 219.01 225.946 218.302 225.514C217.594 225.07 217.03 224.458 216.61 223.678C216.202 222.886 215.998 221.992 215.998 220.996ZM224.116 221.032C224.116 220.348 223.972 219.754 223.684 219.25C223.408 218.746 223.042 218.362 222.586 218.098C222.13 217.834 221.638 217.702 221.11 217.702C220.582 217.702 220.09 217.834 219.634 218.098C219.178 218.35 218.806 218.728 218.518 219.232C218.242 219.724 218.104 220.312 218.104 220.996C218.104 221.68 218.242 222.28 218.518 222.796C218.806 223.312 219.178 223.708 219.634 223.984C220.102 224.248 220.594 224.38 221.11 224.38C221.638 224.38 222.13 224.248 222.586 223.984C223.042 223.72 223.408 223.336 223.684 222.832C223.972 222.316 224.116 221.716 224.116 221.032ZM237.863 216.082V226H235.811V224.83C235.487 225.238 235.061 225.562 234.533 225.802C234.017 226.03 233.465 226.144 232.877 226.144C232.097 226.144 231.395 225.982 230.771 225.658C230.159 225.334 229.673 224.854 229.313 224.218C228.965 223.582 228.791 222.814 228.791 221.914V216.082H230.825V221.608C230.825 222.496 231.047 223.18 231.491 223.66C231.935 224.128 232.541 224.362 233.309 224.362C234.077 224.362 234.683 224.128 235.127 223.66C235.583 223.18 235.811 222.496 235.811 221.608V216.082H237.863ZM239.887 220.996C239.887 220 240.091 219.118 240.499 218.35C240.919 217.582 241.483 216.988 242.191 216.568C242.911 216.136 243.709 215.92 244.585 215.92C245.233 215.92 245.869 216.064 246.493 216.352C247.129 216.628 247.633 217 248.005 217.468V212.68H250.075V226H248.005V224.506C247.669 224.986 247.201 225.382 246.601 225.694C246.013 226.006 245.335 226.162 244.567 226.162C243.703 226.162 242.911 225.946 242.191 225.514C241.483 225.07 240.919 224.458 240.499 223.678C240.091 222.886 239.887 221.992 239.887 220.996ZM248.005 221.032C248.005 220.348 247.861 219.754 247.573 219.25C247.297 218.746 246.931 218.362 246.475 218.098C246.019 217.834 245.527 217.702 244.999 217.702C244.471 217.702 243.979 217.834 243.523 218.098C243.067 218.35 242.695 218.728 242.407 219.232C242.131 219.724 241.993 220.312 241.993 220.996C241.993 221.68 242.131 222.28 242.407 222.796C242.695 223.312 243.067 223.708 243.523 223.984C243.991 224.248 244.483 224.38 244.999 224.38C245.527 224.38 246.019 224.248 246.475 223.984C246.931 223.72 247.297 223.336 247.573 222.832C247.861 222.316 248.005 221.716 248.005 221.032ZM253.814 214.768C253.442 214.768 253.13 214.642 252.878 214.39C252.626 214.138 252.5 213.826 252.5 213.454C252.5 213.082 252.626 212.77 252.878 212.518C253.13 212.266 253.442 212.14 253.814 212.14C254.174 212.14 254.48 212.266 254.732 212.518C254.984 212.77 255.11 213.082 255.11 213.454C255.11 213.826 254.984 214.138 254.732 214.39C254.48 214.642 254.174 214.768 253.814 214.768ZM254.822 216.082V226H252.77V216.082H254.822ZM266.606 220.798C266.606 221.17 266.582 221.506 266.534 221.806H258.956C259.016 222.598 259.31 223.234 259.838 223.714C260.366 224.194 261.014 224.434 261.782 224.434C262.886 224.434 263.666 223.972 264.122 223.048H266.336C266.036 223.96 265.49 224.71 264.698 225.298C263.918 225.874 262.946 226.162 261.782 226.162C260.834 226.162 259.982 225.952 259.226 225.532C258.482 225.1 257.894 224.5 257.462 223.732C257.042 222.952 256.832 222.052 256.832 221.032C256.832 220.012 257.036 219.118 257.444 218.35C257.864 217.57 258.446 216.97 259.19 216.55C259.946 216.13 260.81 215.92 261.782 215.92C262.718 215.92 263.552 216.124 264.284 216.532C265.016 216.94 265.586 217.516 265.994 218.26C266.402 218.992 266.606 219.838 266.606 220.798ZM264.464 220.15C264.452 219.394 264.182 218.788 263.654 218.332C263.126 217.876 262.472 217.648 261.692 217.648C260.984 217.648 260.378 217.876 259.874 218.332C259.37 218.776 259.07 219.382 258.974 220.15H264.464ZM273.629 215.92C274.409 215.92 275.105 216.082 275.717 216.406C276.341 216.73 276.827 217.21 277.175 217.846C277.523 218.482 277.697 219.25 277.697 220.15V226H275.663V220.456C275.663 219.568 275.441 218.89 274.997 218.422C274.553 217.942 273.947 217.702 273.179 217.702C272.411 217.702 271.799 217.942 271.343 218.422C270.899 218.89 270.677 219.568 270.677 220.456V226H268.625V216.082H270.677V217.216C271.013 216.808 271.439 216.49 271.955 216.262C272.483 216.034 273.041 215.92 273.629 215.92ZM279.631 221.032C279.631 220.012 279.835 219.118 280.243 218.35C280.663 217.57 281.239 216.97 281.971 216.55C282.703 216.13 283.543 215.92 284.491 215.92C285.691 215.92 286.681 216.208 287.461 216.784C288.253 217.348 288.787 218.158 289.063 219.214H286.849C286.669 218.722 286.381 218.338 285.985 218.062C285.589 217.786 285.091 217.648 284.491 217.648C283.651 217.648 282.979 217.948 282.475 218.548C281.983 219.136 281.737 219.964 281.737 221.032C281.737 222.1 281.983 222.934 282.475 223.534C282.979 224.134 283.651 224.434 284.491 224.434C285.679 224.434 286.465 223.912 286.849 222.868H289.063C288.775 223.876 288.235 224.68 287.443 225.28C286.651 225.868 285.667 226.162 284.491 226.162C283.543 226.162 282.703 225.952 281.971 225.532C281.239 225.1 280.663 224.5 280.243 223.732C279.835 222.952 279.631 222.052 279.631 221.032ZM300.198 220.798C300.198 221.17 300.174 221.506 300.126 221.806H292.548C292.608 222.598 292.902 223.234 293.43 223.714C293.958 224.194 294.606 224.434 295.374 224.434C296.478 224.434 297.258 223.972 297.714 223.048H299.928C299.628 223.96 299.082 224.71 298.29 225.298C297.51 225.874 296.538 226.162 295.374 226.162C294.426 226.162 293.574 225.952 292.818 225.532C292.074 225.1 291.486 224.5 291.054 223.732C290.634 222.952 290.424 222.052 290.424 221.032C290.424 220.012 290.628 219.118 291.036 218.35C291.456 217.57 292.038 216.97 292.782 216.55C293.538 216.13 294.402 215.92 295.374 215.92C296.31 215.92 297.144 216.124 297.876 216.532C298.608 216.94 299.178 217.516 299.586 218.26C299.994 218.992 300.198 219.838 300.198 220.798ZM298.056 220.15C298.044 219.394 297.774 218.788 297.246 218.332C296.718 217.876 296.064 217.648 295.284 217.648C294.576 217.648 293.97 217.876 293.466 218.332C292.962 218.776 292.662 219.382 292.566 220.15H298.056Z" fill="white" fill-opacity="0.8"/>
<rect width="88" height="84" rx="13" fill="#11F2BE" fill-opacity="0.12"/>
<mask id="mask0_6_81" style="mask-type:alpha" maskUnits="userSpaceOnUse" x="11" y="9" width="66" height="66">
<rect x="11.3333" y="9.33325" width="65.3333" height="65.3333" fill="#D9D9D9"/>
</mask>
<g mask="url(#mask0_6_81)">
<path d="M44 68.2796C37.9726 68.2796 32.8362 67.5598 28.5909 66.1202C24.3451 64.6806 22.2222 62.6782 22.2222 60.113C22.2222 58.8707 22.7894 57.741 23.9236 56.7238C25.0579 55.7061 26.5812 54.8833 28.4935 54.2554L30.719 56.2658C29.1065 56.7331 27.7409 57.3027 26.622 57.9747C25.5036 58.6466 24.9445 59.3594 24.9445 60.113C24.9445 61.5022 26.7295 62.7569 30.2997 63.8771C33.8699 64.9973 38.4367 65.5574 44 65.5574C49.5633 65.5574 54.1301 64.9973 57.7003 63.8771C61.2705 62.7569 63.0556 61.5022 63.0556 60.113C63.0556 59.3594 62.4964 58.6466 61.378 57.9747C60.2592 57.3027 58.8935 56.7331 57.2811 56.2658L59.5065 54.2554C61.4188 54.8833 62.9421 55.7061 64.0764 56.7238C65.2107 57.741 65.7778 58.8707 65.7778 60.113C65.7778 62.6782 63.6549 64.6806 59.4091 66.1202C55.1638 67.5598 50.0275 68.2796 44 68.2796ZM44 58.8567C43.3158 58.8567 42.6659 58.7303 42.0502 58.4776C41.4341 58.2244 40.8624 57.8796 40.3352 57.4431L23.1852 42.3192C22.8749 42.0297 22.6367 41.7051 22.4706 41.3453C22.305 40.9859 22.2222 40.6125 22.2222 40.2251V34.8854C22.2222 34.463 22.2823 34.0636 22.4026 33.687C22.5233 33.31 22.7388 32.9765 23.0491 32.6866L40.3039 16.6411C40.7962 16.1597 41.3617 15.7986 42.0005 15.5577C42.6389 15.3167 43.3054 15.1963 44 15.1963C44.6946 15.1963 45.3611 15.3167 45.9995 15.5577C46.6383 15.7986 47.2038 16.1597 47.6961 16.6411L64.9509 32.6866C65.2612 32.9765 65.4768 33.31 65.5974 33.687C65.7177 34.0636 65.7778 34.463 65.7778 34.8854V40.2251C65.7778 40.6125 65.695 40.9859 65.5294 41.3453C65.3633 41.7051 65.1251 42.0297 64.8148 42.3192L47.6648 57.4431C47.1376 57.8796 46.5659 58.2244 45.9498 58.4776C45.3341 58.7303 44.6842 58.8567 44 58.8567ZM35.8333 37.2361C36.6464 37.2361 37.3297 36.9595 37.8832 36.4065C38.4362 35.8534 38.7128 35.1701 38.7128 34.3566C38.7128 33.5436 38.4362 32.8606 37.8832 32.3075C37.3297 31.754 36.6464 31.4772 35.8333 31.4772C35.0203 31.4772 34.337 31.754 33.7835 32.3075C33.2304 32.8606 32.9539 33.5436 32.9539 34.3566C32.9539 35.1701 33.2304 35.8534 33.7835 36.4065C34.337 36.9595 35.0203 37.2361 35.8333 37.2361ZM40.1787 41.2255C41.9549 41.9337 43.7897 42.1091 45.683 41.7516C47.5763 41.3936 49.2525 40.576 50.7116 39.2988C52.0446 38.1224 52.9407 36.6758 53.3998 34.9589C53.8585 33.2417 53.7859 31.5507 53.1821 29.8861L40.1787 41.2255ZM44 29.0694C44.813 29.0694 45.4963 28.7929 46.0498 28.2398C46.6029 27.6868 46.8794 27.0035 46.8794 26.19C46.8794 25.3769 46.6029 24.6939 46.0498 24.1408C45.4963 23.5873 44.813 23.3106 44 23.3106C43.187 23.3106 42.5037 23.5873 41.9502 24.1408C41.3971 24.6939 41.1206 25.3769 41.1206 26.19C41.1206 27.0035 41.3971 27.6868 41.9502 28.2398C42.5037 28.7929 43.187 29.0694 44 29.0694Z" fill="#11F2BE"/>
</g>
</svg>
