<svg width="1505" height="643" viewBox="0 0 1505 643" fill="none" xmlns="http://www.w3.org/2000/svg">
<path d="M52 0C23.2812 0 0 23.2812 0 52V591C0 619.719 23.2812 643 52 643H623C645.091 643 663 625.091 663 603V397C663 368.281 686.281 345 715 345H843C865.091 345 883 327.091 883 305V52C883 23.2812 859.719 0 831 0H52Z" fill="#C4C4C4"/>
<path d="M789.155 441.361L769.406 479.119V502H761.489V479.119L741.653 441.361H750.44L765.404 472.072L780.368 441.361H789.155ZM814.299 502.783C809.833 502.783 805.773 501.768 802.119 499.738C798.523 497.708 795.681 494.837 793.593 491.125C791.563 487.355 790.548 483.005 790.548 478.075C790.548 473.203 791.592 468.911 793.68 465.199C795.826 461.429 798.726 458.558 802.38 456.586C806.034 454.556 810.123 453.541 814.647 453.541C819.171 453.541 823.26 454.556 826.914 456.586C830.568 458.558 833.439 461.4 835.527 465.112C837.673 468.824 838.746 473.145 838.746 478.075C838.746 483.005 837.644 487.355 835.44 491.125C833.294 494.837 830.365 497.708 826.653 499.738C822.941 501.768 818.823 502.783 814.299 502.783ZM814.299 495.823C817.141 495.823 819.809 495.156 822.303 493.822C824.797 492.488 826.798 490.487 828.306 487.819C829.872 485.151 830.655 481.903 830.655 478.075C830.655 474.247 829.901 470.999 828.393 468.331C826.885 465.663 824.913 463.691 822.477 462.415C820.041 461.081 817.402 460.414 814.56 460.414C811.66 460.414 808.992 461.081 806.556 462.415C804.178 463.691 802.264 465.663 800.814 468.331C799.364 470.999 798.639 474.247 798.639 478.075C798.639 481.961 799.335 485.238 800.727 487.906C802.177 490.574 804.091 492.575 806.469 493.909C808.847 495.185 811.457 495.823 814.299 495.823ZM887.437 454.324V502H879.52V494.953C878.012 497.389 875.895 499.303 873.169 500.695C870.501 502.029 867.543 502.696 864.295 502.696C860.583 502.696 857.248 501.942 854.29 500.434C851.332 498.868 848.983 496.548 847.243 493.474C845.561 490.4 844.72 486.659 844.72 482.251V454.324H852.55V481.207C852.55 485.905 853.739 489.53 856.117 492.082C858.495 494.576 861.743 495.823 865.861 495.823C870.095 495.823 873.43 494.518 875.866 491.908C878.302 489.298 879.52 485.499 879.52 480.511V454.324H887.437ZM904.721 462.067C906.113 459.341 908.085 457.224 910.637 455.716C913.247 454.208 916.408 453.454 920.12 453.454V461.632H918.032C909.158 461.632 904.721 466.446 904.721 476.074V502H896.804V454.324H904.721V462.067ZM963.333 441.361C969.945 441.361 975.658 442.608 980.472 445.102C985.344 447.538 989.056 451.047 991.608 455.629C994.218 460.211 995.523 465.605 995.523 471.811C995.523 478.017 994.218 483.411 991.608 487.993C989.056 492.517 985.344 495.997 980.472 498.433C975.658 500.811 969.945 502 963.333 502H944.454V441.361H963.333ZM963.333 495.475C971.163 495.475 977.137 493.416 981.255 489.298C985.373 485.122 987.432 479.293 987.432 471.811C987.432 464.271 985.344 458.384 981.168 454.15C977.05 449.916 971.105 447.799 963.333 447.799H952.371V495.475H963.333ZM1006.05 446.581C1004.55 446.581 1003.27 446.059 1002.23 445.015C1001.18 443.971 1000.66 442.695 1000.66 441.187C1000.66 439.679 1001.18 438.403 1002.23 437.359C1003.27 436.315 1004.55 435.793 1006.05 435.793C1007.5 435.793 1008.72 436.315 1009.71 437.359C1010.75 438.403 1011.27 439.679 1011.27 441.187C1011.27 442.695 1010.75 443.971 1009.71 445.015C1008.72 446.059 1007.5 446.581 1006.05 446.581ZM1009.88 454.324V502H1001.97V454.324H1009.88ZM1039.04 453.541C1043.16 453.541 1046.75 454.44 1049.83 456.238C1052.96 458.036 1055.28 460.298 1056.79 463.024V454.324H1064.79V503.044C1064.79 507.394 1063.86 511.251 1062.01 514.615C1060.15 518.037 1057.48 520.705 1054 522.619C1050.58 524.533 1046.58 525.49 1042 525.49C1035.73 525.49 1030.51 524.011 1026.34 521.053C1022.16 518.095 1019.69 514.064 1018.94 508.96H1026.77C1027.64 511.86 1029.44 514.18 1032.16 515.92C1034.89 517.718 1038.17 518.617 1042 518.617C1046.35 518.617 1049.88 517.254 1052.61 514.528C1055.39 511.802 1056.79 507.974 1056.79 503.044V493.039C1055.22 495.823 1052.9 498.143 1049.83 499.999C1046.75 501.855 1043.16 502.783 1039.04 502.783C1034.8 502.783 1030.95 501.739 1027.47 499.651C1024.04 497.563 1021.35 494.634 1019.38 490.864C1017.4 487.094 1016.42 482.802 1016.42 477.988C1016.42 473.116 1017.4 468.853 1019.38 465.199C1021.35 461.487 1024.04 458.616 1027.47 456.586C1030.95 454.556 1034.8 453.541 1039.04 453.541ZM1056.79 478.075C1056.79 474.479 1056.06 471.347 1054.61 468.679C1053.16 466.011 1051.19 463.981 1048.69 462.589C1046.26 461.139 1043.56 460.414 1040.6 460.414C1037.65 460.414 1034.95 461.11 1032.51 462.502C1030.08 463.894 1028.13 465.924 1026.68 468.592C1025.23 471.26 1024.51 474.392 1024.51 477.988C1024.51 481.642 1025.23 484.832 1026.68 487.558C1028.13 490.226 1030.08 492.285 1032.51 493.735C1034.95 495.127 1037.65 495.823 1040.6 495.823C1043.56 495.823 1046.26 495.127 1048.69 493.735C1051.19 492.285 1053.16 490.226 1054.61 487.558C1056.06 484.832 1056.79 481.671 1056.79 478.075ZM1078.26 446.581C1076.75 446.581 1075.47 446.059 1074.43 445.015C1073.39 443.971 1072.86 442.695 1072.86 441.187C1072.86 439.679 1073.39 438.403 1074.43 437.359C1075.47 436.315 1076.75 435.793 1078.26 435.793C1079.71 435.793 1080.93 436.315 1081.91 437.359C1082.96 438.403 1083.48 439.679 1083.48 441.187C1083.48 442.695 1082.96 443.971 1081.91 445.015C1080.93 446.059 1079.71 446.581 1078.26 446.581ZM1082.09 454.324V502H1074.17V454.324H1082.09ZM1101.24 460.849V488.95C1101.24 491.27 1101.73 492.923 1102.71 493.909C1103.7 494.837 1105.41 495.301 1107.85 495.301H1113.68V502H1106.54C1102.13 502 1098.83 500.985 1096.62 498.955C1094.42 496.925 1093.32 493.59 1093.32 488.95V460.849H1087.14V454.324H1093.32V442.318H1101.24V454.324H1113.68V460.849H1101.24ZM1116.31 477.988C1116.31 473.116 1117.3 468.853 1119.27 465.199C1121.24 461.487 1123.94 458.616 1127.36 456.586C1130.84 454.556 1134.7 453.541 1138.93 453.541C1143.11 453.541 1146.73 454.44 1149.81 456.238C1152.88 458.036 1155.17 460.298 1156.68 463.024V454.324H1164.68V502H1156.68V493.126C1155.11 495.91 1152.76 498.23 1149.63 500.086C1146.56 501.884 1142.96 502.783 1138.84 502.783C1134.61 502.783 1130.78 501.739 1127.36 499.651C1123.94 497.563 1121.24 494.634 1119.27 490.864C1117.3 487.094 1116.31 482.802 1116.31 477.988ZM1156.68 478.075C1156.68 474.479 1155.95 471.347 1154.5 468.679C1153.05 466.011 1151.08 463.981 1148.59 462.589C1146.15 461.139 1143.46 460.414 1140.5 460.414C1137.54 460.414 1134.84 461.11 1132.41 462.502C1129.97 463.894 1128.03 465.924 1126.58 468.592C1125.13 471.26 1124.4 474.392 1124.4 477.988C1124.4 481.642 1125.13 484.832 1126.58 487.558C1128.03 490.226 1129.97 492.285 1132.41 493.735C1134.84 495.127 1137.54 495.823 1140.5 495.823C1143.46 495.823 1146.15 495.127 1148.59 493.735C1151.08 492.285 1153.05 490.226 1154.5 487.558C1155.95 484.832 1156.68 481.671 1156.68 478.075ZM1181.98 437.62V502H1174.06V437.62H1181.98ZM1251.21 459.109C1251.21 464.155 1249.47 468.36 1245.99 471.724C1242.57 475.03 1237.32 476.683 1230.24 476.683H1218.58V502H1210.67V441.361H1230.24C1237.09 441.361 1242.28 443.014 1245.81 446.32C1249.41 449.626 1251.21 453.889 1251.21 459.109ZM1230.24 470.158C1234.65 470.158 1237.9 469.201 1239.99 467.287C1242.07 465.373 1243.12 462.647 1243.12 459.109C1243.12 451.627 1238.83 447.886 1230.24 447.886H1218.58V470.158H1230.24ZM1254.09 477.988C1254.09 473.116 1255.08 468.853 1257.05 465.199C1259.02 461.487 1261.72 458.616 1265.14 456.586C1268.62 454.556 1272.48 453.541 1276.71 453.541C1280.89 453.541 1284.51 454.44 1287.59 456.238C1290.66 458.036 1292.95 460.298 1294.46 463.024V454.324H1302.46V502H1294.46V493.126C1292.89 495.91 1290.54 498.23 1287.41 500.086C1284.34 501.884 1280.74 502.783 1276.62 502.783C1272.39 502.783 1268.56 501.739 1265.14 499.651C1261.72 497.563 1259.02 494.634 1257.05 490.864C1255.08 487.094 1254.09 482.802 1254.09 477.988ZM1294.46 478.075C1294.46 474.479 1293.73 471.347 1292.28 468.679C1290.83 466.011 1288.86 463.981 1286.37 462.589C1283.93 461.139 1281.23 460.414 1278.28 460.414C1275.32 460.414 1272.62 461.11 1270.19 462.502C1267.75 463.894 1265.81 465.924 1264.36 468.592C1262.91 471.26 1262.18 474.392 1262.18 477.988C1262.18 481.642 1262.91 484.832 1264.36 487.558C1265.81 490.226 1267.75 492.285 1270.19 493.735C1272.62 495.127 1275.32 495.823 1278.28 495.823C1281.23 495.823 1283.93 495.127 1286.37 493.735C1288.86 492.285 1290.83 490.226 1292.28 487.558C1293.73 484.832 1294.46 481.671 1294.46 478.075ZM1319.76 462.067C1321.15 459.341 1323.12 457.224 1325.67 455.716C1328.28 454.208 1331.45 453.454 1335.16 453.454V461.632H1333.07C1324.2 461.632 1319.76 466.446 1319.76 476.074V502H1311.84V454.324H1319.76V462.067ZM1349.95 460.849V488.95C1349.95 491.27 1350.45 492.923 1351.43 493.909C1352.42 494.837 1354.13 495.301 1356.57 495.301H1362.39V502H1355.26C1350.85 502 1347.55 500.985 1345.34 498.955C1343.14 496.925 1342.04 493.59 1342.04 488.95V460.849H1335.86V454.324H1342.04V442.318H1349.95V454.324H1362.39V460.849H1349.95ZM1391.22 453.454C1397.02 453.454 1401.71 455.223 1405.31 458.761C1408.91 462.241 1410.7 467.287 1410.7 473.899V502H1402.87V475.03C1402.87 470.274 1401.69 466.649 1399.31 464.155C1396.93 461.603 1393.68 460.327 1389.56 460.327C1385.39 460.327 1382.05 461.632 1379.56 464.242C1377.12 466.852 1375.9 470.651 1375.9 475.639V502H1367.99V454.324H1375.9V461.11C1377.47 458.674 1379.59 456.789 1382.26 455.455C1384.98 454.121 1387.97 453.454 1391.22 453.454ZM1463.14 476.335C1463.14 477.843 1463.05 479.438 1462.88 481.12H1424.77C1425.06 485.818 1426.65 489.501 1429.55 492.169C1432.51 494.779 1436.08 496.084 1440.26 496.084C1443.68 496.084 1446.52 495.301 1448.78 493.735C1451.1 492.111 1452.73 489.965 1453.65 487.297H1462.18C1460.9 491.879 1458.35 495.62 1454.52 498.52C1450.7 501.362 1445.94 502.783 1440.26 502.783C1435.73 502.783 1431.67 501.768 1428.08 499.738C1424.54 497.708 1421.75 494.837 1419.72 491.125C1417.69 487.355 1416.68 483.005 1416.68 478.075C1416.68 473.145 1417.66 468.824 1419.64 465.112C1421.61 461.4 1424.36 458.558 1427.9 456.586C1431.5 454.556 1435.62 453.541 1440.26 453.541C1444.78 453.541 1448.78 454.527 1452.26 456.499C1455.74 458.471 1458.41 461.197 1460.27 464.677C1462.18 468.099 1463.14 471.985 1463.14 476.335ZM1454.96 474.682C1454.96 471.666 1454.29 469.085 1452.96 466.939C1451.62 464.735 1449.8 463.082 1447.48 461.98C1445.21 460.82 1442.69 460.24 1439.91 460.24C1435.91 460.24 1432.48 461.516 1429.64 464.068C1426.86 466.62 1425.26 470.158 1424.86 474.682H1454.96ZM1477.5 462.067C1478.9 459.341 1480.87 457.224 1483.42 455.716C1486.03 454.208 1489.19 453.454 1492.9 453.454V461.632H1490.81C1481.94 461.632 1477.5 466.446 1477.5 476.074V502H1469.59V454.324H1477.5V462.067Z" fill="white"/>
<path d="M771.755 558.144C768.217 558.144 765.607 558.84 763.925 560.232C762.301 561.566 761.228 563.799 760.706 566.931L760.097 570.324H770.102L768.971 576.849H758.966L751.658 618H743.741L750.962 576.849H744.872L746.003 570.324H752.093L752.702 566.931C753.688 561.595 755.776 557.709 758.966 555.273C762.156 552.779 766.796 551.532 772.886 551.532L771.755 558.144ZM787.861 618.783C783.859 618.783 780.321 617.971 777.247 616.347C774.231 614.665 771.882 612.345 770.2 609.387C768.518 606.371 767.677 602.891 767.677 598.947C767.677 593.553 768.924 588.623 771.418 584.157C773.912 579.633 777.334 576.066 781.684 573.456C786.092 570.846 790.993 569.541 796.387 569.541C800.389 569.541 803.927 570.382 807.001 572.064C810.133 573.688 812.54 576.008 814.222 579.024C815.962 581.982 816.832 585.462 816.832 589.464C816.832 594.858 815.556 599.788 813.004 604.254C810.452 608.72 806.972 612.258 802.564 614.868C798.156 617.478 793.255 618.783 787.861 618.783ZM788.818 612.084C792.588 612.084 795.981 611.069 798.997 609.039C802.013 606.951 804.362 604.225 806.044 600.861C807.784 597.439 808.654 593.785 808.654 589.899C808.654 585.491 807.378 582.127 804.826 579.807C802.274 577.429 799.084 576.24 795.256 576.24C791.486 576.24 788.122 577.284 785.164 579.372C782.206 581.402 779.915 584.128 778.291 587.55C776.667 590.972 775.855 594.655 775.855 598.599C775.855 602.891 777.073 606.226 779.509 608.604C781.945 610.924 785.048 612.084 788.818 612.084ZM833.333 579.372C835.247 576.24 837.654 573.804 840.554 572.064C843.454 570.324 846.76 569.454 850.472 569.454L848.993 577.632H846.905C842.787 577.632 839.336 578.734 836.552 580.938C833.826 583.142 831.999 586.854 831.071 592.074L826.46 618H818.543L826.982 570.324H834.899L833.333 579.372ZM871.347 587.637C872.391 581.721 874.653 576.414 878.133 571.716C881.671 566.96 885.992 563.277 891.096 560.667C896.2 557.999 901.565 556.665 907.191 556.665C913.687 556.665 919.11 558.26 923.46 561.45C927.868 564.64 930.71 569.135 931.986 574.935H922.503C921.459 571.397 919.487 568.671 916.587 566.757C913.745 564.785 910.207 563.799 905.973 563.799C901.739 563.799 897.737 564.785 893.967 566.757C890.255 568.671 887.123 571.455 884.571 575.109C882.019 578.705 880.308 582.881 879.438 587.637C879.148 589.145 879.003 590.885 879.003 592.857C879.003 598.541 880.685 603.065 884.049 606.429C887.413 609.735 891.908 611.388 897.534 611.388C903.508 611.388 908.728 609.619 913.194 606.081C917.66 602.485 920.734 597.642 922.416 591.552H898.23L899.361 585.288H931.986L930.855 591.378C929.521 596.366 927.143 600.948 923.721 605.124C920.357 609.242 916.268 612.519 911.454 614.955C906.698 617.333 901.652 618.522 896.316 618.522C891.328 618.522 886.891 617.507 883.005 615.477C879.177 613.389 876.19 610.46 874.044 606.69C871.898 602.92 870.825 598.599 870.825 593.727C870.825 591.755 870.999 589.725 871.347 587.637ZM947.415 579.372C949.329 576.24 951.736 573.804 954.636 572.064C957.536 570.324 960.842 569.454 964.554 569.454L963.075 577.632H960.987C956.869 577.632 953.418 578.734 950.634 580.938C947.908 583.142 946.081 586.854 945.153 592.074L940.542 618H932.625L941.064 570.324H948.981L947.415 579.372ZM982.047 618.783C978.045 618.783 974.507 617.971 971.433 616.347C968.417 614.665 966.068 612.345 964.386 609.387C962.704 606.371 961.863 602.891 961.863 598.947C961.863 593.553 963.11 588.623 965.604 584.157C968.098 579.633 971.52 576.066 975.87 573.456C980.278 570.846 985.179 569.541 990.573 569.541C994.575 569.541 998.113 570.382 1001.19 572.064C1004.32 573.688 1006.73 576.008 1008.41 579.024C1010.15 581.982 1011.02 585.462 1011.02 589.464C1011.02 594.858 1009.74 599.788 1007.19 604.254C1004.64 608.72 1001.16 612.258 996.75 614.868C992.342 617.478 987.441 618.783 982.047 618.783ZM983.004 612.084C986.774 612.084 990.167 611.069 993.183 609.039C996.199 606.951 998.548 604.225 1000.23 600.861C1001.97 597.439 1002.84 593.785 1002.84 589.899C1002.84 585.491 1001.56 582.127 999.012 579.807C996.46 577.429 993.27 576.24 989.442 576.24C985.672 576.24 982.308 577.284 979.35 579.372C976.392 581.402 974.101 584.128 972.477 587.55C970.853 590.972 970.041 594.655 970.041 598.599C970.041 602.891 971.259 606.226 973.695 608.604C976.131 610.924 979.234 612.084 983.004 612.084ZM1084.68 570.324L1061.36 618H1053.18L1048.49 580.068L1030.22 618H1022.04L1015.51 570.324H1023.6L1027.52 610.344L1046.31 570.324H1054.49L1059.01 610.083L1076.85 570.324H1084.68ZM1092.1 604.95C1091.93 605.82 1091.84 606.574 1091.84 607.212C1091.84 608.662 1092.28 609.706 1093.15 610.344C1094.07 610.982 1095.55 611.301 1097.58 611.301H1103.41L1102.19 618H1095.06C1091.29 618 1088.45 617.275 1086.53 615.825C1084.68 614.375 1083.75 611.997 1083.75 608.691C1083.75 607.415 1083.87 606.168 1084.1 604.95L1089.06 576.849H1082.97L1084.1 570.324H1090.28L1092.36 558.318H1100.37L1098.28 570.324H1110.63L1109.5 576.849H1097.06L1092.1 604.95ZM1140.06 569.454C1144.82 569.454 1148.65 570.788 1151.55 573.456C1154.45 576.066 1155.9 579.865 1155.9 584.853C1155.9 586.709 1155.75 588.391 1155.46 589.899L1150.5 618H1142.67L1147.46 591.03C1147.69 589.812 1147.81 588.536 1147.81 587.202C1147.81 583.664 1146.82 580.967 1144.85 579.111C1142.94 577.255 1140.24 576.327 1136.76 576.327C1132.58 576.327 1129.02 577.632 1126.06 580.242C1123.16 582.852 1121.27 586.651 1120.4 591.639V591.465L1115.7 618H1107.79L1119.18 553.62H1127.1L1122.93 577.197C1124.9 574.761 1127.39 572.876 1130.41 571.542C1133.48 570.15 1136.7 569.454 1140.06 569.454Z" fill="#11F2BE"/>
<path d="M1008.75 57.463L992.908 94H986.353L1002.37 58.147H981.28V52.618H1008.75V57.463ZM1013.18 72.682C1013.18 66.108 1014.28 60.978 1016.48 57.292C1018.72 53.568 1022.56 51.706 1028 51.706C1033.43 51.706 1037.25 53.568 1039.45 57.292C1041.69 60.978 1042.82 66.108 1042.82 72.682C1042.82 79.332 1041.69 84.538 1039.45 88.3C1037.25 92.024 1033.43 93.886 1028 93.886C1022.56 93.886 1018.72 92.024 1016.48 88.3C1014.28 84.538 1013.18 79.332 1013.18 72.682ZM1036.43 72.682C1036.43 69.604 1036.22 67.001 1035.8 64.873C1035.42 62.745 1034.63 61.016 1033.41 59.686C1032.19 58.318 1030.39 57.634 1028 57.634C1025.6 57.634 1023.8 58.318 1022.58 59.686C1021.36 61.016 1020.55 62.745 1020.13 64.873C1019.75 67.001 1019.56 69.604 1019.56 72.682C1019.56 75.874 1019.75 78.553 1020.13 80.719C1020.51 82.885 1021.31 84.633 1022.52 85.963C1023.78 87.293 1025.6 87.958 1028 87.958C1030.39 87.958 1032.19 87.293 1033.41 85.963C1034.66 84.633 1035.48 82.885 1035.86 80.719C1036.24 78.553 1036.43 75.874 1036.43 72.682ZM1048.55 72.682C1048.55 66.108 1049.65 60.978 1051.86 57.292C1054.1 53.568 1057.94 51.706 1063.37 51.706C1068.81 51.706 1072.62 53.568 1074.83 57.292C1077.07 60.978 1078.19 66.108 1078.19 72.682C1078.19 79.332 1077.07 84.538 1074.83 88.3C1072.62 92.024 1068.81 93.886 1063.37 93.886C1057.94 93.886 1054.1 92.024 1051.86 88.3C1049.65 84.538 1048.55 79.332 1048.55 72.682ZM1071.81 72.682C1071.81 69.604 1071.6 67.001 1071.18 64.873C1070.8 62.745 1070 61.016 1068.79 59.686C1067.57 58.318 1065.77 57.634 1063.37 57.634C1060.98 57.634 1059.17 58.318 1057.96 59.686C1056.74 61.016 1055.92 62.745 1055.51 64.873C1055.13 67.001 1054.94 69.604 1054.94 72.682C1054.94 75.874 1055.13 78.553 1055.51 80.719C1055.89 82.885 1056.68 84.633 1057.9 85.963C1059.15 87.293 1060.98 87.958 1063.37 87.958C1065.77 87.958 1067.57 87.293 1068.79 85.963C1070.04 84.633 1070.86 82.885 1071.24 80.719C1071.62 78.553 1071.81 75.874 1071.81 72.682ZM1083.07 58.375V52.447H1094.93V94H1088.37V58.375H1083.07ZM1145.29 54.385V94H1138.8V66.868L1126.71 94H1122.21L1110.07 66.868V94H1103.57V54.385H1110.58L1124.49 85.45L1138.34 54.385H1145.29ZM1183.3 76.159H1171.79V87.958H1165.75V76.159H1154.23V70.687H1165.75V58.888H1171.79V70.687H1183.3V76.159Z" fill="#11F2BE"/>
<path d="M1305.21 58.033H1286.12V69.376C1286.91 68.312 1288.09 67.419 1289.65 66.697C1291.25 65.975 1292.94 65.614 1294.72 65.614C1297.91 65.614 1300.5 66.298 1302.47 67.666C1304.49 69.034 1305.91 70.763 1306.75 72.853C1307.62 74.943 1308.06 77.147 1308.06 79.465C1308.06 82.277 1307.51 84.785 1306.41 86.989C1305.34 89.155 1303.73 90.865 1301.56 92.119C1299.43 93.373 1296.81 94 1293.7 94C1289.55 94 1286.23 92.974 1283.72 90.922C1281.21 88.87 1279.71 86.153 1279.22 82.771H1285.55C1285.96 84.557 1286.89 85.982 1288.34 87.046C1289.78 88.072 1291.59 88.585 1293.75 88.585C1296.45 88.585 1298.47 87.768 1299.8 86.134C1301.16 84.5 1301.85 82.334 1301.85 79.636C1301.85 76.9 1301.16 74.81 1299.8 73.366C1298.43 71.884 1296.41 71.143 1293.75 71.143C1291.89 71.143 1290.31 71.618 1289.02 72.568C1287.77 73.48 1286.86 74.734 1286.29 76.33H1280.13V52.333H1305.21V58.033ZM1312.89 85.336V80.434L1332.04 52.96H1339.9V79.693H1345.21V85.336H1339.9V94H1333.52V85.336H1312.89ZM1333.81 59.572L1320.35 79.693H1333.81V59.572ZM1353.04 85.165C1356.69 82.011 1359.56 79.427 1361.65 77.413C1363.78 75.361 1365.54 73.233 1366.95 71.029C1368.35 68.825 1369.06 66.621 1369.06 64.417C1369.06 62.137 1368.51 60.351 1367.4 59.059C1366.34 57.767 1364.65 57.121 1362.33 57.121C1360.09 57.121 1358.34 57.843 1357.09 59.287C1355.87 60.693 1355.23 62.593 1355.15 64.987H1348.88C1348.99 60.655 1350.29 57.349 1352.76 55.069C1355.26 52.751 1358.44 51.592 1362.27 51.592C1366.42 51.592 1369.65 52.732 1371.96 55.012C1374.32 57.292 1375.5 60.332 1375.5 64.132C1375.5 66.868 1374.8 69.509 1373.39 72.055C1372.02 74.563 1370.37 76.824 1368.43 78.838C1366.53 80.814 1364.1 83.113 1361.13 85.735L1358.57 88.015H1376.64V93.43H1348.94V88.699L1353.04 85.165ZM1423.79 54.385V94H1417.29V66.868L1405.2 94H1400.7L1388.56 66.868V94H1382.06V54.385H1389.07L1402.98 85.45L1416.83 54.385H1423.79ZM1461.8 76.159H1450.28V87.958H1444.24V76.159H1432.73V70.687H1444.24V58.888H1450.28V70.687H1461.8V76.159Z" fill="#11F2BE"/>
<path d="M995.768 177.76V180.736H989.848V200H986.2V180.736H980.248V177.76H995.768ZM1015.43 182.368V200H1011.78V197.92C1011.21 198.645 1010.45 199.221 1009.51 199.648C1008.59 200.053 1007.61 200.256 1006.57 200.256C1005.18 200.256 1003.93 199.968 1002.82 199.392C1001.73 198.816 1000.87 197.963 1000.23 196.832C999.612 195.701 999.303 194.336 999.303 192.736V182.368H1002.92V192.192C1002.92 193.771 1003.31 194.987 1004.1 195.84C1004.89 196.672 1005.97 197.088 1007.33 197.088C1008.7 197.088 1009.78 196.672 1010.57 195.84C1011.38 194.987 1011.78 193.771 1011.78 192.192V182.368H1015.43ZM1023.89 184.928C1024.43 184.032 1025.13 183.339 1026 182.848C1026.9 182.336 1027.96 182.08 1029.17 182.08V185.856H1028.24C1026.81 185.856 1025.73 186.219 1024.98 186.944C1024.25 187.669 1023.89 188.928 1023.89 190.72V200H1020.24V182.368H1023.89V184.928ZM1041.42 182.08C1042.81 182.08 1044.05 182.368 1045.13 182.944C1046.24 183.52 1047.11 184.373 1047.73 185.504C1048.34 186.635 1048.65 188 1048.65 189.6V200H1045.04V190.144C1045.04 188.565 1044.64 187.36 1043.85 186.528C1043.06 185.675 1041.99 185.248 1040.62 185.248C1039.26 185.248 1038.17 185.675 1037.36 186.528C1036.57 187.36 1036.17 188.565 1036.17 190.144V200H1032.53V182.368H1036.17V184.384C1036.77 183.659 1037.53 183.093 1038.45 182.688C1039.38 182.283 1040.38 182.08 1041.42 182.08ZM1055.16 180.032C1054.5 180.032 1053.95 179.808 1053.5 179.36C1053.05 178.912 1052.83 178.357 1052.83 177.696C1052.83 177.035 1053.05 176.48 1053.5 176.032C1053.95 175.584 1054.5 175.36 1055.16 175.36C1055.8 175.36 1056.35 175.584 1056.79 176.032C1057.24 176.48 1057.47 177.035 1057.47 177.696C1057.47 178.357 1057.24 178.912 1056.79 179.36C1056.35 179.808 1055.8 180.032 1055.16 180.032ZM1056.95 182.368V200H1053.31V182.368H1056.95ZM1070.64 182.08C1072.03 182.08 1073.26 182.368 1074.35 182.944C1075.46 183.52 1076.33 184.373 1076.94 185.504C1077.56 186.635 1077.87 188 1077.87 189.6V200H1074.26V190.144C1074.26 188.565 1073.86 187.36 1073.07 186.528C1072.28 185.675 1071.21 185.248 1069.84 185.248C1068.47 185.248 1067.39 185.675 1066.58 186.528C1065.79 187.36 1065.39 188.565 1065.39 190.144V200H1061.74V182.368H1065.39V184.384C1065.99 183.659 1066.75 183.093 1067.66 182.688C1068.6 182.283 1069.59 182.08 1070.64 182.08ZM1089.63 182.08C1090.99 182.08 1092.2 182.357 1093.25 182.912C1094.31 183.445 1095.14 184.117 1095.74 184.928V182.368H1099.42V200.288C1099.42 201.909 1099.08 203.349 1098.4 204.608C1097.71 205.888 1096.72 206.891 1095.42 207.616C1094.14 208.341 1092.61 208.704 1090.81 208.704C1088.42 208.704 1086.44 208.139 1084.86 207.008C1083.28 205.899 1082.39 204.384 1082.17 202.464H1085.79C1086.07 203.381 1086.65 204.117 1087.55 204.672C1088.47 205.248 1089.55 205.536 1090.81 205.536C1092.29 205.536 1093.47 205.088 1094.37 204.192C1095.28 203.296 1095.74 201.995 1095.74 200.288V197.344C1095.12 198.176 1094.28 198.88 1093.21 199.456C1092.17 200.011 1090.97 200.288 1089.63 200.288C1088.09 200.288 1086.69 199.904 1085.41 199.136C1084.15 198.347 1083.14 197.259 1082.4 195.872C1081.67 194.464 1081.31 192.875 1081.31 191.104C1081.31 189.333 1081.67 187.765 1082.4 186.4C1083.14 185.035 1084.15 183.979 1085.41 183.232C1086.69 182.464 1088.09 182.08 1089.63 182.08ZM1095.74 191.168C1095.74 189.952 1095.49 188.896 1094.97 188C1094.48 187.104 1093.83 186.421 1093.02 185.952C1092.21 185.483 1091.34 185.248 1090.4 185.248C1089.46 185.248 1088.58 185.483 1087.77 185.952C1086.96 186.4 1086.3 187.072 1085.79 187.968C1085.3 188.843 1085.05 189.888 1085.05 191.104C1085.05 192.32 1085.3 193.387 1085.79 194.304C1086.3 195.221 1086.96 195.925 1087.77 196.416C1088.61 196.885 1089.48 197.12 1090.4 197.12C1091.34 197.12 1092.21 196.885 1093.02 196.416C1093.83 195.947 1094.48 195.264 1094.97 194.368C1095.49 193.451 1095.74 192.384 1095.74 191.168ZM1116.17 177.76V200H1112.53V177.76H1116.17ZM1119.75 191.104C1119.75 189.333 1120.11 187.765 1120.83 186.4C1121.58 185.035 1122.58 183.979 1123.84 183.232C1125.12 182.464 1126.54 182.08 1128.1 182.08C1129.25 182.08 1130.38 182.336 1131.49 182.848C1132.62 183.339 1133.52 184 1134.18 184.832V176.32H1137.86V200H1134.18V197.344C1133.58 198.197 1132.75 198.901 1131.68 199.456C1130.64 200.011 1129.43 200.288 1128.07 200.288C1126.53 200.288 1125.12 199.904 1123.84 199.136C1122.58 198.347 1121.58 197.259 1120.83 195.872C1120.11 194.464 1119.75 192.875 1119.75 191.104ZM1134.18 191.168C1134.18 189.952 1133.92 188.896 1133.41 188C1132.92 187.104 1132.27 186.421 1131.46 185.952C1130.65 185.483 1129.77 185.248 1128.83 185.248C1127.9 185.248 1127.02 185.483 1126.21 185.952C1125.4 186.4 1124.74 187.072 1124.23 187.968C1123.74 188.843 1123.49 189.888 1123.49 191.104C1123.49 192.32 1123.74 193.387 1124.23 194.304C1124.74 195.221 1125.4 195.925 1126.21 196.416C1127.04 196.885 1127.92 197.12 1128.83 197.12C1129.77 197.12 1130.65 196.885 1131.46 196.416C1132.27 195.947 1132.92 195.264 1133.41 194.368C1133.92 193.451 1134.18 192.384 1134.18 191.168ZM1158.81 190.752C1158.81 191.413 1158.77 192.011 1158.68 192.544H1145.21C1145.32 193.952 1145.84 195.083 1146.78 195.936C1147.72 196.789 1148.87 197.216 1150.23 197.216C1152.2 197.216 1153.58 196.395 1154.39 194.752H1158.33C1157.8 196.373 1156.83 197.707 1155.42 198.752C1154.03 199.776 1152.3 200.288 1150.23 200.288C1148.55 200.288 1147.03 199.915 1145.69 199.168C1144.37 198.4 1143.32 197.333 1142.55 195.968C1141.81 194.581 1141.43 192.981 1141.43 191.168C1141.43 189.355 1141.8 187.765 1142.52 186.4C1143.27 185.013 1144.3 183.947 1145.63 183.2C1146.97 182.453 1148.51 182.08 1150.23 182.08C1151.9 182.08 1153.38 182.443 1154.68 183.168C1155.98 183.893 1157 184.917 1157.72 186.24C1158.45 187.541 1158.81 189.045 1158.81 190.752ZM1155 189.6C1154.98 188.256 1154.5 187.179 1153.56 186.368C1152.62 185.557 1151.46 185.152 1150.07 185.152C1148.82 185.152 1147.74 185.557 1146.84 186.368C1145.95 187.157 1145.41 188.235 1145.24 189.6H1155ZM1161.18 191.104C1161.18 189.333 1161.55 187.765 1162.27 186.4C1163.02 185.035 1164.02 183.979 1165.28 183.232C1166.56 182.464 1167.97 182.08 1169.5 182.08C1170.89 182.08 1172.1 182.357 1173.12 182.912C1174.17 183.445 1175 184.117 1175.62 184.928V182.368H1179.3V200H1175.62V197.376C1175 198.208 1174.15 198.901 1173.09 199.456C1172.02 200.011 1170.81 200.288 1169.44 200.288C1167.93 200.288 1166.54 199.904 1165.28 199.136C1164.02 198.347 1163.02 197.259 1162.27 195.872C1161.55 194.464 1161.18 192.875 1161.18 191.104ZM1175.62 191.168C1175.62 189.952 1175.36 188.896 1174.85 188C1174.36 187.104 1173.71 186.421 1172.9 185.952C1172.09 185.483 1171.21 185.248 1170.27 185.248C1169.33 185.248 1168.46 185.483 1167.65 185.952C1166.84 186.4 1166.18 187.072 1165.66 187.968C1165.17 188.843 1164.93 189.888 1164.93 191.104C1164.93 192.32 1165.17 193.387 1165.66 194.304C1166.18 195.221 1166.84 195.925 1167.65 196.416C1168.48 196.885 1169.35 197.12 1170.27 197.12C1171.21 197.12 1172.09 196.885 1172.9 196.416C1173.71 195.947 1174.36 195.264 1174.85 194.368C1175.36 193.451 1175.62 192.384 1175.62 191.168ZM1190.49 200.288C1189.1 200.288 1187.85 200.043 1186.74 199.552C1185.66 199.04 1184.79 198.357 1184.15 197.504C1183.51 196.629 1183.17 195.659 1183.13 194.592H1186.9C1186.97 195.339 1187.32 195.968 1187.96 196.48C1188.62 196.971 1189.44 197.216 1190.42 197.216C1191.45 197.216 1192.24 197.024 1192.79 196.64C1193.37 196.235 1193.66 195.723 1193.66 195.104C1193.66 194.443 1193.34 193.952 1192.7 193.632C1192.08 193.312 1191.08 192.96 1189.72 192.576C1188.4 192.213 1187.32 191.861 1186.49 191.52C1185.66 191.179 1184.93 190.656 1184.31 189.952C1183.71 189.248 1183.42 188.32 1183.42 187.168C1183.42 186.229 1183.69 185.376 1184.25 184.608C1184.8 183.819 1185.59 183.2 1186.62 182.752C1187.66 182.304 1188.86 182.08 1190.2 182.08C1192.2 182.08 1193.82 182.592 1195.03 183.616C1196.27 184.619 1196.93 185.995 1197.02 187.744H1193.37C1193.3 186.955 1192.98 186.325 1192.41 185.856C1191.83 185.387 1191.05 185.152 1190.07 185.152C1189.11 185.152 1188.38 185.333 1187.86 185.696C1187.35 186.059 1187.1 186.539 1187.1 187.136C1187.1 187.605 1187.27 188 1187.61 188.32C1187.95 188.64 1188.36 188.896 1188.86 189.088C1189.35 189.259 1190.07 189.483 1191.03 189.76C1192.31 190.101 1193.36 190.453 1194.17 190.816C1195 191.157 1195.71 191.669 1196.31 192.352C1196.91 193.035 1197.22 193.941 1197.24 195.072C1197.24 196.075 1196.96 196.971 1196.41 197.76C1195.85 198.549 1195.06 199.168 1194.04 199.616C1193.04 200.064 1191.85 200.288 1190.49 200.288ZM1211.35 180.032C1210.69 180.032 1210.13 179.808 1209.69 179.36C1209.24 178.912 1209.01 178.357 1209.01 177.696C1209.01 177.035 1209.24 176.48 1209.69 176.032C1210.13 175.584 1210.69 175.36 1211.35 175.36C1211.99 175.36 1212.53 175.584 1212.98 176.032C1213.43 176.48 1213.65 177.035 1213.65 177.696C1213.65 178.357 1213.43 178.912 1212.98 179.36C1212.53 179.808 1211.99 180.032 1211.35 180.032ZM1213.14 182.368V200H1209.49V182.368H1213.14ZM1226.83 182.08C1228.21 182.08 1229.45 182.368 1230.54 182.944C1231.65 183.52 1232.51 184.373 1233.13 185.504C1233.75 186.635 1234.06 188 1234.06 189.6V200H1230.44V190.144C1230.44 188.565 1230.05 187.36 1229.26 186.528C1228.47 185.675 1227.39 185.248 1226.03 185.248C1224.66 185.248 1223.57 185.675 1222.76 186.528C1221.97 187.36 1221.58 188.565 1221.58 190.144V200H1217.93V182.368H1221.58V184.384C1222.18 183.659 1222.93 183.093 1223.85 182.688C1224.79 182.283 1225.78 182.08 1226.83 182.08ZM1242.97 185.344V195.104C1242.97 195.765 1243.12 196.245 1243.42 196.544C1243.74 196.821 1244.27 196.96 1245.02 196.96H1247.26V200H1244.38C1242.73 200 1241.48 199.616 1240.6 198.848C1239.73 198.08 1239.29 196.832 1239.29 195.104V185.344H1237.21V182.368H1239.29V177.984H1242.97V182.368H1247.26V185.344H1242.97ZM1258.27 200.288C1256.6 200.288 1255.1 199.915 1253.75 199.168C1252.41 198.4 1251.35 197.333 1250.59 195.968C1249.82 194.581 1249.43 192.981 1249.43 191.168C1249.43 189.376 1249.83 187.787 1250.62 186.4C1251.41 185.013 1252.49 183.947 1253.85 183.2C1255.22 182.453 1256.74 182.08 1258.43 182.08C1260.11 182.08 1261.64 182.453 1263 183.2C1264.37 183.947 1265.45 185.013 1266.23 186.4C1267.02 187.787 1267.42 189.376 1267.42 191.168C1267.42 192.96 1267.01 194.549 1266.2 195.936C1265.39 197.323 1264.28 198.4 1262.87 199.168C1261.49 199.915 1259.95 200.288 1258.27 200.288ZM1258.27 197.12C1259.21 197.12 1260.08 196.896 1260.89 196.448C1261.72 196 1262.39 195.328 1262.91 194.432C1263.42 193.536 1263.67 192.448 1263.67 191.168C1263.67 189.888 1263.43 188.811 1262.94 187.936C1262.45 187.04 1261.8 186.368 1260.99 185.92C1260.18 185.472 1259.3 185.248 1258.36 185.248C1257.42 185.248 1256.55 185.472 1255.74 185.92C1254.95 186.368 1254.32 187.04 1253.85 187.936C1253.38 188.811 1253.15 189.888 1253.15 191.168C1253.15 193.067 1253.63 194.539 1254.59 195.584C1255.57 196.608 1256.79 197.12 1258.27 197.12ZM1282.99 177.76V200H1279.34V177.76H1282.99ZM1309.12 182.08C1310.51 182.08 1311.74 182.368 1312.83 182.944C1313.94 183.52 1314.8 184.373 1315.42 185.504C1316.06 186.635 1316.38 188 1316.38 189.6V200H1312.77V190.144C1312.77 188.565 1312.37 187.36 1311.58 186.528C1310.79 185.675 1309.72 185.248 1308.35 185.248C1306.99 185.248 1305.9 185.675 1305.09 186.528C1304.3 187.36 1303.9 188.565 1303.9 190.144V200H1300.29V190.144C1300.29 188.565 1299.89 187.36 1299.1 186.528C1298.31 185.675 1297.24 185.248 1295.87 185.248C1294.51 185.248 1293.42 185.675 1292.61 186.528C1291.82 187.36 1291.42 188.565 1291.42 190.144V200H1287.78V182.368H1291.42V184.384C1292.02 183.659 1292.78 183.093 1293.7 182.688C1294.61 182.283 1295.59 182.08 1296.64 182.08C1298.05 182.08 1299.31 182.379 1300.42 182.976C1301.52 183.573 1302.38 184.437 1302.98 185.568C1303.51 184.501 1304.34 183.659 1305.47 183.04C1306.6 182.4 1307.82 182.08 1309.12 182.08ZM1324.67 184.96C1325.29 184.149 1326.13 183.467 1327.2 182.912C1328.27 182.357 1329.47 182.08 1330.82 182.08C1332.35 182.08 1333.75 182.464 1335.01 183.232C1336.29 183.979 1337.29 185.035 1338.02 186.4C1338.74 187.765 1339.11 189.333 1339.11 191.104C1339.11 192.875 1338.74 194.464 1338.02 195.872C1337.29 197.259 1336.29 198.347 1335.01 199.136C1333.75 199.904 1332.35 200.288 1330.82 200.288C1329.47 200.288 1328.28 200.021 1327.23 199.488C1326.19 198.933 1325.33 198.251 1324.67 197.44V208.384H1321.03V182.368H1324.67V184.96ZM1335.39 191.104C1335.39 189.888 1335.14 188.843 1334.62 187.968C1334.13 187.072 1333.47 186.4 1332.64 185.952C1331.83 185.483 1330.96 185.248 1330.02 185.248C1329.1 185.248 1328.23 185.483 1327.39 185.952C1326.58 186.421 1325.92 187.104 1325.41 188C1324.92 188.896 1324.67 189.952 1324.67 191.168C1324.67 192.384 1324.92 193.451 1325.41 194.368C1325.92 195.264 1326.58 195.947 1327.39 196.416C1328.23 196.885 1329.1 197.12 1330.02 197.12C1330.96 197.12 1331.83 196.885 1332.64 196.416C1333.47 195.925 1334.13 195.221 1334.62 194.304C1335.14 193.387 1335.39 192.32 1335.39 191.104ZM1341.5 191.104C1341.5 189.333 1341.86 187.765 1342.58 186.4C1343.33 185.035 1344.33 183.979 1345.59 183.232C1346.87 182.464 1348.28 182.08 1349.82 182.08C1351.2 182.08 1352.41 182.357 1353.43 182.912C1354.48 183.445 1355.31 184.117 1355.93 184.928V182.368H1359.61V200H1355.93V197.376C1355.31 198.208 1354.47 198.901 1353.4 199.456C1352.33 200.011 1351.12 200.288 1349.75 200.288C1348.24 200.288 1346.85 199.904 1345.59 199.136C1344.33 198.347 1343.33 197.259 1342.58 195.872C1341.86 194.464 1341.5 192.875 1341.5 191.104ZM1355.93 191.168C1355.93 189.952 1355.67 188.896 1355.16 188C1354.67 187.104 1354.02 186.421 1353.21 185.952C1352.4 185.483 1351.52 185.248 1350.58 185.248C1349.65 185.248 1348.77 185.483 1347.96 185.952C1347.15 186.4 1346.49 187.072 1345.98 187.968C1345.49 188.843 1345.24 189.888 1345.24 191.104C1345.24 192.32 1345.49 193.387 1345.98 194.304C1346.49 195.221 1347.15 195.925 1347.96 196.416C1348.79 196.885 1349.67 197.12 1350.58 197.12C1351.52 197.12 1352.4 196.885 1353.21 196.416C1354.02 195.947 1354.67 195.264 1355.16 194.368C1355.67 193.451 1355.93 192.384 1355.93 191.168ZM1363.18 191.168C1363.18 189.355 1363.55 187.765 1364.27 186.4C1365.02 185.013 1366.04 183.947 1367.34 183.2C1368.65 182.453 1370.14 182.08 1371.82 182.08C1373.96 182.08 1375.72 182.592 1377.1 183.616C1378.51 184.619 1379.46 186.059 1379.95 187.936H1376.02C1375.7 187.061 1375.18 186.379 1374.48 185.888C1373.78 185.397 1372.89 185.152 1371.82 185.152C1370.33 185.152 1369.14 185.685 1368.24 186.752C1367.37 187.797 1366.93 189.269 1366.93 191.168C1366.93 193.067 1367.37 194.549 1368.24 195.616C1369.14 196.683 1370.33 197.216 1371.82 197.216C1373.94 197.216 1375.33 196.288 1376.02 194.432H1379.95C1379.44 196.224 1378.48 197.653 1377.07 198.72C1375.66 199.765 1373.91 200.288 1371.82 200.288C1370.14 200.288 1368.65 199.915 1367.34 199.168C1366.04 198.4 1365.02 197.333 1364.27 195.968C1363.55 194.581 1363.18 192.981 1363.18 191.168ZM1387.84 185.344V195.104C1387.84 195.765 1387.99 196.245 1388.29 196.544C1388.61 196.821 1389.14 196.96 1389.89 196.96H1392.13V200H1389.25C1387.61 200 1386.35 199.616 1385.48 198.848C1384.6 198.08 1384.16 196.832 1384.16 195.104V185.344H1382.08V182.368H1384.16V177.984H1387.84V182.368H1392.13V185.344H1387.84ZM1402.89 185.344H1399.62V200H1395.94V185.344H1393.86V182.368H1395.94V181.12C1395.94 179.093 1396.48 177.621 1397.54 176.704C1398.63 175.765 1400.33 175.296 1402.63 175.296V178.336C1401.52 178.336 1400.74 178.549 1400.29 178.976C1399.85 179.381 1399.62 180.096 1399.62 181.12V182.368H1402.89V185.344ZM1422.09 182.368V200H1418.44V197.92C1417.86 198.645 1417.11 199.221 1416.17 199.648C1415.25 200.053 1414.27 200.256 1413.22 200.256C1411.84 200.256 1410.59 199.968 1409.48 199.392C1408.39 198.816 1407.53 197.963 1406.89 196.832C1406.27 195.701 1405.96 194.336 1405.96 192.736V182.368H1409.57V192.192C1409.57 193.771 1409.97 194.987 1410.76 195.84C1411.55 196.672 1412.63 197.088 1413.99 197.088C1415.36 197.088 1416.43 196.672 1417.22 195.84C1418.03 194.987 1418.44 193.771 1418.44 192.192V182.368H1422.09ZM1430.55 176.32V200H1426.9V176.32H1430.55Z" fill="white"/>
<path d="M996.64 255.49L992.932 268H990.61L987.982 258.532L985.192 268L982.888 268.018L979.342 255.49H981.52L984.112 265.678L986.92 255.49H989.224L991.834 265.624L994.444 255.49H996.64ZM999.376 256.768C999.004 256.768 998.692 256.642 998.44 256.39C998.188 256.138 998.062 255.826 998.062 255.454C998.062 255.082 998.188 254.77 998.44 254.518C998.692 254.266 999.004 254.14 999.376 254.14C999.736 254.14 1000.04 254.266 1000.29 254.518C1000.55 254.77 1000.67 255.082 1000.67 255.454C1000.67 255.826 1000.55 256.138 1000.29 256.39C1000.04 256.642 999.736 256.768 999.376 256.768ZM1000.38 258.082V268H998.332V258.082H1000.38ZM1005.47 259.756V265.246C1005.47 265.618 1005.56 265.888 1005.72 266.056C1005.9 266.212 1006.2 266.29 1006.62 266.29H1007.88V268H1006.26C1005.34 268 1004.63 267.784 1004.14 267.352C1003.65 266.92 1003.4 266.218 1003.4 265.246V259.756H1002.23V258.082H1003.4V255.616H1005.47V258.082H1007.88V259.756H1005.47ZM1014.91 257.92C1015.66 257.92 1016.33 258.082 1016.92 258.406C1017.52 258.73 1017.99 259.21 1018.33 259.846C1018.67 260.482 1018.85 261.25 1018.85 262.15V268H1016.81V262.456C1016.81 261.568 1016.59 260.89 1016.15 260.422C1015.7 259.942 1015.1 259.702 1014.33 259.702C1013.56 259.702 1012.95 259.942 1012.49 260.422C1012.05 260.89 1011.83 261.568 1011.83 262.456V268H1009.78V254.68H1011.83V259.234C1012.18 258.814 1012.61 258.49 1013.14 258.262C1013.68 258.034 1014.27 257.92 1014.91 257.92ZM1028.19 259.558C1028.54 259.078 1029.02 258.688 1029.62 258.388C1030.23 258.076 1030.91 257.92 1031.65 257.92C1032.53 257.92 1033.32 258.13 1034.03 258.55C1034.73 258.97 1035.29 259.57 1035.7 260.35C1036.11 261.118 1036.31 262 1036.31 262.996C1036.31 263.992 1036.11 264.886 1035.7 265.678C1035.29 266.458 1034.73 267.07 1034.01 267.514C1033.3 267.946 1032.51 268.162 1031.65 268.162C1030.88 268.162 1030.2 268.012 1029.6 267.712C1029.01 267.412 1028.54 267.028 1028.19 266.56V268H1026.14V254.68H1028.19V259.558ZM1034.22 262.996C1034.22 262.312 1034.08 261.724 1033.79 261.232C1033.52 260.728 1033.14 260.35 1032.68 260.098C1032.22 259.834 1031.73 259.702 1031.2 259.702C1030.68 259.702 1030.19 259.834 1029.72 260.098C1029.27 260.362 1028.9 260.746 1028.61 261.25C1028.33 261.754 1028.19 262.348 1028.19 263.032C1028.19 263.716 1028.33 264.316 1028.61 264.832C1028.9 265.336 1029.27 265.72 1029.72 265.984C1030.19 266.248 1030.68 266.38 1031.2 266.38C1031.73 266.38 1032.22 266.248 1032.68 265.984C1033.14 265.708 1033.52 265.312 1033.79 264.796C1034.08 264.28 1034.22 263.68 1034.22 262.996ZM1040.39 254.68V268H1038.34V254.68H1040.39ZM1052.18 262.798C1052.18 263.17 1052.15 263.506 1052.1 263.806H1044.53C1044.59 264.598 1044.88 265.234 1045.41 265.714C1045.94 266.194 1046.58 266.434 1047.35 266.434C1048.46 266.434 1049.24 265.972 1049.69 265.048H1051.91C1051.61 265.96 1051.06 266.71 1050.27 267.298C1049.49 267.874 1048.52 268.162 1047.35 268.162C1046.4 268.162 1045.55 267.952 1044.8 267.532C1044.05 267.1 1043.46 266.5 1043.03 265.732C1042.61 264.952 1042.4 264.052 1042.4 263.032C1042.4 262.012 1042.61 261.118 1043.01 260.35C1043.43 259.57 1044.02 258.97 1044.76 258.55C1045.52 258.13 1046.38 257.92 1047.35 257.92C1048.29 257.92 1049.12 258.124 1049.85 258.532C1050.59 258.94 1051.16 259.516 1051.56 260.26C1051.97 260.992 1052.18 261.838 1052.18 262.798ZM1050.03 262.15C1050.02 261.394 1049.75 260.788 1049.22 260.332C1048.7 259.876 1048.04 259.648 1047.26 259.648C1046.55 259.648 1045.95 259.876 1045.44 260.332C1044.94 260.776 1044.64 261.382 1044.54 262.15H1050.03ZM1059.2 257.92C1059.98 257.92 1060.68 258.082 1061.29 258.406C1061.91 258.73 1062.4 259.21 1062.75 259.846C1063.09 260.482 1063.27 261.25 1063.27 262.15V268H1061.23V262.456C1061.23 261.568 1061.01 260.89 1060.57 260.422C1060.12 259.942 1059.52 259.702 1058.75 259.702C1057.98 259.702 1057.37 259.942 1056.91 260.422C1056.47 260.89 1056.25 261.568 1056.25 262.456V268H1054.2V258.082H1056.25V259.216C1056.58 258.808 1057.01 258.49 1057.53 258.262C1058.05 258.034 1058.61 257.92 1059.2 257.92ZM1065.2 262.996C1065.2 262 1065.41 261.118 1065.81 260.35C1066.23 259.582 1066.8 258.988 1067.51 258.568C1068.23 258.136 1069.02 257.92 1069.9 257.92C1070.55 257.92 1071.18 258.064 1071.81 258.352C1072.44 258.628 1072.95 259 1073.32 259.468V254.68H1075.39V268H1073.32V266.506C1072.98 266.986 1072.52 267.382 1071.92 267.694C1071.33 268.006 1070.65 268.162 1069.88 268.162C1069.02 268.162 1068.23 267.946 1067.51 267.514C1066.8 267.07 1066.23 266.458 1065.81 265.678C1065.41 264.886 1065.2 263.992 1065.2 262.996ZM1073.32 263.032C1073.32 262.348 1073.18 261.754 1072.89 261.25C1072.61 260.746 1072.25 260.362 1071.79 260.098C1071.33 259.834 1070.84 259.702 1070.31 259.702C1069.79 259.702 1069.29 259.834 1068.84 260.098C1068.38 260.35 1068.01 260.728 1067.72 261.232C1067.45 261.724 1067.31 262.312 1067.31 262.996C1067.31 263.68 1067.45 264.28 1067.72 264.796C1068.01 265.312 1068.38 265.708 1068.84 265.984C1069.31 266.248 1069.8 266.38 1070.31 266.38C1070.84 266.38 1071.33 266.248 1071.79 265.984C1072.25 265.72 1072.61 265.336 1072.89 264.832C1073.18 264.316 1073.32 263.716 1073.32 263.032ZM1087.06 268.162C1086.13 268.162 1085.28 267.952 1084.52 267.532C1083.77 267.1 1083.17 266.5 1082.74 265.732C1082.31 264.952 1082.09 264.052 1082.09 263.032C1082.09 262.024 1082.32 261.13 1082.76 260.35C1083.2 259.57 1083.81 258.97 1084.58 258.55C1085.35 258.13 1086.2 257.92 1087.15 257.92C1088.1 257.92 1088.96 258.13 1089.73 258.55C1090.49 258.97 1091.1 259.57 1091.54 260.35C1091.99 261.13 1092.21 262.024 1092.21 263.032C1092.21 264.04 1091.98 264.934 1091.53 265.714C1091.07 266.494 1090.45 267.1 1089.65 267.532C1088.87 267.952 1088.01 268.162 1087.06 268.162ZM1087.06 266.38C1087.59 266.38 1088.08 266.254 1088.54 266.002C1089.01 265.75 1089.38 265.372 1089.67 264.868C1089.96 264.364 1090.1 263.752 1090.1 263.032C1090.1 262.312 1089.97 261.706 1089.69 261.214C1089.41 260.71 1089.05 260.332 1088.59 260.08C1088.14 259.828 1087.64 259.702 1087.12 259.702C1086.59 259.702 1086.1 259.828 1085.64 260.08C1085.2 260.332 1084.84 260.71 1084.58 261.214C1084.31 261.706 1084.18 262.312 1084.18 263.032C1084.18 264.1 1084.45 264.928 1084.99 265.516C1085.54 266.092 1086.23 266.38 1087.06 266.38ZM1098.4 259.756H1096.56V268H1094.49V259.756H1093.32V258.082H1094.49V257.38C1094.49 256.24 1094.79 255.412 1095.39 254.896C1096 254.368 1096.96 254.104 1098.25 254.104V255.814C1097.63 255.814 1097.19 255.934 1096.94 256.174C1096.69 256.402 1096.56 256.804 1096.56 257.38V258.082H1098.4V259.756ZM1104.21 263.032C1104.21 262.012 1104.41 261.118 1104.82 260.35C1105.24 259.57 1105.82 258.97 1106.55 258.55C1107.28 258.13 1108.12 257.92 1109.07 257.92C1110.27 257.92 1111.26 258.208 1112.04 258.784C1112.83 259.348 1113.36 260.158 1113.64 261.214H1111.43C1111.25 260.722 1110.96 260.338 1110.56 260.062C1110.17 259.786 1109.67 259.648 1109.07 259.648C1108.23 259.648 1107.56 259.948 1107.05 260.548C1106.56 261.136 1106.31 261.964 1106.31 263.032C1106.31 264.1 1106.56 264.934 1107.05 265.534C1107.56 266.134 1108.23 266.434 1109.07 266.434C1110.26 266.434 1111.04 265.912 1111.43 264.868H1113.64C1113.35 265.876 1112.81 266.68 1112.02 267.28C1111.23 267.868 1110.24 268.162 1109.07 268.162C1108.12 268.162 1107.28 267.952 1106.55 267.532C1105.82 267.1 1105.24 266.5 1104.82 265.732C1104.41 264.952 1104.21 264.052 1104.21 263.032ZM1117.74 259.522C1118.04 259.018 1118.43 258.628 1118.92 258.352C1119.43 258.064 1120.02 257.92 1120.71 257.92V260.044H1120.18C1119.38 260.044 1118.77 260.248 1118.35 260.656C1117.94 261.064 1117.74 261.772 1117.74 262.78V268H1115.68V258.082H1117.74V259.522ZM1131.68 262.798C1131.68 263.17 1131.66 263.506 1131.61 263.806H1124.03C1124.09 264.598 1124.39 265.234 1124.91 265.714C1125.44 266.194 1126.09 266.434 1126.86 266.434C1127.96 266.434 1128.74 265.972 1129.2 265.048H1131.41C1131.11 265.96 1130.57 266.71 1129.77 267.298C1128.99 267.874 1128.02 268.162 1126.86 268.162C1125.91 268.162 1125.06 267.952 1124.3 267.532C1123.56 267.1 1122.97 266.5 1122.54 265.732C1122.12 264.952 1121.91 264.052 1121.91 263.032C1121.91 262.012 1122.11 261.118 1122.52 260.35C1122.94 259.57 1123.52 258.97 1124.27 258.55C1125.02 258.13 1125.89 257.92 1126.86 257.92C1127.79 257.92 1128.63 258.124 1129.36 258.532C1130.09 258.94 1130.66 259.516 1131.07 260.26C1131.48 260.992 1131.68 261.838 1131.68 262.798ZM1129.54 262.15C1129.53 261.394 1129.26 260.788 1128.73 260.332C1128.2 259.876 1127.55 259.648 1126.77 259.648C1126.06 259.648 1125.45 259.876 1124.95 260.332C1124.45 260.776 1124.15 261.382 1124.05 262.15H1129.54ZM1133.02 262.996C1133.02 262 1133.22 261.118 1133.63 260.35C1134.05 259.582 1134.61 258.988 1135.32 258.568C1136.04 258.136 1136.83 257.92 1137.7 257.92C1138.48 257.92 1139.16 258.076 1139.73 258.388C1140.32 258.688 1140.79 259.066 1141.14 259.522V258.082H1143.21V268H1141.14V266.524C1140.79 266.992 1140.31 267.382 1139.71 267.694C1139.11 268.006 1138.43 268.162 1137.66 268.162C1136.81 268.162 1136.03 267.946 1135.32 267.514C1134.61 267.07 1134.05 266.458 1133.63 265.678C1133.22 264.886 1133.02 263.992 1133.02 262.996ZM1141.14 263.032C1141.14 262.348 1140.99 261.754 1140.7 261.25C1140.43 260.746 1140.06 260.362 1139.61 260.098C1139.15 259.834 1138.66 259.702 1138.13 259.702C1137.6 259.702 1137.11 259.834 1136.65 260.098C1136.2 260.35 1135.83 260.728 1135.54 261.232C1135.26 261.724 1135.12 262.312 1135.12 262.996C1135.12 263.68 1135.26 264.28 1135.54 264.796C1135.83 265.312 1136.2 265.708 1136.65 265.984C1137.12 266.248 1137.61 266.38 1138.13 266.38C1138.66 266.38 1139.15 266.248 1139.61 265.984C1140.06 265.72 1140.43 265.336 1140.7 264.832C1140.99 264.316 1141.14 263.716 1141.14 263.032ZM1148.29 259.756V265.246C1148.29 265.618 1148.38 265.888 1148.55 266.056C1148.73 266.212 1149.03 266.29 1149.45 266.29H1150.71V268H1149.09C1148.16 268 1147.45 267.784 1146.96 267.352C1146.47 266.92 1146.22 266.218 1146.22 265.246V259.756H1145.05V258.082H1146.22V255.616H1148.29V258.082H1150.71V259.756H1148.29ZM1153.64 256.768C1153.27 256.768 1152.96 256.642 1152.71 256.39C1152.45 256.138 1152.33 255.826 1152.33 255.454C1152.33 255.082 1152.45 254.77 1152.71 254.518C1152.96 254.266 1153.27 254.14 1153.64 254.14C1154 254.14 1154.31 254.266 1154.56 254.518C1154.81 254.77 1154.94 255.082 1154.94 255.454C1154.94 255.826 1154.81 256.138 1154.56 256.39C1154.31 256.642 1154 256.768 1153.64 256.768ZM1154.65 258.082V268H1152.6V258.082H1154.65ZM1161.18 266.164L1163.99 258.082H1166.16L1162.38 268H1159.94L1156.17 258.082H1158.37L1161.18 266.164ZM1168.76 256.768C1168.39 256.768 1168.08 256.642 1167.82 256.39C1167.57 256.138 1167.45 255.826 1167.45 255.454C1167.45 255.082 1167.57 254.77 1167.82 254.518C1168.08 254.266 1168.39 254.14 1168.76 254.14C1169.12 254.14 1169.43 254.266 1169.68 254.518C1169.93 254.77 1170.06 255.082 1170.06 255.454C1170.06 255.826 1169.93 256.138 1169.68 256.39C1169.43 256.642 1169.12 256.768 1168.76 256.768ZM1169.77 258.082V268H1167.72V258.082H1169.77ZM1174.86 259.756V265.246C1174.86 265.618 1174.94 265.888 1175.11 266.056C1175.29 266.212 1175.59 266.29 1176.01 266.29H1177.27V268H1175.65C1174.72 268 1174.02 267.784 1173.52 267.352C1173.03 266.92 1172.79 266.218 1172.79 265.246V259.756H1171.62V258.082H1172.79V255.616H1174.86V258.082H1177.27V259.756H1174.86ZM1188.09 258.082L1182 272.662H1179.88L1181.89 267.838L1177.99 258.082H1180.27L1183.06 265.642L1185.96 258.082H1188.09ZM1191.89 265.534L1189.71 270.502H1188.38L1189.65 265.534H1191.89ZM1197.67 262.996C1197.67 262 1197.87 261.118 1198.28 260.35C1198.7 259.582 1199.27 258.988 1199.97 258.568C1200.69 258.136 1201.49 257.92 1202.37 257.92C1203.02 257.92 1203.65 258.064 1204.28 258.352C1204.91 258.628 1205.42 259 1205.79 259.468V254.68H1207.86V268H1205.79V266.506C1205.45 266.986 1204.98 267.382 1204.38 267.694C1203.8 268.006 1203.12 268.162 1202.35 268.162C1201.49 268.162 1200.69 267.946 1199.97 267.514C1199.27 267.07 1198.7 266.458 1198.28 265.678C1197.87 264.886 1197.67 263.992 1197.67 262.996ZM1205.79 263.032C1205.79 262.348 1205.64 261.754 1205.36 261.25C1205.08 260.746 1204.71 260.362 1204.26 260.098C1203.8 259.834 1203.31 259.702 1202.78 259.702C1202.25 259.702 1201.76 259.834 1201.31 260.098C1200.85 260.35 1200.48 260.728 1200.19 261.232C1199.91 261.724 1199.78 262.312 1199.78 262.996C1199.78 263.68 1199.91 264.28 1200.19 264.796C1200.48 265.312 1200.85 265.708 1201.31 265.984C1201.77 266.248 1202.27 266.38 1202.78 266.38C1203.31 266.38 1203.8 266.248 1204.26 265.984C1204.71 265.72 1205.08 265.336 1205.36 264.832C1205.64 264.316 1205.79 263.716 1205.79 263.032ZM1209.87 262.996C1209.87 262 1210.07 261.118 1210.48 260.35C1210.9 259.582 1211.47 258.988 1212.17 258.568C1212.89 258.136 1213.69 257.92 1214.55 257.92C1215.33 257.92 1216.01 258.076 1216.58 258.388C1217.17 258.688 1217.64 259.066 1217.99 259.522V258.082H1220.06V268H1217.99V266.524C1217.64 266.992 1217.17 267.382 1216.57 267.694C1215.97 268.006 1215.28 268.162 1214.51 268.162C1213.66 268.162 1212.88 267.946 1212.17 267.514C1211.47 267.07 1210.9 266.458 1210.48 265.678C1210.07 264.886 1209.87 263.992 1209.87 262.996ZM1217.99 263.032C1217.99 262.348 1217.84 261.754 1217.56 261.25C1217.28 260.746 1216.91 260.362 1216.46 260.098C1216 259.834 1215.51 259.702 1214.98 259.702C1214.45 259.702 1213.96 259.834 1213.51 260.098C1213.05 260.35 1212.68 260.728 1212.39 261.232C1212.11 261.724 1211.98 262.312 1211.98 262.996C1211.98 263.68 1212.11 264.28 1212.39 264.796C1212.68 265.312 1213.05 265.708 1213.51 265.984C1213.97 266.248 1214.47 266.38 1214.98 266.38C1215.51 266.38 1216 266.248 1216.46 265.984C1216.91 265.72 1217.28 265.336 1217.56 264.832C1217.84 264.316 1217.99 263.716 1217.99 263.032ZM1225.15 259.756V265.246C1225.15 265.618 1225.23 265.888 1225.4 266.056C1225.58 266.212 1225.88 266.29 1226.3 266.29H1227.56V268H1225.94C1225.01 268 1224.31 267.784 1223.81 267.352C1223.32 266.92 1223.08 266.218 1223.08 265.246V259.756H1221.91V258.082H1223.08V255.616H1225.15V258.082H1227.56V259.756H1225.15ZM1228.77 262.996C1228.77 262 1228.97 261.118 1229.38 260.35C1229.8 259.582 1230.36 258.988 1231.07 258.568C1231.79 258.136 1232.58 257.92 1233.45 257.92C1234.23 257.92 1234.9 258.076 1235.48 258.388C1236.07 258.688 1236.54 259.066 1236.88 259.522V258.082H1238.95V268H1236.88V266.524C1236.54 266.992 1236.06 267.382 1235.46 267.694C1234.86 268.006 1234.18 268.162 1233.41 268.162C1232.56 268.162 1231.78 267.946 1231.07 267.514C1230.36 267.07 1229.8 266.458 1229.38 265.678C1228.97 264.886 1228.77 263.992 1228.77 262.996ZM1236.88 263.032C1236.88 262.348 1236.74 261.754 1236.45 261.25C1236.18 260.746 1235.81 260.362 1235.35 260.098C1234.9 259.834 1234.41 259.702 1233.88 259.702C1233.35 259.702 1232.86 259.834 1232.4 260.098C1231.95 260.35 1231.57 260.728 1231.29 261.232C1231.01 261.724 1230.87 262.312 1230.87 262.996C1230.87 263.68 1231.01 264.28 1231.29 264.796C1231.57 265.312 1231.95 265.708 1232.4 265.984C1232.87 266.248 1233.36 266.38 1233.88 266.38C1234.41 266.38 1234.9 266.248 1235.35 265.984C1235.81 265.72 1236.18 265.336 1236.45 264.832C1236.74 264.316 1236.88 263.716 1236.88 263.032ZM1249.26 260.62V262.348H1241.86V260.62H1249.26ZM1251.49 262.996C1251.49 262 1251.7 261.118 1252.11 260.35C1252.53 259.582 1253.09 258.988 1253.8 258.568C1254.52 258.136 1255.32 257.92 1256.19 257.92C1256.84 257.92 1257.48 258.064 1258.1 258.352C1258.74 258.628 1259.24 259 1259.61 259.468V254.68H1261.68V268H1259.61V266.506C1259.28 266.986 1258.81 267.382 1258.21 267.694C1257.62 268.006 1256.94 268.162 1256.17 268.162C1255.31 268.162 1254.52 267.946 1253.8 267.514C1253.09 267.07 1252.53 266.458 1252.11 265.678C1251.7 264.886 1251.49 263.992 1251.49 262.996ZM1259.61 263.032C1259.61 262.348 1259.47 261.754 1259.18 261.25C1258.9 260.746 1258.54 260.362 1258.08 260.098C1257.63 259.834 1257.13 259.702 1256.61 259.702C1256.08 259.702 1255.59 259.834 1255.13 260.098C1254.67 260.35 1254.3 260.728 1254.01 261.232C1253.74 261.724 1253.6 262.312 1253.6 262.996C1253.6 263.68 1253.74 264.28 1254.01 264.796C1254.3 265.312 1254.67 265.708 1255.13 265.984C1255.6 266.248 1256.09 266.38 1256.61 266.38C1257.13 266.38 1257.63 266.248 1258.08 265.984C1258.54 265.72 1258.9 265.336 1259.18 264.832C1259.47 264.316 1259.61 263.716 1259.61 263.032ZM1266.43 259.522C1266.73 259.018 1267.13 258.628 1267.62 258.352C1268.12 258.064 1268.72 257.92 1269.4 257.92V260.044H1268.88C1268.07 260.044 1267.46 260.248 1267.04 260.656C1266.63 261.064 1266.43 261.772 1266.43 262.78V268H1264.38V258.082H1266.43V259.522ZM1272.33 256.768C1271.96 256.768 1271.65 256.642 1271.39 256.39C1271.14 256.138 1271.02 255.826 1271.02 255.454C1271.02 255.082 1271.14 254.77 1271.39 254.518C1271.65 254.266 1271.96 254.14 1272.33 254.14C1272.69 254.14 1273 254.266 1273.25 254.518C1273.5 254.77 1273.63 255.082 1273.63 255.454C1273.63 255.826 1273.5 256.138 1273.25 256.39C1273 256.642 1272.69 256.768 1272.33 256.768ZM1273.34 258.082V268H1271.29V258.082H1273.34ZM1279.87 266.164L1282.67 258.082H1284.85L1281.07 268H1278.62L1274.86 258.082H1277.06L1279.87 266.164ZM1295.49 262.798C1295.49 263.17 1295.47 263.506 1295.42 263.806H1287.84C1287.9 264.598 1288.2 265.234 1288.72 265.714C1289.25 266.194 1289.9 266.434 1290.67 266.434C1291.77 266.434 1292.55 265.972 1293.01 265.048H1295.22C1294.92 265.96 1294.38 266.71 1293.58 267.298C1292.8 267.874 1291.83 268.162 1290.67 268.162C1289.72 268.162 1288.87 267.952 1288.11 267.532C1287.37 267.1 1286.78 266.5 1286.35 265.732C1285.93 264.952 1285.72 264.052 1285.72 263.032C1285.72 262.012 1285.92 261.118 1286.33 260.35C1286.75 259.57 1287.33 258.97 1288.08 258.55C1288.83 258.13 1289.7 257.92 1290.67 257.92C1291.6 257.92 1292.44 258.124 1293.17 258.532C1293.9 258.94 1294.47 259.516 1294.88 260.26C1295.29 260.992 1295.49 261.838 1295.49 262.798ZM1293.35 262.15C1293.34 261.394 1293.07 260.788 1292.54 260.332C1292.01 259.876 1291.36 259.648 1290.58 259.648C1289.87 259.648 1289.26 259.876 1288.76 260.332C1288.26 260.776 1287.96 261.382 1287.86 262.15H1293.35ZM1302.52 257.92C1303.3 257.92 1303.99 258.082 1304.6 258.406C1305.23 258.73 1305.71 259.21 1306.06 259.846C1306.41 260.482 1306.58 261.25 1306.58 262.15V268H1304.55V262.456C1304.55 261.568 1304.33 260.89 1303.88 260.422C1303.44 259.942 1302.83 259.702 1302.07 259.702C1301.3 259.702 1300.69 259.942 1300.23 260.422C1299.79 260.89 1299.56 261.568 1299.56 262.456V268H1297.51V258.082H1299.56V259.216C1299.9 258.808 1300.33 258.49 1300.84 258.262C1301.37 258.034 1301.93 257.92 1302.52 257.92ZM1314.92 256.768C1314.55 256.768 1314.24 256.642 1313.99 256.39C1313.73 256.138 1313.61 255.826 1313.61 255.454C1313.61 255.082 1313.73 254.77 1313.99 254.518C1314.24 254.266 1314.55 254.14 1314.92 254.14C1315.28 254.14 1315.59 254.266 1315.84 254.518C1316.09 254.77 1316.22 255.082 1316.22 255.454C1316.22 255.826 1316.09 256.138 1315.84 256.39C1315.59 256.642 1315.28 256.768 1314.92 256.768ZM1315.93 258.082V268H1313.88V258.082H1315.93ZM1323.63 257.92C1324.41 257.92 1325.1 258.082 1325.72 258.406C1326.34 258.73 1326.83 259.21 1327.17 259.846C1327.52 260.482 1327.7 261.25 1327.7 262.15V268H1325.66V262.456C1325.66 261.568 1325.44 260.89 1325 260.422C1324.55 259.942 1323.95 259.702 1323.18 259.702C1322.41 259.702 1321.8 259.942 1321.34 260.422C1320.9 260.89 1320.68 261.568 1320.68 262.456V268H1318.62V258.082H1320.68V259.216C1321.01 258.808 1321.44 258.49 1321.95 258.262C1322.48 258.034 1323.04 257.92 1323.63 257.92ZM1333.91 268.162C1333.13 268.162 1332.43 268.024 1331.81 267.748C1331.19 267.46 1330.71 267.076 1330.35 266.596C1329.99 266.104 1329.8 265.558 1329.77 264.958H1331.9C1331.93 265.378 1332.13 265.732 1332.49 266.02C1332.86 266.296 1333.32 266.434 1333.88 266.434C1334.45 266.434 1334.9 266.326 1335.21 266.11C1335.53 265.882 1335.69 265.594 1335.69 265.246C1335.69 264.874 1335.51 264.598 1335.15 264.418C1334.81 264.238 1334.25 264.04 1333.48 263.824C1332.74 263.62 1332.13 263.422 1331.66 263.23C1331.19 263.038 1330.79 262.744 1330.44 262.348C1330.1 261.952 1329.93 261.43 1329.93 260.782C1329.93 260.254 1330.09 259.774 1330.4 259.342C1330.71 258.898 1331.16 258.55 1331.73 258.298C1332.32 258.046 1332.99 257.92 1333.75 257.92C1334.88 257.92 1335.78 258.208 1336.47 258.784C1337.16 259.348 1337.54 260.122 1337.58 261.106H1335.53C1335.5 260.662 1335.32 260.308 1334.99 260.044C1334.67 259.78 1334.23 259.648 1333.68 259.648C1333.14 259.648 1332.72 259.75 1332.44 259.954C1332.15 260.158 1332 260.428 1332 260.764C1332 261.028 1332.1 261.25 1332.29 261.43C1332.48 261.61 1332.72 261.754 1332.99 261.862C1333.27 261.958 1333.68 262.084 1334.22 262.24C1334.94 262.432 1335.53 262.63 1335.98 262.834C1336.45 263.026 1336.85 263.314 1337.19 263.698C1337.52 264.082 1337.7 264.592 1337.71 265.228C1337.71 265.792 1337.55 266.296 1337.24 266.74C1336.93 267.184 1336.49 267.532 1335.91 267.784C1335.35 268.036 1334.68 268.162 1333.91 268.162ZM1340.97 256.768C1340.6 256.768 1340.29 256.642 1340.04 256.39C1339.78 256.138 1339.66 255.826 1339.66 255.454C1339.66 255.082 1339.78 254.77 1340.04 254.518C1340.29 254.266 1340.6 254.14 1340.97 254.14C1341.33 254.14 1341.64 254.266 1341.89 254.518C1342.14 254.77 1342.27 255.082 1342.27 255.454C1342.27 255.826 1342.14 256.138 1341.89 256.39C1341.64 256.642 1341.33 256.768 1340.97 256.768ZM1341.98 258.082V268H1339.93V258.082H1341.98ZM1348.67 257.92C1349.44 257.92 1350.12 258.076 1350.7 258.388C1351.3 258.688 1351.77 259.066 1352.11 259.522V258.082H1354.18V268.162C1354.18 269.074 1353.99 269.884 1353.6 270.592C1353.22 271.312 1352.66 271.876 1351.93 272.284C1351.21 272.692 1350.34 272.896 1349.34 272.896C1347.99 272.896 1346.88 272.578 1345.99 271.942C1345.1 271.318 1344.6 270.466 1344.48 269.386H1346.51C1346.67 269.902 1347 270.316 1347.5 270.628C1348.02 270.952 1348.63 271.114 1349.34 271.114C1350.16 271.114 1350.83 270.862 1351.33 270.358C1351.85 269.854 1352.11 269.122 1352.11 268.162V266.506C1351.76 266.974 1351.29 267.37 1350.69 267.694C1350.1 268.006 1349.43 268.162 1348.67 268.162C1347.81 268.162 1347.01 267.946 1346.29 267.514C1345.59 267.07 1345.02 266.458 1344.6 265.678C1344.19 264.886 1343.99 263.992 1343.99 262.996C1343.99 262 1344.19 261.118 1344.6 260.35C1345.02 259.582 1345.59 258.988 1346.29 258.568C1347.01 258.136 1347.81 257.92 1348.67 257.92ZM1352.11 263.032C1352.11 262.348 1351.96 261.754 1351.68 261.25C1351.4 260.746 1351.03 260.362 1350.58 260.098C1350.12 259.834 1349.63 259.702 1349.1 259.702C1348.57 259.702 1348.08 259.834 1347.63 260.098C1347.17 260.35 1346.8 260.728 1346.51 261.232C1346.23 261.724 1346.1 262.312 1346.1 262.996C1346.1 263.68 1346.23 264.28 1346.51 264.796C1346.8 265.312 1347.17 265.708 1347.63 265.984C1348.09 266.248 1348.59 266.38 1349.1 266.38C1349.63 266.38 1350.12 266.248 1350.58 265.984C1351.03 265.72 1351.4 265.336 1351.68 264.832C1351.96 264.316 1352.11 263.716 1352.11 263.032ZM1362 257.92C1362.76 257.92 1363.43 258.082 1364.02 258.406C1364.62 258.73 1365.09 259.21 1365.42 259.846C1365.77 260.482 1365.95 261.25 1365.95 262.15V268H1363.91V262.456C1363.91 261.568 1363.69 260.89 1363.25 260.422C1362.8 259.942 1362.2 259.702 1361.43 259.702C1360.66 259.702 1360.05 259.942 1359.59 260.422C1359.15 260.89 1358.93 261.568 1358.93 262.456V268H1356.87V254.68H1358.93V259.234C1359.27 258.814 1359.71 258.49 1360.24 258.262C1360.78 258.034 1361.37 257.92 1362 257.92ZM1370.96 259.756V265.246C1370.96 265.618 1371.04 265.888 1371.21 266.056C1371.39 266.212 1371.69 266.29 1372.11 266.29H1373.37V268H1371.75C1370.82 268 1370.12 267.784 1369.62 267.352C1369.13 266.92 1368.89 266.218 1368.89 265.246V259.756H1367.72V258.082H1368.89V255.616H1370.96V258.082H1373.37V259.756H1370.96ZM1378.86 268.162C1378.08 268.162 1377.38 268.024 1376.75 267.748C1376.14 267.46 1375.66 267.076 1375.3 266.596C1374.94 266.104 1374.74 265.558 1374.72 264.958H1376.84C1376.88 265.378 1377.08 265.732 1377.44 266.02C1377.81 266.296 1378.27 266.434 1378.82 266.434C1379.4 266.434 1379.84 266.326 1380.16 266.11C1380.48 265.882 1380.64 265.594 1380.64 265.246C1380.64 264.874 1380.46 264.598 1380.1 264.418C1379.75 264.238 1379.2 264.04 1378.43 263.824C1377.68 263.62 1377.08 263.422 1376.61 263.23C1376.14 263.038 1375.73 262.744 1375.39 262.348C1375.05 261.952 1374.88 261.43 1374.88 260.782C1374.88 260.254 1375.04 259.774 1375.35 259.342C1375.66 258.898 1376.11 258.55 1376.68 258.298C1377.27 258.046 1377.94 257.92 1378.7 257.92C1379.83 257.92 1380.73 258.208 1381.42 258.784C1382.11 259.348 1382.48 260.122 1382.53 261.106H1380.48C1380.44 260.662 1380.26 260.308 1379.94 260.044C1379.62 259.78 1379.18 259.648 1378.63 259.648C1378.09 259.648 1377.67 259.75 1377.38 259.954C1377.1 260.158 1376.95 260.428 1376.95 260.764C1376.95 261.028 1377.05 261.25 1377.24 261.43C1377.43 261.61 1377.67 261.754 1377.94 261.862C1378.22 261.958 1378.63 262.084 1379.17 262.24C1379.89 262.432 1380.47 262.63 1380.93 262.834C1381.4 263.026 1381.8 263.314 1382.14 263.698C1382.47 264.082 1382.65 264.592 1382.66 265.228C1382.66 265.792 1382.5 266.296 1382.19 266.74C1381.88 267.184 1381.43 267.532 1380.86 267.784C1380.29 268.036 1379.63 268.162 1378.86 268.162ZM1387.13 265.534L1384.95 270.502H1383.62L1384.89 265.534H1387.13ZM1403.26 268L1401.71 266.452C1401.11 267.052 1400.46 267.502 1399.75 267.802C1399.04 268.09 1398.25 268.234 1397.37 268.234C1396.49 268.234 1395.7 268.078 1395.02 267.766C1394.33 267.454 1393.8 267.01 1393.43 266.434C1393.06 265.846 1392.87 265.168 1392.87 264.4C1392.87 263.536 1393.12 262.768 1393.61 262.096C1394.1 261.412 1394.84 260.872 1395.81 260.476C1395.46 260.056 1395.21 259.666 1395.07 259.306C1394.93 258.934 1394.85 258.526 1394.85 258.082C1394.85 257.53 1394.99 257.038 1395.27 256.606C1395.56 256.174 1395.96 255.832 1396.49 255.58C1397.02 255.328 1397.63 255.202 1398.33 255.202C1399.04 255.202 1399.64 255.34 1400.13 255.616C1400.63 255.88 1401 256.246 1401.24 256.714C1401.5 257.182 1401.6 257.704 1401.55 258.28H1399.5C1399.51 257.836 1399.4 257.494 1399.17 257.254C1398.95 257.002 1398.63 256.876 1398.24 256.876C1397.84 256.876 1397.52 256.996 1397.27 257.236C1397.03 257.464 1396.91 257.746 1396.91 258.082C1396.91 258.406 1397 258.73 1397.18 259.054C1397.37 259.366 1397.7 259.774 1398.17 260.278L1401.48 263.572L1402.76 261.466H1404.97L1403.35 264.238L1402.9 264.976L1405.94 268H1403.26ZM1397.37 266.488C1398.5 266.488 1399.5 266.026 1400.36 265.102L1397.05 261.772C1395.63 262.336 1394.93 263.188 1394.93 264.328C1394.93 264.94 1395.15 265.456 1395.61 265.876C1396.07 266.284 1396.65 266.488 1397.37 266.488ZM1413.01 256.768C1412.64 256.768 1412.32 256.642 1412.07 256.39C1411.82 256.138 1411.69 255.826 1411.69 255.454C1411.69 255.082 1411.82 254.77 1412.07 254.518C1412.32 254.266 1412.64 254.14 1413.01 254.14C1413.37 254.14 1413.67 254.266 1413.93 254.518C1414.18 254.77 1414.3 255.082 1414.3 255.454C1414.3 255.826 1414.18 256.138 1413.93 256.39C1413.67 256.642 1413.37 256.768 1413.01 256.768ZM1414.02 258.082V268H1411.96V258.082H1414.02ZM1421.71 257.92C1422.49 257.92 1423.19 258.082 1423.8 258.406C1424.43 258.73 1424.91 259.21 1425.26 259.846C1425.61 260.482 1425.78 261.25 1425.78 262.15V268H1423.75V262.456C1423.75 261.568 1423.53 260.89 1423.08 260.422C1422.64 259.942 1422.03 259.702 1421.26 259.702C1420.5 259.702 1419.88 259.942 1419.43 260.422C1418.98 260.89 1418.76 261.568 1418.76 262.456V268H1416.71V258.082H1418.76V259.216C1419.1 258.808 1419.52 258.49 1420.04 258.262C1420.57 258.034 1421.13 257.92 1421.71 257.92ZM1427.71 262.996C1427.71 262 1427.92 261.118 1428.33 260.35C1428.75 259.582 1429.31 258.988 1430.02 258.568C1430.74 258.136 1431.54 257.92 1432.41 257.92C1433.06 257.92 1433.7 258.064 1434.32 258.352C1434.96 258.628 1435.46 259 1435.83 259.468V254.68H1437.9V268H1435.83V266.506C1435.5 266.986 1435.03 267.382 1434.43 267.694C1433.84 268.006 1433.16 268.162 1432.39 268.162C1431.53 268.162 1430.74 267.946 1430.02 267.514C1429.31 267.07 1428.75 266.458 1428.33 265.678C1427.92 264.886 1427.71 263.992 1427.71 262.996ZM1435.83 263.032C1435.83 262.348 1435.69 261.754 1435.4 261.25C1435.12 260.746 1434.76 260.362 1434.3 260.098C1433.85 259.834 1433.35 259.702 1432.83 259.702C1432.3 259.702 1431.81 259.834 1431.35 260.098C1430.89 260.35 1430.52 260.728 1430.23 261.232C1429.96 261.724 1429.82 262.312 1429.82 262.996C1429.82 263.68 1429.96 264.28 1430.23 264.796C1430.52 265.312 1430.89 265.708 1431.35 265.984C1431.82 266.248 1432.31 266.38 1432.83 266.38C1433.35 266.38 1433.85 266.248 1434.3 265.984C1434.76 265.72 1435.12 265.336 1435.4 264.832C1435.69 264.316 1435.83 263.716 1435.83 263.032ZM1449.58 258.082V268H1447.53V266.83C1447.2 267.238 1446.78 267.562 1446.25 267.802C1445.73 268.03 1445.18 268.144 1444.59 268.144C1443.81 268.144 1443.11 267.982 1442.49 267.658C1441.88 267.334 1441.39 266.854 1441.03 266.218C1440.68 265.582 1440.51 264.814 1440.51 263.914V258.082H1442.54V263.608C1442.54 264.496 1442.76 265.18 1443.21 265.66C1443.65 266.128 1444.26 266.362 1445.03 266.362C1445.79 266.362 1446.4 266.128 1446.84 265.66C1447.3 265.18 1447.53 264.496 1447.53 263.608V258.082H1449.58ZM1455.89 268.162C1455.11 268.162 1454.41 268.024 1453.78 267.748C1453.17 267.46 1452.68 267.076 1452.32 266.596C1451.96 266.104 1451.77 265.558 1451.75 264.958H1453.87C1453.91 265.378 1454.11 265.732 1454.47 266.02C1454.84 266.296 1455.3 266.434 1455.85 266.434C1456.43 266.434 1456.87 266.326 1457.18 266.11C1457.51 265.882 1457.67 265.594 1457.67 265.246C1457.67 264.874 1457.49 264.598 1457.13 264.418C1456.78 264.238 1456.22 264.04 1455.46 263.824C1454.71 263.62 1454.11 263.422 1453.64 263.23C1453.17 263.038 1452.76 262.744 1452.41 262.348C1452.08 261.952 1451.91 261.43 1451.91 260.782C1451.91 260.254 1452.07 259.774 1452.38 259.342C1452.69 258.898 1453.13 258.55 1453.71 258.298C1454.3 258.046 1454.97 257.92 1455.73 257.92C1456.85 257.92 1457.76 258.208 1458.44 258.784C1459.14 259.348 1459.51 260.122 1459.56 261.106H1457.51C1457.47 260.662 1457.29 260.308 1456.97 260.044C1456.64 259.78 1456.21 259.648 1455.65 259.648C1455.11 259.648 1454.7 259.75 1454.41 259.954C1454.12 260.158 1453.98 260.428 1453.98 260.764C1453.98 261.028 1454.08 261.25 1454.27 261.43C1454.46 261.61 1454.69 261.754 1454.97 261.862C1455.25 261.958 1455.65 262.084 1456.19 262.24C1456.91 262.432 1457.5 262.63 1457.96 262.834C1458.43 263.026 1458.83 263.314 1459.16 263.698C1459.5 264.082 1459.67 264.592 1459.69 265.228C1459.69 265.792 1459.53 266.296 1459.22 266.74C1458.91 267.184 1458.46 267.532 1457.89 267.784C1457.32 268.036 1456.66 268.162 1455.89 268.162ZM1464.3 259.756V265.246C1464.3 265.618 1464.38 265.888 1464.55 266.056C1464.73 266.212 1465.03 266.29 1465.45 266.29H1466.71V268H1465.09C1464.16 268 1463.46 267.784 1462.96 267.352C1462.47 266.92 1462.23 266.218 1462.23 265.246V259.756H1461.06V258.082H1462.23V255.616H1464.3V258.082H1466.71V259.756H1464.3ZM1470.65 259.522C1470.95 259.018 1471.35 258.628 1471.84 258.352C1472.34 258.064 1472.94 257.92 1473.62 257.92V260.044H1473.1C1472.3 260.044 1471.68 260.248 1471.26 260.656C1470.86 261.064 1470.65 261.772 1470.65 262.78V268H1468.6V258.082H1470.65V259.522ZM1484.44 258.082L1478.35 272.662H1476.23L1478.24 267.838L1474.34 258.082H1476.62L1479.41 265.642L1482.31 258.082H1484.44ZM989.44 296.798C989.44 297.17 989.416 297.506 989.368 297.806H981.79C981.85 298.598 982.144 299.234 982.672 299.714C983.2 300.194 983.848 300.434 984.616 300.434C985.72 300.434 986.5 299.972 986.956 299.048H989.17C988.87 299.96 988.324 300.71 987.532 301.298C986.752 301.874 985.78 302.162 984.616 302.162C983.668 302.162 982.816 301.952 982.06 301.532C981.316 301.1 980.728 300.5 980.296 299.732C979.876 298.952 979.666 298.052 979.666 297.032C979.666 296.012 979.87 295.118 980.278 294.35C980.698 293.57 981.28 292.97 982.024 292.55C982.78 292.13 983.644 291.92 984.616 291.92C985.552 291.92 986.386 292.124 987.118 292.532C987.85 292.94 988.42 293.516 988.828 294.26C989.236 294.992 989.44 295.838 989.44 296.798ZM987.298 296.15C987.286 295.394 987.016 294.788 986.488 294.332C985.96 293.876 985.306 293.648 984.526 293.648C983.818 293.648 983.212 293.876 982.708 294.332C982.204 294.776 981.904 295.382 981.808 296.15H987.298ZM995.707 296.978L998.911 302H996.589L994.447 298.634L992.431 302H990.289L993.493 297.122L990.289 292.082H992.611L994.753 295.448L996.769 292.082H998.911L995.707 296.978ZM1002.49 293.54C1002.84 293.084 1003.32 292.7 1003.92 292.388C1004.52 292.076 1005.19 291.92 1005.95 291.92C1006.81 291.92 1007.6 292.136 1008.31 292.568C1009.03 292.988 1009.59 293.582 1010 294.35C1010.41 295.118 1010.61 296 1010.61 296.996C1010.61 297.992 1010.41 298.886 1010 299.678C1009.59 300.458 1009.03 301.07 1008.31 301.514C1007.6 301.946 1006.81 302.162 1005.95 302.162C1005.19 302.162 1004.52 302.012 1003.93 301.712C1003.35 301.4 1002.87 301.016 1002.49 300.56V306.716H1000.44V292.082H1002.49V293.54ZM1008.52 296.996C1008.52 296.312 1008.38 295.724 1008.09 295.232C1007.82 294.728 1007.44 294.35 1006.98 294.098C1006.52 293.834 1006.03 293.702 1005.5 293.702C1004.98 293.702 1004.49 293.834 1004.02 294.098C1003.57 294.362 1003.2 294.746 1002.91 295.25C1002.63 295.754 1002.49 296.348 1002.49 297.032C1002.49 297.716 1002.63 298.316 1002.91 298.832C1003.2 299.336 1003.57 299.72 1004.02 299.984C1004.49 300.248 1004.98 300.38 1005.5 300.38C1006.03 300.38 1006.52 300.248 1006.98 299.984C1007.44 299.708 1007.82 299.312 1008.09 298.796C1008.38 298.28 1008.52 297.68 1008.52 296.996ZM1021.73 296.798C1021.73 297.17 1021.71 297.506 1021.66 297.806H1014.08C1014.14 298.598 1014.44 299.234 1014.96 299.714C1015.49 300.194 1016.14 300.434 1016.91 300.434C1018.01 300.434 1018.79 299.972 1019.25 299.048H1021.46C1021.16 299.96 1020.62 300.71 1019.82 301.298C1019.04 301.874 1018.07 302.162 1016.91 302.162C1015.96 302.162 1015.11 301.952 1014.35 301.532C1013.61 301.1 1013.02 300.5 1012.59 299.732C1012.17 298.952 1011.96 298.052 1011.96 297.032C1011.96 296.012 1012.16 295.118 1012.57 294.35C1012.99 293.57 1013.57 292.97 1014.32 292.55C1015.07 292.13 1015.94 291.92 1016.91 291.92C1017.84 291.92 1018.68 292.124 1019.41 292.532C1020.14 292.94 1020.71 293.516 1021.12 294.26C1021.53 294.992 1021.73 295.838 1021.73 296.798ZM1019.59 296.15C1019.58 295.394 1019.31 294.788 1018.78 294.332C1018.25 293.876 1017.6 293.648 1016.82 293.648C1016.11 293.648 1015.5 293.876 1015 294.332C1014.5 294.776 1014.2 295.382 1014.1 296.15H1019.59ZM1025.8 293.522C1026.1 293.018 1026.5 292.628 1026.99 292.352C1027.49 292.064 1028.09 291.92 1028.77 291.92V294.044H1028.25C1027.45 294.044 1026.83 294.248 1026.41 294.656C1026.01 295.064 1025.8 295.772 1025.8 296.78V302H1023.75V292.082H1025.8V293.522ZM1033.05 293.756V299.246C1033.05 299.618 1033.14 299.888 1033.3 300.056C1033.48 300.212 1033.78 300.29 1034.2 300.29H1035.46V302H1033.84C1032.92 302 1032.21 301.784 1031.72 301.352C1031.23 300.92 1030.98 300.218 1030.98 299.246V293.756H1029.81V292.082H1030.98V289.616H1033.05V292.082H1035.46V293.756H1033.05ZM1038.4 290.768C1038.03 290.768 1037.72 290.642 1037.46 290.39C1037.21 290.138 1037.09 289.826 1037.09 289.454C1037.09 289.082 1037.21 288.77 1037.46 288.518C1037.72 288.266 1038.03 288.14 1038.4 288.14C1038.76 288.14 1039.07 288.266 1039.32 288.518C1039.57 288.77 1039.7 289.082 1039.7 289.454C1039.7 289.826 1039.57 290.138 1039.32 290.39C1039.07 290.642 1038.76 290.768 1038.4 290.768ZM1039.41 292.082V302H1037.36V292.082H1039.41ZM1045.7 302.162C1044.92 302.162 1044.22 302.024 1043.6 301.748C1042.98 301.46 1042.5 301.076 1042.14 300.596C1041.78 300.104 1041.59 299.558 1041.56 298.958H1043.69C1043.72 299.378 1043.92 299.732 1044.28 300.02C1044.65 300.296 1045.11 300.434 1045.67 300.434C1046.24 300.434 1046.69 300.326 1047 300.11C1047.32 299.882 1047.48 299.594 1047.48 299.246C1047.48 298.874 1047.3 298.598 1046.94 298.418C1046.6 298.238 1046.04 298.04 1045.27 297.824C1044.53 297.62 1043.92 297.422 1043.45 297.23C1042.98 297.038 1042.58 296.744 1042.23 296.348C1041.89 295.952 1041.72 295.43 1041.72 294.782C1041.72 294.254 1041.88 293.774 1042.19 293.342C1042.5 292.898 1042.95 292.55 1043.52 292.298C1044.11 292.046 1044.78 291.92 1045.54 291.92C1046.67 291.92 1047.57 292.208 1048.26 292.784C1048.95 293.348 1049.33 294.122 1049.37 295.106H1047.32C1047.29 294.662 1047.11 294.308 1046.78 294.044C1046.46 293.78 1046.02 293.648 1045.47 293.648C1044.93 293.648 1044.51 293.75 1044.23 293.954C1043.94 294.158 1043.79 294.428 1043.79 294.764C1043.79 295.028 1043.89 295.25 1044.08 295.43C1044.27 295.61 1044.51 295.754 1044.78 295.862C1045.06 295.958 1045.47 296.084 1046.01 296.24C1046.73 296.432 1047.32 296.63 1047.77 296.834C1048.24 297.026 1048.64 297.314 1048.98 297.698C1049.31 298.082 1049.49 298.592 1049.5 299.228C1049.5 299.792 1049.34 300.296 1049.03 300.74C1048.72 301.184 1048.28 301.532 1047.7 301.784C1047.14 302.036 1046.47 302.162 1045.7 302.162ZM1060.81 296.798C1060.81 297.17 1060.78 297.506 1060.74 297.806H1053.16C1053.22 298.598 1053.51 299.234 1054.04 299.714C1054.57 300.194 1055.22 300.434 1055.98 300.434C1057.09 300.434 1057.87 299.972 1058.32 299.048H1060.54C1060.24 299.96 1059.69 300.71 1058.9 301.298C1058.12 301.874 1057.15 302.162 1055.98 302.162C1055.04 302.162 1054.18 301.952 1053.43 301.532C1052.68 301.1 1052.1 300.5 1051.66 299.732C1051.24 298.952 1051.03 298.052 1051.03 297.032C1051.03 296.012 1051.24 295.118 1051.65 294.35C1052.07 293.57 1052.65 292.97 1053.39 292.55C1054.15 292.13 1055.01 291.92 1055.98 291.92C1056.92 291.92 1057.75 292.124 1058.49 292.532C1059.22 292.94 1059.79 293.516 1060.2 294.26C1060.6 294.992 1060.81 295.838 1060.81 296.798ZM1058.67 296.15C1058.65 295.394 1058.38 294.788 1057.86 294.332C1057.33 293.876 1056.67 293.648 1055.89 293.648C1055.19 293.648 1054.58 293.876 1054.08 294.332C1053.57 294.776 1053.27 295.382 1053.18 296.15H1058.67ZM1065.08 299.534L1062.9 304.502H1061.57L1062.84 299.534H1065.08ZM1084.87 292.082L1081.79 302H1079.63L1077.63 294.674L1075.63 302H1073.47L1070.38 292.082H1072.46L1074.53 300.056L1076.64 292.082H1078.78L1080.8 300.02L1082.85 292.082H1084.87ZM1095.49 296.798C1095.49 297.17 1095.46 297.506 1095.42 297.806H1087.84C1087.9 298.598 1088.19 299.234 1088.72 299.714C1089.25 300.194 1089.9 300.434 1090.66 300.434C1091.77 300.434 1092.55 299.972 1093 299.048H1095.22C1094.92 299.96 1094.37 300.71 1093.58 301.298C1092.8 301.874 1091.83 302.162 1090.66 302.162C1089.72 302.162 1088.86 301.952 1088.11 301.532C1087.36 301.1 1086.78 300.5 1086.34 299.732C1085.92 298.952 1085.71 298.052 1085.71 297.032C1085.71 296.012 1085.92 295.118 1086.33 294.35C1086.75 293.57 1087.33 292.97 1088.07 292.55C1088.83 292.13 1089.69 291.92 1090.66 291.92C1091.6 291.92 1092.43 292.124 1093.17 292.532C1093.9 292.94 1094.47 293.516 1094.88 294.26C1095.28 294.992 1095.49 295.838 1095.49 296.798ZM1093.35 296.15C1093.33 295.394 1093.06 294.788 1092.54 294.332C1092.01 293.876 1091.35 293.648 1090.57 293.648C1089.87 293.648 1089.26 293.876 1088.76 294.332C1088.25 294.776 1087.95 295.382 1087.86 296.15H1093.35ZM1101.5 296.996C1101.5 296 1101.7 295.118 1102.11 294.35C1102.53 293.582 1103.1 292.988 1103.8 292.568C1104.52 292.136 1105.32 291.92 1106.2 291.92C1106.85 291.92 1107.48 292.064 1108.11 292.352C1108.74 292.628 1109.25 293 1109.62 293.468V288.68H1111.69V302H1109.62V300.506C1109.28 300.986 1108.81 301.382 1108.21 301.694C1107.63 302.006 1106.95 302.162 1106.18 302.162C1105.32 302.162 1104.52 301.946 1103.8 301.514C1103.1 301.07 1102.53 300.458 1102.11 299.678C1101.7 298.886 1101.5 297.992 1101.5 296.996ZM1109.62 297.032C1109.62 296.348 1109.47 295.754 1109.19 295.25C1108.91 294.746 1108.54 294.362 1108.09 294.098C1107.63 293.834 1107.14 293.702 1106.61 293.702C1106.08 293.702 1105.59 293.834 1105.14 294.098C1104.68 294.35 1104.31 294.728 1104.02 295.232C1103.74 295.724 1103.61 296.312 1103.61 296.996C1103.61 297.68 1103.74 298.28 1104.02 298.796C1104.31 299.312 1104.68 299.708 1105.14 299.984C1105.6 300.248 1106.1 300.38 1106.61 300.38C1107.14 300.38 1107.63 300.248 1108.09 299.984C1108.54 299.72 1108.91 299.336 1109.19 298.832C1109.47 298.316 1109.62 297.716 1109.62 297.032ZM1123.47 296.798C1123.47 297.17 1123.45 297.506 1123.4 297.806H1115.82C1115.88 298.598 1116.18 299.234 1116.71 299.714C1117.23 300.194 1117.88 300.434 1118.65 300.434C1119.75 300.434 1120.53 299.972 1120.99 299.048H1123.2C1122.9 299.96 1122.36 300.71 1121.57 301.298C1120.79 301.874 1119.81 302.162 1118.65 302.162C1117.7 302.162 1116.85 301.952 1116.09 301.532C1115.35 301.1 1114.76 300.5 1114.33 299.732C1113.91 298.952 1113.7 298.052 1113.7 297.032C1113.7 296.012 1113.9 295.118 1114.31 294.35C1114.73 293.57 1115.31 292.97 1116.06 292.55C1116.81 292.13 1117.68 291.92 1118.65 291.92C1119.59 291.92 1120.42 292.124 1121.15 292.532C1121.88 292.94 1122.45 293.516 1122.86 294.26C1123.27 294.992 1123.47 295.838 1123.47 296.798ZM1121.33 296.15C1121.32 295.394 1121.05 294.788 1120.52 294.332C1119.99 293.876 1119.34 293.648 1118.56 293.648C1117.85 293.648 1117.25 293.876 1116.74 294.332C1116.24 294.776 1115.94 295.382 1115.84 296.15H1121.33ZM1129.33 300.164L1132.13 292.082H1134.31L1130.53 302H1128.08L1124.32 292.082H1126.52L1129.33 300.164ZM1144.95 296.798C1144.95 297.17 1144.93 297.506 1144.88 297.806H1137.3C1137.36 298.598 1137.66 299.234 1138.19 299.714C1138.71 300.194 1139.36 300.434 1140.13 300.434C1141.23 300.434 1142.01 299.972 1142.47 299.048H1144.68C1144.38 299.96 1143.84 300.71 1143.05 301.298C1142.27 301.874 1141.29 302.162 1140.13 302.162C1139.18 302.162 1138.33 301.952 1137.57 301.532C1136.83 301.1 1136.24 300.5 1135.81 299.732C1135.39 298.952 1135.18 298.052 1135.18 297.032C1135.18 296.012 1135.38 295.118 1135.79 294.35C1136.21 293.57 1136.79 292.97 1137.54 292.55C1138.29 292.13 1139.16 291.92 1140.13 291.92C1141.07 291.92 1141.9 292.124 1142.63 292.532C1143.36 292.94 1143.93 293.516 1144.34 294.26C1144.75 294.992 1144.95 295.838 1144.95 296.798ZM1142.81 296.15C1142.8 295.394 1142.53 294.788 1142 294.332C1141.47 293.876 1140.82 293.648 1140.04 293.648C1139.33 293.648 1138.73 293.876 1138.22 294.332C1137.72 294.776 1137.42 295.382 1137.32 296.15H1142.81ZM1149.03 288.68V302H1146.97V288.68H1149.03ZM1156.02 302.162C1155.09 302.162 1154.24 301.952 1153.48 301.532C1152.73 301.1 1152.13 300.5 1151.7 299.732C1151.27 298.952 1151.05 298.052 1151.05 297.032C1151.05 296.024 1151.28 295.13 1151.72 294.35C1152.16 293.57 1152.77 292.97 1153.54 292.55C1154.31 292.13 1155.16 291.92 1156.11 291.92C1157.06 291.92 1157.92 292.13 1158.69 292.55C1159.45 292.97 1160.06 293.57 1160.5 294.35C1160.95 295.13 1161.17 296.024 1161.17 297.032C1161.17 298.04 1160.94 298.934 1160.49 299.714C1160.03 300.494 1159.41 301.1 1158.61 301.532C1157.83 301.952 1156.97 302.162 1156.02 302.162ZM1156.02 300.38C1156.55 300.38 1157.04 300.254 1157.5 300.002C1157.97 299.75 1158.34 299.372 1158.63 298.868C1158.92 298.364 1159.06 297.752 1159.06 297.032C1159.06 296.312 1158.93 295.706 1158.65 295.214C1158.37 294.71 1158.01 294.332 1157.55 294.08C1157.1 293.828 1156.6 293.702 1156.08 293.702C1155.55 293.702 1155.06 293.828 1154.6 294.08C1154.16 294.332 1153.8 294.71 1153.54 295.214C1153.27 295.706 1153.14 296.312 1153.14 297.032C1153.14 298.1 1153.41 298.928 1153.95 299.516C1154.5 300.092 1155.19 300.38 1156.02 300.38ZM1165.25 293.54C1165.6 293.084 1166.07 292.7 1166.67 292.388C1167.27 292.076 1167.95 291.92 1168.71 291.92C1169.57 291.92 1170.36 292.136 1171.06 292.568C1171.78 292.988 1172.35 293.582 1172.76 294.35C1173.16 295.118 1173.37 296 1173.37 296.996C1173.37 297.992 1173.16 298.886 1172.76 299.678C1172.35 300.458 1171.78 301.07 1171.06 301.514C1170.36 301.946 1169.57 302.162 1168.71 302.162C1167.95 302.162 1167.28 302.012 1166.69 301.712C1166.1 301.4 1165.62 301.016 1165.25 300.56V306.716H1163.2V292.082H1165.25V293.54ZM1171.28 296.996C1171.28 296.312 1171.14 295.724 1170.85 295.232C1170.57 294.728 1170.2 294.35 1169.73 294.098C1169.28 293.834 1168.78 293.702 1168.26 293.702C1167.74 293.702 1167.25 293.834 1166.78 294.098C1166.32 294.362 1165.95 294.746 1165.66 295.25C1165.39 295.754 1165.25 296.348 1165.25 297.032C1165.25 297.716 1165.39 298.316 1165.66 298.832C1165.95 299.336 1166.32 299.72 1166.78 299.984C1167.25 300.248 1167.74 300.38 1168.26 300.38C1168.78 300.38 1169.28 300.248 1169.73 299.984C1170.2 299.708 1170.57 299.312 1170.85 298.796C1171.14 298.28 1171.28 297.68 1171.28 296.996ZM1179.39 297.032C1179.39 296.012 1179.59 295.118 1180 294.35C1180.42 293.57 1181 292.97 1181.73 292.55C1182.46 292.13 1183.3 291.92 1184.25 291.92C1185.45 291.92 1186.44 292.208 1187.22 292.784C1188.01 293.348 1188.54 294.158 1188.82 295.214H1186.61C1186.43 294.722 1186.14 294.338 1185.74 294.062C1185.35 293.786 1184.85 293.648 1184.25 293.648C1183.41 293.648 1182.74 293.948 1182.23 294.548C1181.74 295.136 1181.49 295.964 1181.49 297.032C1181.49 298.1 1181.74 298.934 1182.23 299.534C1182.74 300.134 1183.41 300.434 1184.25 300.434C1185.44 300.434 1186.22 299.912 1186.61 298.868H1188.82C1188.53 299.876 1187.99 300.68 1187.2 301.28C1186.41 301.868 1185.42 302.162 1184.25 302.162C1183.3 302.162 1182.46 301.952 1181.73 301.532C1181 301.1 1180.42 300.5 1180 299.732C1179.59 298.952 1179.39 298.052 1179.39 297.032ZM1190.18 296.996C1190.18 296 1190.39 295.118 1190.79 294.35C1191.21 293.582 1191.78 292.988 1192.49 292.568C1193.21 292.136 1194 291.92 1194.86 291.92C1195.64 291.92 1196.32 292.076 1196.9 292.388C1197.48 292.688 1197.95 293.066 1198.3 293.522V292.082H1200.37V302H1198.3V300.524C1197.95 300.992 1197.48 301.382 1196.88 301.694C1196.28 302.006 1195.59 302.162 1194.83 302.162C1193.97 302.162 1193.19 301.946 1192.49 301.514C1191.78 301.07 1191.21 300.458 1190.79 299.678C1190.39 298.886 1190.18 297.992 1190.18 296.996ZM1198.3 297.032C1198.3 296.348 1198.16 295.754 1197.87 295.25C1197.59 294.746 1197.23 294.362 1196.77 294.098C1196.31 293.834 1195.82 293.702 1195.29 293.702C1194.77 293.702 1194.27 293.834 1193.82 294.098C1193.36 294.35 1192.99 294.728 1192.7 295.232C1192.43 295.724 1192.29 296.312 1192.29 296.996C1192.29 297.68 1192.43 298.28 1192.7 298.796C1192.99 299.312 1193.36 299.708 1193.82 299.984C1194.29 300.248 1194.78 300.38 1195.29 300.38C1195.82 300.38 1196.31 300.248 1196.77 299.984C1197.23 299.72 1197.59 299.336 1197.87 298.832C1198.16 298.316 1198.3 297.716 1198.3 297.032ZM1215.07 291.92C1215.85 291.92 1216.55 292.082 1217.16 292.406C1217.78 292.73 1218.27 293.21 1218.62 293.846C1218.98 294.482 1219.16 295.25 1219.16 296.15V302H1217.12V296.456C1217.12 295.568 1216.9 294.89 1216.46 294.422C1216.01 293.942 1215.41 293.702 1214.64 293.702C1213.87 293.702 1213.26 293.942 1212.8 294.422C1212.36 294.89 1212.14 295.568 1212.14 296.456V302H1210.1V296.456C1210.1 295.568 1209.88 294.89 1209.44 294.422C1208.99 293.942 1208.39 293.702 1207.62 293.702C1206.85 293.702 1206.24 293.942 1205.78 294.422C1205.34 294.89 1205.12 295.568 1205.12 296.456V302H1203.06V292.082H1205.12V293.216C1205.45 292.808 1205.88 292.49 1206.39 292.262C1206.91 292.034 1207.46 291.92 1208.05 291.92C1208.84 291.92 1209.55 292.088 1210.17 292.424C1210.8 292.76 1211.28 293.246 1211.61 293.882C1211.91 293.282 1212.38 292.808 1213.02 292.46C1213.65 292.1 1214.34 291.92 1215.07 291.92ZM1223.82 293.54C1224.17 293.084 1224.64 292.7 1225.24 292.388C1225.84 292.076 1226.52 291.92 1227.28 291.92C1228.14 291.92 1228.93 292.136 1229.63 292.568C1230.35 292.988 1230.92 293.582 1231.33 294.35C1231.73 295.118 1231.94 296 1231.94 296.996C1231.94 297.992 1231.73 298.886 1231.33 299.678C1230.92 300.458 1230.35 301.07 1229.63 301.514C1228.93 301.946 1228.14 302.162 1227.28 302.162C1226.52 302.162 1225.85 302.012 1225.26 301.712C1224.67 301.4 1224.19 301.016 1223.82 300.56V306.716H1221.77V292.082H1223.82V293.54ZM1229.85 296.996C1229.85 296.312 1229.71 295.724 1229.42 295.232C1229.14 294.728 1228.77 294.35 1228.3 294.098C1227.85 293.834 1227.35 293.702 1226.83 293.702C1226.31 293.702 1225.82 293.834 1225.35 294.098C1224.89 294.362 1224.52 294.746 1224.23 295.25C1223.96 295.754 1223.82 296.348 1223.82 297.032C1223.82 297.716 1223.96 298.316 1224.23 298.832C1224.52 299.336 1224.89 299.72 1225.35 299.984C1225.82 300.248 1226.31 300.38 1226.83 300.38C1227.35 300.38 1227.85 300.248 1228.3 299.984C1228.77 299.708 1229.14 299.312 1229.42 298.796C1229.71 298.28 1229.85 297.68 1229.85 296.996ZM1233.28 296.996C1233.28 296 1233.49 295.118 1233.9 294.35C1234.32 293.582 1234.88 292.988 1235.59 292.568C1236.31 292.136 1237.1 291.92 1237.96 291.92C1238.74 291.92 1239.42 292.076 1240 292.388C1240.59 292.688 1241.05 293.066 1241.4 293.522V292.082H1243.47V302H1241.4V300.524C1241.05 300.992 1240.58 301.382 1239.98 301.694C1239.38 302.006 1238.7 302.162 1237.93 302.162C1237.08 302.162 1236.3 301.946 1235.59 301.514C1234.88 301.07 1234.32 300.458 1233.9 299.678C1233.49 298.886 1233.28 297.992 1233.28 296.996ZM1241.4 297.032C1241.4 296.348 1241.26 295.754 1240.97 295.25C1240.69 294.746 1240.33 294.362 1239.87 294.098C1239.42 293.834 1238.92 293.702 1238.4 293.702C1237.87 293.702 1237.38 293.834 1236.92 294.098C1236.46 294.35 1236.09 294.728 1235.8 295.232C1235.53 295.724 1235.39 296.312 1235.39 296.996C1235.39 297.68 1235.53 298.28 1235.8 298.796C1236.09 299.312 1236.46 299.708 1236.92 299.984C1237.39 300.248 1237.88 300.38 1238.4 300.38C1238.92 300.38 1239.42 300.248 1239.87 299.984C1240.33 299.72 1240.69 299.336 1240.97 298.832C1241.26 298.316 1241.4 297.716 1241.4 297.032ZM1247.21 290.768C1246.84 290.768 1246.53 290.642 1246.27 290.39C1246.02 290.138 1245.9 289.826 1245.9 289.454C1245.9 289.082 1246.02 288.77 1246.27 288.518C1246.53 288.266 1246.84 288.14 1247.21 288.14C1247.57 288.14 1247.88 288.266 1248.13 288.518C1248.38 288.77 1248.51 289.082 1248.51 289.454C1248.51 289.826 1248.38 290.138 1248.13 290.39C1247.88 290.642 1247.57 290.768 1247.21 290.768ZM1248.22 292.082V302H1246.17V292.082H1248.22ZM1254.91 291.92C1255.68 291.92 1256.35 292.076 1256.94 292.388C1257.54 292.688 1258.01 293.066 1258.35 293.522V292.082H1260.42V302.162C1260.42 303.074 1260.22 303.884 1259.84 304.592C1259.46 305.312 1258.9 305.876 1258.17 306.284C1257.45 306.692 1256.58 306.896 1255.57 306.896C1254.23 306.896 1253.11 306.578 1252.23 305.942C1251.34 305.318 1250.83 304.466 1250.71 303.386H1252.75C1252.9 303.902 1253.23 304.316 1253.74 304.628C1254.25 304.952 1254.87 305.114 1255.57 305.114C1256.4 305.114 1257.07 304.862 1257.57 304.358C1258.09 303.854 1258.35 303.122 1258.35 302.162V300.506C1258 300.974 1257.52 301.37 1256.92 301.694C1256.34 302.006 1255.66 302.162 1254.91 302.162C1254.04 302.162 1253.25 301.946 1252.53 301.514C1251.82 301.07 1251.26 300.458 1250.84 299.678C1250.43 298.886 1250.23 297.992 1250.23 296.996C1250.23 296 1250.43 295.118 1250.84 294.35C1251.26 293.582 1251.82 292.988 1252.53 292.568C1253.25 292.136 1254.04 291.92 1254.91 291.92ZM1258.35 297.032C1258.35 296.348 1258.2 295.754 1257.91 295.25C1257.64 294.746 1257.27 294.362 1256.82 294.098C1256.36 293.834 1255.87 293.702 1255.34 293.702C1254.81 293.702 1254.32 293.834 1253.86 294.098C1253.41 294.35 1253.04 294.728 1252.75 295.232C1252.47 295.724 1252.33 296.312 1252.33 296.996C1252.33 297.68 1252.47 298.28 1252.75 298.796C1253.04 299.312 1253.41 299.708 1253.86 299.984C1254.33 300.248 1254.82 300.38 1255.34 300.38C1255.87 300.38 1256.36 300.248 1256.82 299.984C1257.27 299.72 1257.64 299.336 1257.91 298.832C1258.2 298.316 1258.35 297.716 1258.35 297.032ZM1268.12 291.92C1268.9 291.92 1269.59 292.082 1270.2 292.406C1270.83 292.73 1271.31 293.21 1271.66 293.846C1272.01 294.482 1272.18 295.25 1272.18 296.15V302H1270.15V296.456C1270.15 295.568 1269.93 294.89 1269.48 294.422C1269.04 293.942 1268.43 293.702 1267.67 293.702C1266.9 293.702 1266.29 293.942 1265.83 294.422C1265.39 294.89 1265.16 295.568 1265.16 296.456V302H1263.11V292.082H1265.16V293.216C1265.5 292.808 1265.93 292.49 1266.44 292.262C1266.97 292.034 1267.53 291.92 1268.12 291.92ZM1278.4 302.162C1277.62 302.162 1276.92 302.024 1276.3 301.748C1275.68 301.46 1275.2 301.076 1274.84 300.596C1274.48 300.104 1274.29 299.558 1274.26 298.958H1276.39C1276.42 299.378 1276.62 299.732 1276.98 300.02C1277.35 300.296 1277.81 300.434 1278.37 300.434C1278.94 300.434 1279.39 300.326 1279.7 300.11C1280.02 299.882 1280.18 299.594 1280.18 299.246C1280.18 298.874 1280 298.598 1279.64 298.418C1279.3 298.238 1278.74 298.04 1277.97 297.824C1277.23 297.62 1276.62 297.422 1276.15 297.23C1275.68 297.038 1275.28 296.744 1274.93 296.348C1274.59 295.952 1274.42 295.43 1274.42 294.782C1274.42 294.254 1274.58 293.774 1274.89 293.342C1275.2 292.898 1275.65 292.55 1276.22 292.298C1276.81 292.046 1277.48 291.92 1278.24 291.92C1279.37 291.92 1280.27 292.208 1280.96 292.784C1281.65 293.348 1282.03 294.122 1282.07 295.106H1280.02C1279.99 294.662 1279.81 294.308 1279.48 294.044C1279.16 293.78 1278.72 293.648 1278.17 293.648C1277.63 293.648 1277.21 293.75 1276.93 293.954C1276.64 294.158 1276.49 294.428 1276.49 294.764C1276.49 295.028 1276.59 295.25 1276.78 295.43C1276.97 295.61 1277.21 295.754 1277.48 295.862C1277.76 295.958 1278.17 296.084 1278.71 296.24C1279.43 296.432 1280.02 296.63 1280.47 296.834C1280.94 297.026 1281.34 297.314 1281.68 297.698C1282.01 298.082 1282.19 298.592 1282.2 299.228C1282.2 299.792 1282.04 300.296 1281.73 300.74C1281.42 301.184 1280.98 301.532 1280.4 301.784C1279.84 302.036 1279.17 302.162 1278.4 302.162ZM1291.49 293.756V299.246C1291.49 299.618 1291.57 299.888 1291.74 300.056C1291.92 300.212 1292.22 300.29 1292.64 300.29H1293.9V302H1292.28C1291.35 302 1290.65 301.784 1290.15 301.352C1289.66 300.92 1289.42 300.218 1289.42 299.246V293.756H1288.25V292.082H1289.42V289.616H1291.49V292.082H1293.9V293.756H1291.49ZM1300.92 291.92C1301.68 291.92 1302.35 292.082 1302.94 292.406C1303.54 292.73 1304 293.21 1304.34 293.846C1304.69 294.482 1304.86 295.25 1304.86 296.15V302H1302.83V296.456C1302.83 295.568 1302.61 294.89 1302.16 294.422C1301.72 293.942 1301.11 293.702 1300.34 293.702C1299.58 293.702 1298.96 293.942 1298.51 294.422C1298.06 294.89 1297.84 295.568 1297.84 296.456V302H1295.79V288.68H1297.84V293.234C1298.19 292.814 1298.63 292.49 1299.16 292.262C1299.7 292.034 1300.28 291.92 1300.92 291.92ZM1306.79 296.996C1306.79 296 1307 295.118 1307.41 294.35C1307.83 293.582 1308.39 292.988 1309.1 292.568C1309.82 292.136 1310.61 291.92 1311.47 291.92C1312.25 291.92 1312.93 292.076 1313.51 292.388C1314.1 292.688 1314.56 293.066 1314.91 293.522V292.082H1316.98V302H1314.91V300.524C1314.56 300.992 1314.09 301.382 1313.49 301.694C1312.89 302.006 1312.21 302.162 1311.44 302.162C1310.59 302.162 1309.81 301.946 1309.1 301.514C1308.39 301.07 1307.83 300.458 1307.41 299.678C1307 298.886 1306.79 297.992 1306.79 296.996ZM1314.91 297.032C1314.91 296.348 1314.77 295.754 1314.48 295.25C1314.2 294.746 1313.84 294.362 1313.38 294.098C1312.93 293.834 1312.43 293.702 1311.91 293.702C1311.38 293.702 1310.89 293.834 1310.43 294.098C1309.97 294.35 1309.6 294.728 1309.31 295.232C1309.04 295.724 1308.9 296.312 1308.9 296.996C1308.9 297.68 1309.04 298.28 1309.31 298.796C1309.6 299.312 1309.97 299.708 1310.43 299.984C1310.9 300.248 1311.39 300.38 1311.91 300.38C1312.43 300.38 1312.93 300.248 1313.38 299.984C1313.84 299.72 1314.2 299.336 1314.48 298.832C1314.77 298.316 1314.91 297.716 1314.91 297.032ZM1322.07 293.756V299.246C1322.07 299.618 1322.16 299.888 1322.32 300.056C1322.5 300.212 1322.8 300.29 1323.22 300.29H1324.48V302H1322.86C1321.94 302 1321.23 301.784 1320.74 301.352C1320.25 300.92 1320 300.218 1320 299.246V293.756H1318.83V292.082H1320V289.616H1322.07V292.082H1324.48V293.756H1322.07ZM1333.1 293.522C1333.4 293.018 1333.8 292.628 1334.29 292.352C1334.8 292.064 1335.39 291.92 1336.07 291.92V294.044H1335.55C1334.75 294.044 1334.14 294.248 1333.72 294.656C1333.31 295.064 1333.1 295.772 1333.1 296.78V302H1331.05V292.082H1333.1V293.522ZM1347.05 296.798C1347.05 297.17 1347.03 297.506 1346.98 297.806H1339.4C1339.46 298.598 1339.75 299.234 1340.28 299.714C1340.81 300.194 1341.46 300.434 1342.23 300.434C1343.33 300.434 1344.11 299.972 1344.57 299.048H1346.78C1346.48 299.96 1345.93 300.71 1345.14 301.298C1344.36 301.874 1343.39 302.162 1342.23 302.162C1341.28 302.162 1340.43 301.952 1339.67 301.532C1338.93 301.1 1338.34 300.5 1337.91 299.732C1337.49 298.952 1337.28 298.052 1337.28 297.032C1337.28 296.012 1337.48 295.118 1337.89 294.35C1338.31 293.57 1338.89 292.97 1339.63 292.55C1340.39 292.13 1341.25 291.92 1342.23 291.92C1343.16 291.92 1344 292.124 1344.73 292.532C1345.46 292.94 1346.03 293.516 1346.44 294.26C1346.85 294.992 1347.05 295.838 1347.05 296.798ZM1344.91 296.15C1344.9 295.394 1344.63 294.788 1344.1 294.332C1343.57 293.876 1342.92 293.648 1342.14 293.648C1341.43 293.648 1340.82 293.876 1340.32 294.332C1339.81 294.776 1339.51 295.382 1339.42 296.15H1344.91ZM1352.67 302.162C1351.89 302.162 1351.19 302.024 1350.56 301.748C1349.95 301.46 1349.46 301.076 1349.1 300.596C1348.74 300.104 1348.55 299.558 1348.53 298.958H1350.65C1350.69 299.378 1350.89 299.732 1351.25 300.02C1351.62 300.296 1352.08 300.434 1352.63 300.434C1353.21 300.434 1353.65 300.326 1353.96 300.11C1354.29 299.882 1354.45 299.594 1354.45 299.246C1354.45 298.874 1354.27 298.598 1353.91 298.418C1353.56 298.238 1353 298.04 1352.24 297.824C1351.49 297.62 1350.89 297.422 1350.42 297.23C1349.95 297.038 1349.54 296.744 1349.19 296.348C1348.86 295.952 1348.69 295.43 1348.69 294.782C1348.69 294.254 1348.85 293.774 1349.16 293.342C1349.47 292.898 1349.91 292.55 1350.49 292.298C1351.08 292.046 1351.75 291.92 1352.51 291.92C1353.63 291.92 1354.54 292.208 1355.22 292.784C1355.92 293.348 1356.29 294.122 1356.34 295.106H1354.29C1354.25 294.662 1354.07 294.308 1353.75 294.044C1353.42 293.78 1352.99 293.648 1352.43 293.648C1351.89 293.648 1351.48 293.75 1351.19 293.954C1350.9 294.158 1350.76 294.428 1350.76 294.764C1350.76 295.028 1350.86 295.25 1351.05 295.43C1351.24 295.61 1351.47 295.754 1351.75 295.862C1352.03 295.958 1352.43 296.084 1352.97 296.24C1353.69 296.432 1354.28 296.63 1354.74 296.834C1355.21 297.026 1355.61 297.314 1355.94 297.698C1356.28 298.082 1356.45 298.592 1356.47 299.228C1356.47 299.792 1356.31 300.296 1356 300.74C1355.69 301.184 1355.24 301.532 1354.67 301.784C1354.1 302.036 1353.44 302.162 1352.67 302.162ZM1362.99 302.162C1362.05 302.162 1361.2 301.952 1360.45 301.532C1359.69 301.1 1359.1 300.5 1358.67 299.732C1358.23 298.952 1358.02 298.052 1358.02 297.032C1358.02 296.024 1358.24 295.13 1358.68 294.35C1359.13 293.57 1359.73 292.97 1360.5 292.55C1361.27 292.13 1362.13 291.92 1363.08 291.92C1364.02 291.92 1364.88 292.13 1365.65 292.55C1366.42 292.97 1367.02 293.57 1367.47 294.35C1367.91 295.13 1368.13 296.024 1368.13 297.032C1368.13 298.04 1367.91 298.934 1367.45 299.714C1366.99 300.494 1366.37 301.1 1365.58 301.532C1364.8 301.952 1363.93 302.162 1362.99 302.162ZM1362.99 300.38C1363.51 300.38 1364.01 300.254 1364.46 300.002C1364.93 299.75 1365.31 299.372 1365.6 298.868C1365.88 298.364 1366.03 297.752 1366.03 297.032C1366.03 296.312 1365.89 295.706 1365.61 295.214C1365.34 294.71 1364.97 294.332 1364.52 294.08C1364.06 293.828 1363.57 293.702 1363.04 293.702C1362.51 293.702 1362.02 293.828 1361.56 294.08C1361.12 294.332 1360.77 294.71 1360.5 295.214C1360.24 295.706 1360.11 296.312 1360.11 297.032C1360.11 298.1 1360.38 298.928 1360.92 299.516C1361.47 300.092 1362.16 300.38 1362.99 300.38ZM1375.17 291.92C1375.95 291.92 1376.64 292.082 1377.25 292.406C1377.88 292.73 1378.36 293.21 1378.71 293.846C1379.06 294.482 1379.23 295.25 1379.23 296.15V302H1377.2V296.456C1377.2 295.568 1376.98 294.89 1376.53 294.422C1376.09 293.942 1375.48 293.702 1374.72 293.702C1373.95 293.702 1373.34 293.942 1372.88 294.422C1372.44 294.89 1372.21 295.568 1372.21 296.456V302H1370.16V292.082H1372.21V293.216C1372.55 292.808 1372.98 292.49 1373.49 292.262C1374.02 292.034 1374.58 291.92 1375.17 291.92ZM1381.17 296.996C1381.17 296 1381.37 295.118 1381.78 294.35C1382.2 293.582 1382.76 292.988 1383.47 292.568C1384.19 292.136 1384.98 291.92 1385.85 291.92C1386.63 291.92 1387.31 292.076 1387.88 292.388C1388.47 292.688 1388.94 293.066 1389.29 293.522V292.082H1391.36V302H1389.29V300.524C1388.94 300.992 1388.46 301.382 1387.86 301.694C1387.26 302.006 1386.58 302.162 1385.81 302.162C1384.96 302.162 1384.18 301.946 1383.47 301.514C1382.76 301.07 1382.2 300.458 1381.78 299.678C1381.37 298.886 1381.17 297.992 1381.17 296.996ZM1389.29 297.032C1389.29 296.348 1389.14 295.754 1388.85 295.25C1388.58 294.746 1388.21 294.362 1387.76 294.098C1387.3 293.834 1386.81 293.702 1386.28 293.702C1385.75 293.702 1385.26 293.834 1384.8 294.098C1384.35 294.35 1383.98 294.728 1383.69 295.232C1383.41 295.724 1383.27 296.312 1383.27 296.996C1383.27 297.68 1383.41 298.28 1383.69 298.796C1383.98 299.312 1384.35 299.708 1384.8 299.984C1385.27 300.248 1385.76 300.38 1386.28 300.38C1386.81 300.38 1387.3 300.248 1387.76 299.984C1388.21 299.72 1388.58 299.336 1388.85 298.832C1389.14 298.316 1389.29 297.716 1389.29 297.032ZM1396.45 293.756V299.246C1396.45 299.618 1396.53 299.888 1396.7 300.056C1396.88 300.212 1397.18 300.29 1397.6 300.29H1398.86V302H1397.24C1396.31 302 1395.61 301.784 1395.11 301.352C1394.62 300.92 1394.38 300.218 1394.38 299.246V293.756H1393.21V292.082H1394.38V289.616H1396.45V292.082H1398.86V293.756H1396.45ZM1409.84 296.798C1409.84 297.17 1409.81 297.506 1409.77 297.806H1402.19C1402.25 298.598 1402.54 299.234 1403.07 299.714C1403.6 300.194 1404.25 300.434 1405.01 300.434C1406.12 300.434 1406.9 299.972 1407.35 299.048H1409.57C1409.27 299.96 1408.72 300.71 1407.93 301.298C1407.15 301.874 1406.18 302.162 1405.01 302.162C1404.07 302.162 1403.21 301.952 1402.46 301.532C1401.71 301.1 1401.13 300.5 1400.69 299.732C1400.27 298.952 1400.06 298.052 1400.06 297.032C1400.06 296.012 1400.27 295.118 1400.68 294.35C1401.1 293.57 1401.68 292.97 1402.42 292.55C1403.18 292.13 1404.04 291.92 1405.01 291.92C1405.95 291.92 1406.78 292.124 1407.52 292.532C1408.25 292.94 1408.82 293.516 1409.23 294.26C1409.63 294.992 1409.84 295.838 1409.84 296.798ZM1407.7 296.15C1407.68 295.394 1407.41 294.788 1406.89 294.332C1406.36 293.876 1405.7 293.648 1404.92 293.648C1404.22 293.648 1403.61 293.876 1403.11 294.332C1402.6 294.776 1402.3 295.382 1402.21 296.15H1407.7Z" fill="white" fill-opacity="0.8"/>
</svg>
