<svg width="316" height="244" viewBox="0 0 316 244" fill="none" xmlns="http://www.w3.org/2000/svg">
<path d="M29.754 26.463L13.908 63H7.353L23.37 27.147H2.28V21.618H29.754V26.463ZM34.1755 41.682C34.1755 35.108 35.2775 29.978 37.4815 26.292C39.7235 22.568 43.5615 20.706 48.9955 20.706C54.4295 20.706 58.2485 22.568 60.4525 26.292C62.6945 29.978 63.8155 35.108 63.8155 41.682C63.8155 48.332 62.6945 53.538 60.4525 57.3C58.2485 61.024 54.4295 62.886 48.9955 62.886C43.5615 62.886 39.7235 61.024 37.4815 57.3C35.2775 53.538 34.1755 48.332 34.1755 41.682ZM57.4315 41.682C57.4315 38.604 57.2225 36.001 56.8045 33.873C56.4245 31.745 55.6265 30.016 54.4105 28.686C53.1945 27.318 51.3895 26.634 48.9955 26.634C46.6015 26.634 44.7965 27.318 43.5805 28.686C42.3645 30.016 41.5475 31.745 41.1295 33.873C40.7495 36.001 40.5595 38.604 40.5595 41.682C40.5595 44.874 40.7495 47.553 41.1295 49.719C41.5095 51.885 42.3075 53.633 43.5235 54.963C44.7775 56.293 46.6015 56.958 48.9955 56.958C51.3895 56.958 53.1945 56.293 54.4105 54.963C55.6645 53.633 56.4815 51.885 56.8615 49.719C57.2415 47.553 57.4315 44.874 57.4315 41.682ZM69.5511 41.682C69.5511 35.108 70.6531 29.978 72.8571 26.292C75.0991 22.568 78.9371 20.706 84.3711 20.706C89.8051 20.706 93.6241 22.568 95.8281 26.292C98.0701 29.978 99.1911 35.108 99.1911 41.682C99.1911 48.332 98.0701 53.538 95.8281 57.3C93.6241 61.024 89.8051 62.886 84.3711 62.886C78.9371 62.886 75.0991 61.024 72.8571 57.3C70.6531 53.538 69.5511 48.332 69.5511 41.682ZM92.8071 41.682C92.8071 38.604 92.5981 36.001 92.1801 33.873C91.8001 31.745 91.0021 30.016 89.7861 28.686C88.5701 27.318 86.7651 26.634 84.3711 26.634C81.9771 26.634 80.1721 27.318 78.9561 28.686C77.7401 30.016 76.9231 31.745 76.5051 33.873C76.1251 36.001 75.9351 38.604 75.9351 41.682C75.9351 44.874 76.1251 47.553 76.5051 49.719C76.8851 51.885 77.6831 53.633 78.8991 54.963C80.1531 56.293 81.9771 56.958 84.3711 56.958C86.7651 56.958 88.5701 56.293 89.7861 54.963C91.0401 53.633 91.8571 51.885 92.2371 49.719C92.6171 47.553 92.8071 44.874 92.8071 41.682ZM104.072 27.375V21.447H115.928V63H109.373V27.375H104.072ZM166.293 23.385V63H159.795V35.868L147.711 63H143.208L131.067 35.868V63H124.569V23.385H131.58L145.488 54.45L159.339 23.385H166.293ZM204.303 45.159H192.789V56.958H186.747V45.159H175.233V39.687H186.747V27.888H192.789V39.687H204.303V45.159Z" fill="#11F2BE"/>
<path d="M17.64 118.49L13.932 131H11.61L8.982 121.532L6.192 131L3.888 131.018L0.342 118.49H2.52L5.112 128.678L7.92 118.49H10.224L12.834 128.624L15.444 118.49H17.64ZM20.3764 119.768C20.0044 119.768 19.6924 119.642 19.4404 119.39C19.1884 119.138 19.0624 118.826 19.0624 118.454C19.0624 118.082 19.1884 117.77 19.4404 117.518C19.6924 117.266 20.0044 117.14 20.3764 117.14C20.7364 117.14 21.0424 117.266 21.2944 117.518C21.5464 117.77 21.6724 118.082 21.6724 118.454C21.6724 118.826 21.5464 119.138 21.2944 119.39C21.0424 119.642 20.7364 119.768 20.3764 119.768ZM21.3844 121.082V131H19.3324V121.082H21.3844ZM26.4725 122.756V128.246C26.4725 128.618 26.5565 128.888 26.7245 129.056C26.9045 129.212 27.2045 129.29 27.6245 129.29H28.8845V131H27.2645C26.3405 131 25.6325 130.784 25.1405 130.352C24.6485 129.92 24.4025 129.218 24.4025 128.246V122.756H23.2325V121.082H24.4025V118.616H26.4725V121.082H28.8845V122.756H26.4725ZM35.9058 120.92C36.6618 120.92 37.3338 121.082 37.9218 121.406C38.5218 121.73 38.9898 122.21 39.3258 122.846C39.6738 123.482 39.8478 124.25 39.8478 125.15V131H37.8138V125.456C37.8138 124.568 37.5918 123.89 37.1478 123.422C36.7038 122.942 36.0978 122.702 35.3298 122.702C34.5618 122.702 33.9498 122.942 33.4938 123.422C33.0498 123.89 32.8278 124.568 32.8278 125.456V131H30.7758V117.68H32.8278V122.234C33.1758 121.814 33.6138 121.49 34.1418 121.262C34.6818 121.034 35.2698 120.92 35.9058 120.92ZM46.457 125.996C46.457 125 46.661 124.118 47.069 123.35C47.489 122.582 48.053 121.988 48.761 121.568C49.481 121.136 50.273 120.92 51.137 120.92C51.917 120.92 52.595 121.076 53.171 121.388C53.759 121.688 54.227 122.066 54.575 122.522V121.082H56.645V131H54.575V129.524C54.227 129.992 53.753 130.382 53.153 130.694C52.553 131.006 51.869 131.162 51.101 131.162C50.249 131.162 49.469 130.946 48.761 130.514C48.053 130.07 47.489 129.458 47.069 128.678C46.661 127.886 46.457 126.992 46.457 125.996ZM54.575 126.032C54.575 125.348 54.431 124.754 54.143 124.25C53.867 123.746 53.501 123.362 53.045 123.098C52.589 122.834 52.097 122.702 51.569 122.702C51.041 122.702 50.549 122.834 50.093 123.098C49.637 123.35 49.265 123.728 48.977 124.232C48.701 124.724 48.563 125.312 48.563 125.996C48.563 126.68 48.701 127.28 48.977 127.796C49.265 128.312 49.637 128.708 50.093 128.984C50.561 129.248 51.053 129.38 51.569 129.38C52.097 129.38 52.589 129.248 53.045 128.984C53.501 128.72 53.867 128.336 54.143 127.832C54.431 127.316 54.575 126.716 54.575 126.032ZM66.068 122.558C66.416 122.078 66.89 121.688 67.49 121.388C68.102 121.076 68.78 120.92 69.524 120.92C70.4 120.92 71.192 121.13 71.9 121.55C72.608 121.97 73.166 122.57 73.574 123.35C73.982 124.118 74.186 125 74.186 125.996C74.186 126.992 73.982 127.886 73.574 128.678C73.166 129.458 72.602 130.07 71.882 130.514C71.174 130.946 70.388 131.162 69.524 131.162C68.756 131.162 68.072 131.012 67.472 130.712C66.884 130.412 66.416 130.028 66.068 129.56V131H64.016V117.68H66.068V122.558ZM72.098 125.996C72.098 125.312 71.954 124.724 71.666 124.232C71.39 123.728 71.018 123.35 70.55 123.098C70.094 122.834 69.602 122.702 69.074 122.702C68.558 122.702 68.066 122.834 67.598 123.098C67.142 123.362 66.77 123.746 66.482 124.25C66.206 124.754 66.068 125.348 66.068 126.032C66.068 126.716 66.206 127.316 66.482 127.832C66.77 128.336 67.142 128.72 67.598 128.984C68.066 129.248 68.558 129.38 69.074 129.38C69.602 129.38 70.094 129.248 70.55 128.984C71.018 128.708 71.39 128.312 71.666 127.796C71.954 127.28 72.098 126.68 72.098 125.996ZM78.2672 117.68V131H76.2152V117.68H78.2672ZM90.0513 125.798C90.0513 126.17 90.0273 126.506 89.9793 126.806H82.4013C82.4613 127.598 82.7553 128.234 83.2833 128.714C83.8113 129.194 84.4593 129.434 85.2273 129.434C86.3313 129.434 87.1113 128.972 87.5673 128.048H89.7813C89.4813 128.96 88.9353 129.71 88.1433 130.298C87.3633 130.874 86.3913 131.162 85.2273 131.162C84.2793 131.162 83.4273 130.952 82.6713 130.532C81.9273 130.1 81.3393 129.5 80.9073 128.732C80.4873 127.952 80.2773 127.052 80.2773 126.032C80.2773 125.012 80.4813 124.118 80.8893 123.35C81.3093 122.57 81.8913 121.97 82.6353 121.55C83.3913 121.13 84.2553 120.92 85.2273 120.92C86.1633 120.92 86.9973 121.124 87.7293 121.532C88.4613 121.94 89.0313 122.516 89.4393 123.26C89.8473 123.992 90.0513 124.838 90.0513 125.798ZM87.9093 125.15C87.8973 124.394 87.6273 123.788 87.0993 123.332C86.5713 122.876 85.9173 122.648 85.1373 122.648C84.4293 122.648 83.8233 122.876 83.3193 123.332C82.8153 123.776 82.5153 124.382 82.4193 125.15H87.9093ZM97.0747 120.92C97.8547 120.92 98.5507 121.082 99.1627 121.406C99.7867 121.73 100.273 122.21 100.621 122.846C100.969 123.482 101.143 124.25 101.143 125.15V131H99.1087V125.456C99.1087 124.568 98.8867 123.89 98.4427 123.422C97.9987 122.942 97.3927 122.702 96.6247 122.702C95.8567 122.702 95.2447 122.942 94.7887 123.422C94.3447 123.89 94.1227 124.568 94.1227 125.456V131H92.0707V121.082H94.1227V122.216C94.4587 121.808 94.8847 121.49 95.4007 121.262C95.9287 121.034 96.4867 120.92 97.0747 120.92ZM103.076 125.996C103.076 125 103.28 124.118 103.688 123.35C104.108 122.582 104.672 121.988 105.38 121.568C106.1 121.136 106.898 120.92 107.774 120.92C108.422 120.92 109.058 121.064 109.682 121.352C110.318 121.628 110.822 122 111.194 122.468V117.68H113.264V131H111.194V129.506C110.858 129.986 110.39 130.382 109.79 130.694C109.202 131.006 108.524 131.162 107.756 131.162C106.892 131.162 106.1 130.946 105.38 130.514C104.672 130.07 104.108 129.458 103.688 128.678C103.28 127.886 103.076 126.992 103.076 125.996ZM111.194 126.032C111.194 125.348 111.05 124.754 110.762 124.25C110.486 123.746 110.12 123.362 109.664 123.098C109.208 122.834 108.716 122.702 108.188 122.702C107.66 122.702 107.168 122.834 106.712 123.098C106.256 123.35 105.884 123.728 105.596 124.232C105.32 124.724 105.182 125.312 105.182 125.996C105.182 126.68 105.32 127.28 105.596 127.796C105.884 128.312 106.256 128.708 106.712 128.984C107.18 129.248 107.672 129.38 108.188 129.38C108.716 129.38 109.208 129.248 109.664 128.984C110.12 128.72 110.486 128.336 110.762 127.832C111.05 127.316 111.194 126.716 111.194 126.032ZM124.937 131.162C124.001 131.162 123.155 130.952 122.399 130.532C121.643 130.1 121.049 129.5 120.617 128.732C120.185 127.952 119.969 127.052 119.969 126.032C119.969 125.024 120.191 124.13 120.635 123.35C121.079 122.57 121.685 121.97 122.453 121.55C123.221 121.13 124.079 120.92 125.027 120.92C125.975 120.92 126.833 121.13 127.601 121.55C128.369 121.97 128.975 122.57 129.419 123.35C129.863 124.13 130.085 125.024 130.085 126.032C130.085 127.04 129.857 127.934 129.401 128.714C128.945 129.494 128.321 130.1 127.529 130.532C126.749 130.952 125.885 131.162 124.937 131.162ZM124.937 129.38C125.465 129.38 125.957 129.254 126.413 129.002C126.881 128.75 127.259 128.372 127.547 127.868C127.835 127.364 127.979 126.752 127.979 126.032C127.979 125.312 127.841 124.706 127.565 124.214C127.289 123.71 126.923 123.332 126.467 123.08C126.011 122.828 125.519 122.702 124.991 122.702C124.463 122.702 123.971 122.828 123.515 123.08C123.071 123.332 122.717 123.71 122.453 124.214C122.189 124.706 122.057 125.312 122.057 126.032C122.057 127.1 122.327 127.928 122.867 128.516C123.419 129.092 124.109 129.38 124.937 129.38ZM136.272 122.756H134.436V131H132.366V122.756H131.196V121.082H132.366V120.38C132.366 119.24 132.666 118.412 133.266 117.896C133.878 117.368 134.832 117.104 136.128 117.104V118.814C135.504 118.814 135.066 118.934 134.814 119.174C134.562 119.402 134.436 119.804 134.436 120.38V121.082H136.272V122.756ZM142.082 126.032C142.082 125.012 142.286 124.118 142.694 123.35C143.114 122.57 143.69 121.97 144.422 121.55C145.154 121.13 145.994 120.92 146.942 120.92C148.142 120.92 149.132 121.208 149.912 121.784C150.704 122.348 151.238 123.158 151.514 124.214H149.3C149.12 123.722 148.832 123.338 148.436 123.062C148.04 122.786 147.542 122.648 146.942 122.648C146.102 122.648 145.43 122.948 144.926 123.548C144.434 124.136 144.188 124.964 144.188 126.032C144.188 127.1 144.434 127.934 144.926 128.534C145.43 129.134 146.102 129.434 146.942 129.434C148.13 129.434 148.916 128.912 149.3 127.868H151.514C151.226 128.876 150.686 129.68 149.894 130.28C149.102 130.868 148.118 131.162 146.942 131.162C145.994 131.162 145.154 130.952 144.422 130.532C143.69 130.1 143.114 129.5 142.694 128.732C142.286 127.952 142.082 127.052 142.082 126.032ZM155.611 122.522C155.911 122.018 156.307 121.628 156.799 121.352C157.303 121.064 157.897 120.92 158.581 120.92V123.044H158.059C157.255 123.044 156.643 123.248 156.223 123.656C155.815 124.064 155.611 124.772 155.611 125.78V131H153.559V121.082H155.611V122.522ZM169.557 125.798C169.557 126.17 169.533 126.506 169.485 126.806H161.907C161.967 127.598 162.261 128.234 162.789 128.714C163.317 129.194 163.965 129.434 164.733 129.434C165.837 129.434 166.617 128.972 167.073 128.048H169.287C168.987 128.96 168.441 129.71 167.649 130.298C166.869 130.874 165.897 131.162 164.733 131.162C163.785 131.162 162.933 130.952 162.177 130.532C161.433 130.1 160.845 129.5 160.413 128.732C159.993 127.952 159.783 127.052 159.783 126.032C159.783 125.012 159.987 124.118 160.395 123.35C160.815 122.57 161.397 121.97 162.141 121.55C162.897 121.13 163.761 120.92 164.733 120.92C165.669 120.92 166.503 121.124 167.235 121.532C167.967 121.94 168.537 122.516 168.945 123.26C169.353 123.992 169.557 124.838 169.557 125.798ZM167.415 125.15C167.403 124.394 167.133 123.788 166.605 123.332C166.077 122.876 165.423 122.648 164.643 122.648C163.935 122.648 163.329 122.876 162.825 123.332C162.321 123.776 162.021 124.382 161.925 125.15H167.415ZM170.893 125.996C170.893 125 171.097 124.118 171.505 123.35C171.925 122.582 172.489 121.988 173.197 121.568C173.917 121.136 174.709 120.92 175.573 120.92C176.353 120.92 177.031 121.076 177.607 121.388C178.195 121.688 178.663 122.066 179.011 122.522V121.082H181.081V131H179.011V129.524C178.663 129.992 178.189 130.382 177.589 130.694C176.989 131.006 176.305 131.162 175.537 131.162C174.685 131.162 173.905 130.946 173.197 130.514C172.489 130.07 171.925 129.458 171.505 128.678C171.097 127.886 170.893 126.992 170.893 125.996ZM179.011 126.032C179.011 125.348 178.867 124.754 178.579 124.25C178.303 123.746 177.937 123.362 177.481 123.098C177.025 122.834 176.533 122.702 176.005 122.702C175.477 122.702 174.985 122.834 174.529 123.098C174.073 123.35 173.701 123.728 173.413 124.232C173.137 124.724 172.999 125.312 172.999 125.996C172.999 126.68 173.137 127.28 173.413 127.796C173.701 128.312 174.073 128.708 174.529 128.984C174.997 129.248 175.489 129.38 176.005 129.38C176.533 129.38 177.025 129.248 177.481 128.984C177.937 128.72 178.303 128.336 178.579 127.832C178.867 127.316 179.011 126.716 179.011 126.032ZM186.17 122.756V128.246C186.17 128.618 186.254 128.888 186.422 129.056C186.602 129.212 186.902 129.29 187.322 129.29H188.582V131H186.962C186.038 131 185.33 130.784 184.838 130.352C184.346 129.92 184.1 129.218 184.1 128.246V122.756H182.93V121.082H184.1V118.616H186.17V121.082H188.582V122.756H186.17ZM191.517 119.768C191.145 119.768 190.833 119.642 190.581 119.39C190.329 119.138 190.203 118.826 190.203 118.454C190.203 118.082 190.329 117.77 190.581 117.518C190.833 117.266 191.145 117.14 191.517 117.14C191.877 117.14 192.183 117.266 192.435 117.518C192.687 117.77 192.813 118.082 192.813 118.454C192.813 118.826 192.687 119.138 192.435 119.39C192.183 119.642 191.877 119.768 191.517 119.768ZM192.525 121.082V131H190.473V121.082H192.525ZM199.053 129.164L201.861 121.082H204.039L200.259 131H197.811L194.049 121.082H196.245L199.053 129.164ZM206.634 119.768C206.262 119.768 205.95 119.642 205.698 119.39C205.446 119.138 205.32 118.826 205.32 118.454C205.32 118.082 205.446 117.77 205.698 117.518C205.95 117.266 206.262 117.14 206.634 117.14C206.994 117.14 207.3 117.266 207.552 117.518C207.804 117.77 207.93 118.082 207.93 118.454C207.93 118.826 207.804 119.138 207.552 119.39C207.3 119.642 206.994 119.768 206.634 119.768ZM207.642 121.082V131H205.59V121.082H207.642ZM212.73 122.756V128.246C212.73 128.618 212.814 128.888 212.982 129.056C213.162 129.212 213.462 129.29 213.882 129.29H215.142V131H213.522C212.598 131 211.89 130.784 211.398 130.352C210.906 129.92 210.66 129.218 210.66 128.246V122.756H209.49V121.082H210.66V118.616H212.73V121.082H215.142V122.756H212.73ZM225.962 121.082L219.878 135.662H217.754L219.77 130.838L215.864 121.082H218.15L220.94 128.642L223.838 121.082H225.962ZM229.76 128.534L227.582 133.502H226.25L227.528 128.534H229.76ZM235.545 125.996C235.545 125 235.749 124.118 236.157 123.35C236.577 122.582 237.141 121.988 237.849 121.568C238.569 121.136 239.367 120.92 240.243 120.92C240.891 120.92 241.527 121.064 242.151 121.352C242.787 121.628 243.291 122 243.663 122.468V117.68H245.733V131H243.663V129.506C243.327 129.986 242.859 130.382 242.259 130.694C241.671 131.006 240.993 131.162 240.225 131.162C239.361 131.162 238.569 130.946 237.849 130.514C237.141 130.07 236.577 129.458 236.157 128.678C235.749 127.886 235.545 126.992 235.545 125.996ZM243.663 126.032C243.663 125.348 243.519 124.754 243.231 124.25C242.955 123.746 242.589 123.362 242.133 123.098C241.677 122.834 241.185 122.702 240.657 122.702C240.129 122.702 239.637 122.834 239.181 123.098C238.725 123.35 238.353 123.728 238.065 124.232C237.789 124.724 237.651 125.312 237.651 125.996C237.651 126.68 237.789 127.28 238.065 127.796C238.353 128.312 238.725 128.708 239.181 128.984C239.649 129.248 240.141 129.38 240.657 129.38C241.185 129.38 241.677 129.248 242.133 128.984C242.589 128.72 242.955 128.336 243.231 127.832C243.519 127.316 243.663 126.716 243.663 126.032ZM247.744 125.996C247.744 125 247.948 124.118 248.356 123.35C248.776 122.582 249.34 121.988 250.048 121.568C250.768 121.136 251.56 120.92 252.424 120.92C253.204 120.92 253.882 121.076 254.458 121.388C255.046 121.688 255.514 122.066 255.862 122.522V121.082H257.932V131H255.862V129.524C255.514 129.992 255.04 130.382 254.44 130.694C253.84 131.006 253.156 131.162 252.388 131.162C251.536 131.162 250.756 130.946 250.048 130.514C249.34 130.07 248.776 129.458 248.356 128.678C247.948 127.886 247.744 126.992 247.744 125.996ZM255.862 126.032C255.862 125.348 255.718 124.754 255.43 124.25C255.154 123.746 254.788 123.362 254.332 123.098C253.876 122.834 253.384 122.702 252.856 122.702C252.328 122.702 251.836 122.834 251.38 123.098C250.924 123.35 250.552 123.728 250.264 124.232C249.988 124.724 249.85 125.312 249.85 125.996C249.85 126.68 249.988 127.28 250.264 127.796C250.552 128.312 250.924 128.708 251.38 128.984C251.848 129.248 252.34 129.38 252.856 129.38C253.384 129.38 253.876 129.248 254.332 128.984C254.788 128.72 255.154 128.336 255.43 127.832C255.718 127.316 255.862 126.716 255.862 126.032ZM263.021 122.756V128.246C263.021 128.618 263.105 128.888 263.273 129.056C263.453 129.212 263.753 129.29 264.173 129.29H265.433V131H263.813C262.889 131 262.181 130.784 261.689 130.352C261.197 129.92 260.951 129.218 260.951 128.246V122.756H259.781V121.082H260.951V118.616H263.021V121.082H265.433V122.756H263.021ZM266.641 125.996C266.641 125 266.845 124.118 267.253 123.35C267.673 122.582 268.237 121.988 268.945 121.568C269.665 121.136 270.457 120.92 271.321 120.92C272.101 120.92 272.779 121.076 273.355 121.388C273.943 121.688 274.411 122.066 274.759 122.522V121.082H276.829V131H274.759V129.524C274.411 129.992 273.937 130.382 273.337 130.694C272.737 131.006 272.053 131.162 271.285 131.162C270.433 131.162 269.653 130.946 268.945 130.514C268.237 130.07 267.673 129.458 267.253 128.678C266.845 127.886 266.641 126.992 266.641 125.996ZM274.759 126.032C274.759 125.348 274.615 124.754 274.327 124.25C274.051 123.746 273.685 123.362 273.229 123.098C272.773 122.834 272.281 122.702 271.753 122.702C271.225 122.702 270.733 122.834 270.277 123.098C269.821 123.35 269.449 123.728 269.161 124.232C268.885 124.724 268.747 125.312 268.747 125.996C268.747 126.68 268.885 127.28 269.161 127.796C269.449 128.312 269.821 128.708 270.277 128.984C270.745 129.248 271.237 129.38 271.753 129.38C272.281 129.38 272.773 129.248 273.229 128.984C273.685 128.72 274.051 128.336 274.327 127.832C274.615 127.316 274.759 126.716 274.759 126.032ZM287.138 123.62V125.348H279.74V123.62H287.138ZM0.666 159.996C0.666 159 0.87 158.118 1.278 157.35C1.698 156.582 2.262 155.988 2.97 155.568C3.69 155.136 4.488 154.92 5.364 154.92C6.012 154.92 6.648 155.064 7.272 155.352C7.908 155.628 8.412 156 8.784 156.468V151.68H10.854V165H8.784V163.506C8.448 163.986 7.98 164.382 7.38 164.694C6.792 165.006 6.114 165.162 5.346 165.162C4.482 165.162 3.69 164.946 2.97 164.514C2.262 164.07 1.698 163.458 1.278 162.678C0.87 161.886 0.666 160.992 0.666 159.996ZM8.784 160.032C8.784 159.348 8.64 158.754 8.352 158.25C8.076 157.746 7.71 157.362 7.254 157.098C6.798 156.834 6.306 156.702 5.778 156.702C5.25 156.702 4.758 156.834 4.302 157.098C3.846 157.35 3.474 157.728 3.186 158.232C2.91 158.724 2.772 159.312 2.772 159.996C2.772 160.68 2.91 161.28 3.186 161.796C3.474 162.312 3.846 162.708 4.302 162.984C4.77 163.248 5.262 163.38 5.778 163.38C6.306 163.38 6.798 163.248 7.254 162.984C7.71 162.72 8.076 162.336 8.352 161.832C8.64 161.316 8.784 160.716 8.784 160.032ZM15.6012 156.522C15.9012 156.018 16.2972 155.628 16.7892 155.352C17.2932 155.064 17.8872 154.92 18.5712 154.92V157.044H18.0492C17.2452 157.044 16.6332 157.248 16.2132 157.656C15.8052 158.064 15.6012 158.772 15.6012 159.78V165H13.5492V155.082H15.6012V156.522ZM21.5014 153.768C21.1294 153.768 20.8174 153.642 20.5654 153.39C20.3134 153.138 20.1874 152.826 20.1874 152.454C20.1874 152.082 20.3134 151.77 20.5654 151.518C20.8174 151.266 21.1294 151.14 21.5014 151.14C21.8614 151.14 22.1674 151.266 22.4194 151.518C22.6714 151.77 22.7974 152.082 22.7974 152.454C22.7974 152.826 22.6714 153.138 22.4194 153.39C22.1674 153.642 21.8614 153.768 21.5014 153.768ZM22.5094 155.082V165H20.4574V155.082H22.5094ZM29.0375 163.164L31.8455 155.082H34.0235L30.2435 165H27.7955L24.0335 155.082H26.2295L29.0375 163.164ZM44.6646 159.798C44.6646 160.17 44.6406 160.506 44.5926 160.806H37.0146C37.0746 161.598 37.3686 162.234 37.8966 162.714C38.4246 163.194 39.0726 163.434 39.8406 163.434C40.9446 163.434 41.7246 162.972 42.1806 162.048H44.3946C44.0946 162.96 43.5486 163.71 42.7566 164.298C41.9766 164.874 41.0046 165.162 39.8406 165.162C38.8926 165.162 38.0406 164.952 37.2846 164.532C36.5406 164.1 35.9526 163.5 35.5206 162.732C35.1006 161.952 34.8906 161.052 34.8906 160.032C34.8906 159.012 35.0946 158.118 35.5026 157.35C35.9226 156.57 36.5046 155.97 37.2486 155.55C38.0046 155.13 38.8686 154.92 39.8406 154.92C40.7766 154.92 41.6106 155.124 42.3426 155.532C43.0746 155.94 43.6446 156.516 44.0526 157.26C44.4606 157.992 44.6646 158.838 44.6646 159.798ZM42.5226 159.15C42.5106 158.394 42.2406 157.788 41.7126 157.332C41.1846 156.876 40.5306 156.648 39.7506 156.648C39.0426 156.648 38.4366 156.876 37.9326 157.332C37.4286 157.776 37.1286 158.382 37.0326 159.15H42.5226ZM51.688 154.92C52.468 154.92 53.164 155.082 53.776 155.406C54.4 155.73 54.886 156.21 55.234 156.846C55.582 157.482 55.756 158.25 55.756 159.15V165H53.722V159.456C53.722 158.568 53.5 157.89 53.056 157.422C52.612 156.942 52.006 156.702 51.238 156.702C50.47 156.702 49.858 156.942 49.402 157.422C48.958 157.89 48.736 158.568 48.736 159.456V165H46.684V155.082H48.736V156.216C49.072 155.808 49.498 155.49 50.014 155.262C50.542 155.034 51.1 154.92 51.688 154.92ZM64.0932 153.768C63.7212 153.768 63.4092 153.642 63.1572 153.39C62.9052 153.138 62.7792 152.826 62.7792 152.454C62.7792 152.082 62.9052 151.77 63.1572 151.518C63.4092 151.266 63.7212 151.14 64.0932 151.14C64.4532 151.14 64.7592 151.266 65.0112 151.518C65.2632 151.77 65.3892 152.082 65.3892 152.454C65.3892 152.826 65.2632 153.138 65.0112 153.39C64.7592 153.642 64.4532 153.768 64.0932 153.768ZM65.1012 155.082V165H63.0492V155.082H65.1012ZM72.7993 154.92C73.5793 154.92 74.2753 155.082 74.8873 155.406C75.5113 155.73 75.9973 156.21 76.3453 156.846C76.6933 157.482 76.8673 158.25 76.8673 159.15V165H74.8333V159.456C74.8333 158.568 74.6113 157.89 74.1673 157.422C73.7233 156.942 73.1173 156.702 72.3493 156.702C71.5813 156.702 70.9693 156.942 70.5133 157.422C70.0693 157.89 69.8473 158.568 69.8473 159.456V165H67.7953V155.082H69.8473V156.216C70.1833 155.808 70.6093 155.49 71.1253 155.262C71.6533 155.034 72.2113 154.92 72.7993 154.92ZM83.0848 165.162C82.3048 165.162 81.6028 165.024 80.9788 164.748C80.3668 164.46 79.8808 164.076 79.5208 163.596C79.1608 163.104 78.9688 162.558 78.9448 161.958H81.0688C81.1048 162.378 81.3028 162.732 81.6628 163.02C82.0348 163.296 82.4968 163.434 83.0488 163.434C83.6248 163.434 84.0688 163.326 84.3808 163.11C84.7048 162.882 84.8668 162.594 84.8668 162.246C84.8668 161.874 84.6868 161.598 84.3268 161.418C83.9788 161.238 83.4208 161.04 82.6528 160.824C81.9088 160.62 81.3028 160.422 80.8348 160.23C80.3668 160.038 79.9588 159.744 79.6108 159.348C79.2748 158.952 79.1068 158.43 79.1068 157.782C79.1068 157.254 79.2628 156.774 79.5748 156.342C79.8868 155.898 80.3308 155.55 80.9068 155.298C81.4948 155.046 82.1668 154.92 82.9228 154.92C84.0508 154.92 84.9568 155.208 85.6408 155.784C86.3368 156.348 86.7088 157.122 86.7568 158.106H84.7048C84.6688 157.662 84.4888 157.308 84.1648 157.044C83.8408 156.78 83.4028 156.648 82.8508 156.648C82.3108 156.648 81.8968 156.75 81.6088 156.954C81.3208 157.158 81.1768 157.428 81.1768 157.764C81.1768 158.028 81.2728 158.25 81.4648 158.43C81.6568 158.61 81.8908 158.754 82.1668 158.862C82.4428 158.958 82.8508 159.084 83.3908 159.24C84.1108 159.432 84.6988 159.63 85.1548 159.834C85.6228 160.026 86.0248 160.314 86.3608 160.698C86.6968 161.082 86.8708 161.592 86.8828 162.228C86.8828 162.792 86.7268 163.296 86.4148 163.74C86.1028 164.184 85.6588 164.532 85.0828 164.784C84.5188 165.036 83.8528 165.162 83.0848 165.162ZM90.144 153.768C89.772 153.768 89.46 153.642 89.208 153.39C88.956 153.138 88.83 152.826 88.83 152.454C88.83 152.082 88.956 151.77 89.208 151.518C89.46 151.266 89.772 151.14 90.144 151.14C90.504 151.14 90.81 151.266 91.062 151.518C91.314 151.77 91.44 152.082 91.44 152.454C91.44 152.826 91.314 153.138 91.062 153.39C90.81 153.642 90.504 153.768 90.144 153.768ZM91.152 155.082V165H89.1V155.082H91.152ZM97.8421 154.92C98.6101 154.92 99.2881 155.076 99.8761 155.388C100.476 155.688 100.944 156.066 101.28 156.522V155.082H103.35V165.162C103.35 166.074 103.158 166.884 102.774 167.592C102.39 168.312 101.832 168.876 101.1 169.284C100.38 169.692 99.5161 169.896 98.5081 169.896C97.1641 169.896 96.0481 169.578 95.1601 168.942C94.2721 168.318 93.7681 167.466 93.6481 166.386H95.6821C95.8381 166.902 96.1681 167.316 96.6721 167.628C97.1881 167.952 97.8001 168.114 98.5081 168.114C99.3361 168.114 100.002 167.862 100.506 167.358C101.022 166.854 101.28 166.122 101.28 165.162V163.506C100.932 163.974 100.458 164.37 99.8581 164.694C99.2701 165.006 98.5981 165.162 97.8421 165.162C96.9781 165.162 96.1861 164.946 95.4661 164.514C94.7581 164.07 94.1941 163.458 93.7741 162.678C93.3661 161.886 93.1621 160.992 93.1621 159.996C93.1621 159 93.3661 158.118 93.7741 157.35C94.1941 156.582 94.7581 155.988 95.4661 155.568C96.1861 155.136 96.9781 154.92 97.8421 154.92ZM101.28 160.032C101.28 159.348 101.136 158.754 100.848 158.25C100.572 157.746 100.206 157.362 99.7501 157.098C99.2941 156.834 98.8021 156.702 98.2741 156.702C97.7461 156.702 97.2541 156.834 96.7981 157.098C96.3421 157.35 95.9701 157.728 95.6821 158.232C95.4061 158.724 95.2681 159.312 95.2681 159.996C95.2681 160.68 95.4061 161.28 95.6821 161.796C95.9701 162.312 96.3421 162.708 96.7981 162.984C97.2661 163.248 97.7581 163.38 98.2741 163.38C98.8021 163.38 99.2941 163.248 99.7501 162.984C100.206 162.72 100.572 162.336 100.848 161.832C101.136 161.316 101.28 160.716 101.28 160.032ZM111.175 154.92C111.931 154.92 112.603 155.082 113.191 155.406C113.791 155.73 114.259 156.21 114.595 156.846C114.943 157.482 115.117 158.25 115.117 159.15V165H113.083V159.456C113.083 158.568 112.861 157.89 112.417 157.422C111.973 156.942 111.367 156.702 110.599 156.702C109.831 156.702 109.219 156.942 108.763 157.422C108.319 157.89 108.097 158.568 108.097 159.456V165H106.045V151.68H108.097V156.234C108.445 155.814 108.883 155.49 109.411 155.262C109.951 155.034 110.539 154.92 111.175 154.92ZM120.129 156.756V162.246C120.129 162.618 120.213 162.888 120.381 163.056C120.561 163.212 120.861 163.29 121.281 163.29H122.541V165H120.921C119.997 165 119.289 164.784 118.797 164.352C118.305 163.92 118.059 163.218 118.059 162.246V156.756H116.889V155.082H118.059V152.616H120.129V155.082H122.541V156.756H120.129ZM128.032 165.162C127.252 165.162 126.55 165.024 125.926 164.748C125.314 164.46 124.828 164.076 124.468 163.596C124.108 163.104 123.916 162.558 123.892 161.958H126.016C126.052 162.378 126.25 162.732 126.61 163.02C126.982 163.296 127.444 163.434 127.996 163.434C128.572 163.434 129.016 163.326 129.328 163.11C129.652 162.882 129.814 162.594 129.814 162.246C129.814 161.874 129.634 161.598 129.274 161.418C128.926 161.238 128.368 161.04 127.6 160.824C126.856 160.62 126.25 160.422 125.782 160.23C125.314 160.038 124.906 159.744 124.558 159.348C124.222 158.952 124.054 158.43 124.054 157.782C124.054 157.254 124.21 156.774 124.522 156.342C124.834 155.898 125.278 155.55 125.854 155.298C126.442 155.046 127.114 154.92 127.87 154.92C128.998 154.92 129.904 155.208 130.588 155.784C131.284 156.348 131.656 157.122 131.704 158.106H129.652C129.616 157.662 129.436 157.308 129.112 157.044C128.788 156.78 128.35 156.648 127.798 156.648C127.258 156.648 126.844 156.75 126.556 156.954C126.268 157.158 126.124 157.428 126.124 157.764C126.124 158.028 126.22 158.25 126.412 158.43C126.604 158.61 126.838 158.754 127.114 158.862C127.39 158.958 127.798 159.084 128.338 159.24C129.058 159.432 129.646 159.63 130.102 159.834C130.57 160.026 130.972 160.314 131.308 160.698C131.644 161.082 131.818 161.592 131.83 162.228C131.83 162.792 131.674 163.296 131.362 163.74C131.05 164.184 130.606 164.532 130.03 164.784C129.466 165.036 128.8 165.162 128.032 165.162ZM136.297 162.534L134.119 167.502H132.787L134.065 162.534H136.297ZM142.082 159.996C142.082 159 142.286 158.118 142.694 157.35C143.114 156.582 143.678 155.988 144.386 155.568C145.106 155.136 145.898 154.92 146.762 154.92C147.542 154.92 148.22 155.076 148.796 155.388C149.384 155.688 149.852 156.066 150.2 156.522V155.082H152.27V165H150.2V163.524C149.852 163.992 149.378 164.382 148.778 164.694C148.178 165.006 147.494 165.162 146.726 165.162C145.874 165.162 145.094 164.946 144.386 164.514C143.678 164.07 143.114 163.458 142.694 162.678C142.286 161.886 142.082 160.992 142.082 159.996ZM150.2 160.032C150.2 159.348 150.056 158.754 149.768 158.25C149.492 157.746 149.126 157.362 148.67 157.098C148.214 156.834 147.722 156.702 147.194 156.702C146.666 156.702 146.174 156.834 145.718 157.098C145.262 157.35 144.89 157.728 144.602 158.232C144.326 158.724 144.188 159.312 144.188 159.996C144.188 160.68 144.326 161.28 144.602 161.796C144.89 162.312 145.262 162.708 145.718 162.984C146.186 163.248 146.678 163.38 147.194 163.38C147.722 163.38 148.214 163.248 148.67 162.984C149.126 162.72 149.492 162.336 149.768 161.832C150.056 161.316 150.2 160.716 150.2 160.032ZM159.969 154.92C160.749 154.92 161.445 155.082 162.057 155.406C162.681 155.73 163.167 156.21 163.515 156.846C163.863 157.482 164.037 158.25 164.037 159.15V165H162.003V159.456C162.003 158.568 161.781 157.89 161.337 157.422C160.893 156.942 160.287 156.702 159.519 156.702C158.751 156.702 158.139 156.942 157.683 157.422C157.239 157.89 157.017 158.568 157.017 159.456V165H154.965V155.082H157.017V156.216C157.353 155.808 157.779 155.49 158.295 155.262C158.823 155.034 159.381 154.92 159.969 154.92ZM165.971 159.996C165.971 159 166.175 158.118 166.583 157.35C167.003 156.582 167.567 155.988 168.275 155.568C168.995 155.136 169.793 154.92 170.669 154.92C171.317 154.92 171.953 155.064 172.577 155.352C173.213 155.628 173.717 156 174.089 156.468V151.68H176.159V165H174.089V163.506C173.753 163.986 173.285 164.382 172.685 164.694C172.097 165.006 171.419 165.162 170.651 165.162C169.787 165.162 168.995 164.946 168.275 164.514C167.567 164.07 167.003 163.458 166.583 162.678C166.175 161.886 165.971 160.992 165.971 159.996ZM174.089 160.032C174.089 159.348 173.945 158.754 173.657 158.25C173.381 157.746 173.015 157.362 172.559 157.098C172.103 156.834 171.611 156.702 171.083 156.702C170.555 156.702 170.063 156.834 169.607 157.098C169.151 157.35 168.779 157.728 168.491 158.232C168.215 158.724 168.077 159.312 168.077 159.996C168.077 160.68 168.215 161.28 168.491 161.796C168.779 162.312 169.151 162.708 169.607 162.984C170.075 163.248 170.567 163.38 171.083 163.38C171.611 163.38 172.103 163.248 172.559 162.984C173.015 162.72 173.381 162.336 173.657 161.832C173.945 161.316 174.089 160.716 174.089 160.032ZM184.574 153.768C184.202 153.768 183.89 153.642 183.638 153.39C183.386 153.138 183.26 152.826 183.26 152.454C183.26 152.082 183.386 151.77 183.638 151.518C183.89 151.266 184.202 151.14 184.574 151.14C184.934 151.14 185.24 151.266 185.492 151.518C185.744 151.77 185.87 152.082 185.87 152.454C185.87 152.826 185.744 153.138 185.492 153.39C185.24 153.642 184.934 153.768 184.574 153.768ZM185.582 155.082V165H183.53V155.082H185.582ZM193.28 154.92C194.06 154.92 194.756 155.082 195.368 155.406C195.992 155.73 196.478 156.21 196.826 156.846C197.174 157.482 197.348 158.25 197.348 159.15V165H195.314V159.456C195.314 158.568 195.092 157.89 194.648 157.422C194.204 156.942 193.598 156.702 192.83 156.702C192.062 156.702 191.45 156.942 190.994 157.422C190.55 157.89 190.328 158.568 190.328 159.456V165H188.276V155.082H190.328V156.216C190.664 155.808 191.09 155.49 191.606 155.262C192.134 155.034 192.692 154.92 193.28 154.92ZM199.281 159.996C199.281 159 199.485 158.118 199.893 157.35C200.313 156.582 200.877 155.988 201.585 155.568C202.305 155.136 203.103 154.92 203.979 154.92C204.627 154.92 205.263 155.064 205.887 155.352C206.523 155.628 207.027 156 207.399 156.468V151.68H209.469V165H207.399V163.506C207.063 163.986 206.595 164.382 205.995 164.694C205.407 165.006 204.729 165.162 203.961 165.162C203.097 165.162 202.305 164.946 201.585 164.514C200.877 164.07 200.313 163.458 199.893 162.678C199.485 161.886 199.281 160.992 199.281 159.996ZM207.399 160.032C207.399 159.348 207.255 158.754 206.967 158.25C206.691 157.746 206.325 157.362 205.869 157.098C205.413 156.834 204.921 156.702 204.393 156.702C203.865 156.702 203.373 156.834 202.917 157.098C202.461 157.35 202.089 157.728 201.801 158.232C201.525 158.724 201.387 159.312 201.387 159.996C201.387 160.68 201.525 161.28 201.801 161.796C202.089 162.312 202.461 162.708 202.917 162.984C203.385 163.248 203.877 163.38 204.393 163.38C204.921 163.38 205.413 163.248 205.869 162.984C206.325 162.72 206.691 162.336 206.967 161.832C207.255 161.316 207.399 160.716 207.399 160.032ZM221.146 155.082V165H219.094V163.83C218.77 164.238 218.344 164.562 217.816 164.802C217.3 165.03 216.748 165.144 216.16 165.144C215.38 165.144 214.678 164.982 214.054 164.658C213.442 164.334 212.956 163.854 212.596 163.218C212.248 162.582 212.074 161.814 212.074 160.914V155.082H214.108V160.608C214.108 161.496 214.33 162.18 214.774 162.66C215.218 163.128 215.824 163.362 216.592 163.362C217.36 163.362 217.966 163.128 218.41 162.66C218.866 162.18 219.094 161.496 219.094 160.608V155.082H221.146ZM227.454 165.162C226.674 165.162 225.972 165.024 225.348 164.748C224.736 164.46 224.25 164.076 223.89 163.596C223.53 163.104 223.338 162.558 223.314 161.958H225.438C225.474 162.378 225.672 162.732 226.032 163.02C226.404 163.296 226.866 163.434 227.418 163.434C227.994 163.434 228.438 163.326 228.75 163.11C229.074 162.882 229.236 162.594 229.236 162.246C229.236 161.874 229.056 161.598 228.696 161.418C228.348 161.238 227.79 161.04 227.022 160.824C226.278 160.62 225.672 160.422 225.204 160.23C224.736 160.038 224.328 159.744 223.98 159.348C223.644 158.952 223.476 158.43 223.476 157.782C223.476 157.254 223.632 156.774 223.944 156.342C224.256 155.898 224.7 155.55 225.276 155.298C225.864 155.046 226.536 154.92 227.292 154.92C228.42 154.92 229.326 155.208 230.01 155.784C230.706 156.348 231.078 157.122 231.126 158.106H229.074C229.038 157.662 228.858 157.308 228.534 157.044C228.21 156.78 227.772 156.648 227.22 156.648C226.68 156.648 226.266 156.75 225.978 156.954C225.69 157.158 225.546 157.428 225.546 157.764C225.546 158.028 225.642 158.25 225.834 158.43C226.026 158.61 226.26 158.754 226.536 158.862C226.812 158.958 227.22 159.084 227.76 159.24C228.48 159.432 229.068 159.63 229.524 159.834C229.992 160.026 230.394 160.314 230.73 160.698C231.066 161.082 231.24 161.592 231.252 162.228C231.252 162.792 231.096 163.296 230.784 163.74C230.472 164.184 230.028 164.532 229.452 164.784C228.888 165.036 228.222 165.162 227.454 165.162ZM235.863 156.756V162.246C235.863 162.618 235.947 162.888 236.115 163.056C236.295 163.212 236.595 163.29 237.015 163.29H238.275V165H236.655C235.731 165 235.023 164.784 234.531 164.352C234.039 163.92 233.793 163.218 233.793 162.246V156.756H232.623V155.082H233.793V152.616H235.863V155.082H238.275V156.756H235.863ZM242.218 156.522C242.518 156.018 242.914 155.628 243.406 155.352C243.91 155.064 244.504 154.92 245.188 154.92V157.044H244.666C243.862 157.044 243.25 157.248 242.83 157.656C242.422 158.064 242.218 158.772 242.218 159.78V165H240.166V155.082H242.218V156.522ZM256.003 155.082L249.919 169.662H247.795L249.811 164.838L245.905 155.082H248.191L250.981 162.642L253.879 155.082H256.003ZM10.44 193.798C10.44 194.17 10.416 194.506 10.368 194.806H2.79C2.85 195.598 3.144 196.234 3.672 196.714C4.2 197.194 4.848 197.434 5.616 197.434C6.72 197.434 7.5 196.972 7.956 196.048H10.17C9.87 196.96 9.324 197.71 8.532 198.298C7.752 198.874 6.78 199.162 5.616 199.162C4.668 199.162 3.816 198.952 3.06 198.532C2.316 198.1 1.728 197.5 1.296 196.732C0.876 195.952 0.666 195.052 0.666 194.032C0.666 193.012 0.87 192.118 1.278 191.35C1.698 190.57 2.28 189.97 3.024 189.55C3.78 189.13 4.644 188.92 5.616 188.92C6.552 188.92 7.386 189.124 8.118 189.532C8.85 189.94 9.42 190.516 9.828 191.26C10.236 191.992 10.44 192.838 10.44 193.798ZM8.298 193.15C8.286 192.394 8.016 191.788 7.488 191.332C6.96 190.876 6.306 190.648 5.526 190.648C4.818 190.648 4.212 190.876 3.708 191.332C3.204 191.776 2.904 192.382 2.808 193.15H8.298ZM16.7074 193.978L19.9114 199H17.5894L15.4474 195.634L13.4314 199H11.2894L14.4934 194.122L11.2894 189.082H13.6114L15.7534 192.448L17.7694 189.082H19.9114L16.7074 193.978ZM23.4938 190.54C23.8418 190.084 24.3158 189.7 24.9158 189.388C25.5158 189.076 26.1938 188.92 26.9498 188.92C27.8138 188.92 28.5998 189.136 29.3078 189.568C30.0278 189.988 30.5918 190.582 30.9998 191.35C31.4078 192.118 31.6118 193 31.6118 193.996C31.6118 194.992 31.4078 195.886 30.9998 196.678C30.5918 197.458 30.0278 198.07 29.3078 198.514C28.5998 198.946 27.8138 199.162 26.9498 199.162C26.1938 199.162 25.5218 199.012 24.9338 198.712C24.3458 198.4 23.8658 198.016 23.4938 197.56V203.716H21.4418V189.082H23.4938V190.54ZM29.5238 193.996C29.5238 193.312 29.3798 192.724 29.0918 192.232C28.8158 191.728 28.4438 191.35 27.9758 191.098C27.5198 190.834 27.0278 190.702 26.4998 190.702C25.9838 190.702 25.4918 190.834 25.0238 191.098C24.5678 191.362 24.1958 191.746 23.9078 192.25C23.6318 192.754 23.4938 193.348 23.4938 194.032C23.4938 194.716 23.6318 195.316 23.9078 195.832C24.1958 196.336 24.5678 196.72 25.0238 196.984C25.4918 197.248 25.9838 197.38 26.4998 197.38C27.0278 197.38 27.5198 197.248 27.9758 196.984C28.4438 196.708 28.8158 196.312 29.0918 195.796C29.3798 195.28 29.5238 194.68 29.5238 193.996ZM42.731 193.798C42.731 194.17 42.707 194.506 42.659 194.806H35.081C35.141 195.598 35.435 196.234 35.963 196.714C36.491 197.194 37.139 197.434 37.907 197.434C39.011 197.434 39.791 196.972 40.247 196.048H42.461C42.161 196.96 41.615 197.71 40.823 198.298C40.043 198.874 39.071 199.162 37.907 199.162C36.959 199.162 36.107 198.952 35.351 198.532C34.607 198.1 34.019 197.5 33.587 196.732C33.167 195.952 32.957 195.052 32.957 194.032C32.957 193.012 33.161 192.118 33.569 191.35C33.989 190.57 34.571 189.97 35.315 189.55C36.071 189.13 36.935 188.92 37.907 188.92C38.843 188.92 39.677 189.124 40.409 189.532C41.141 189.94 41.711 190.516 42.119 191.26C42.527 191.992 42.731 192.838 42.731 193.798ZM40.589 193.15C40.577 192.394 40.307 191.788 39.779 191.332C39.251 190.876 38.597 190.648 37.817 190.648C37.109 190.648 36.503 190.876 35.999 191.332C35.495 191.776 35.195 192.382 35.099 193.15H40.589ZM46.8024 190.522C47.1024 190.018 47.4984 189.628 47.9904 189.352C48.4944 189.064 49.0884 188.92 49.7724 188.92V191.044H49.2504C48.4464 191.044 47.8344 191.248 47.4144 191.656C47.0064 192.064 46.8024 192.772 46.8024 193.78V199H44.7504V189.082H46.8024V190.522ZM54.0526 190.756V196.246C54.0526 196.618 54.1366 196.888 54.3046 197.056C54.4846 197.212 54.7846 197.29 55.2046 197.29H56.4646V199H54.8446C53.9206 199 53.2126 198.784 52.7206 198.352C52.2286 197.92 51.9826 197.218 51.9826 196.246V190.756H50.8126V189.082H51.9826V186.616H54.0526V189.082H56.4646V190.756H54.0526ZM59.3999 187.768C59.0279 187.768 58.7159 187.642 58.4639 187.39C58.2119 187.138 58.0859 186.826 58.0859 186.454C58.0859 186.082 58.2119 185.77 58.4639 185.518C58.7159 185.266 59.0279 185.14 59.3999 185.14C59.7599 185.14 60.0659 185.266 60.3179 185.518C60.5699 185.77 60.6959 186.082 60.6959 186.454C60.6959 186.826 60.5699 187.138 60.3179 187.39C60.0659 187.642 59.7599 187.768 59.3999 187.768ZM60.4079 189.082V199H58.3559V189.082H60.4079ZM66.702 199.162C65.922 199.162 65.22 199.024 64.596 198.748C63.984 198.46 63.498 198.076 63.138 197.596C62.778 197.104 62.586 196.558 62.562 195.958H64.686C64.722 196.378 64.92 196.732 65.28 197.02C65.652 197.296 66.114 197.434 66.666 197.434C67.242 197.434 67.686 197.326 67.998 197.11C68.322 196.882 68.484 196.594 68.484 196.246C68.484 195.874 68.304 195.598 67.944 195.418C67.596 195.238 67.038 195.04 66.27 194.824C65.526 194.62 64.92 194.422 64.452 194.23C63.984 194.038 63.576 193.744 63.228 193.348C62.892 192.952 62.724 192.43 62.724 191.782C62.724 191.254 62.88 190.774 63.192 190.342C63.504 189.898 63.948 189.55 64.524 189.298C65.112 189.046 65.784 188.92 66.54 188.92C67.668 188.92 68.574 189.208 69.258 189.784C69.954 190.348 70.326 191.122 70.374 192.106H68.322C68.286 191.662 68.106 191.308 67.782 191.044C67.458 190.78 67.02 190.648 66.468 190.648C65.928 190.648 65.514 190.75 65.226 190.954C64.938 191.158 64.794 191.428 64.794 191.764C64.794 192.028 64.89 192.25 65.082 192.43C65.274 192.61 65.508 192.754 65.784 192.862C66.06 192.958 66.468 193.084 67.008 193.24C67.728 193.432 68.316 193.63 68.772 193.834C69.24 194.026 69.642 194.314 69.978 194.698C70.314 195.082 70.488 195.592 70.5 196.228C70.5 196.792 70.344 197.296 70.032 197.74C69.72 198.184 69.276 198.532 68.7 198.784C68.136 199.036 67.47 199.162 66.702 199.162ZM81.8072 193.798C81.8072 194.17 81.7832 194.506 81.7352 194.806H74.1572C74.2172 195.598 74.5112 196.234 75.0392 196.714C75.5672 197.194 76.2152 197.434 76.9832 197.434C78.0872 197.434 78.8672 196.972 79.3232 196.048H81.5372C81.2372 196.96 80.6912 197.71 79.8992 198.298C79.1192 198.874 78.1472 199.162 76.9832 199.162C76.0352 199.162 75.1832 198.952 74.4272 198.532C73.6832 198.1 73.0952 197.5 72.6632 196.732C72.2432 195.952 72.0332 195.052 72.0332 194.032C72.0332 193.012 72.2372 192.118 72.6452 191.35C73.0652 190.57 73.6472 189.97 74.3912 189.55C75.1472 189.13 76.0112 188.92 76.9832 188.92C77.9192 188.92 78.7532 189.124 79.4852 189.532C80.2172 189.94 80.7872 190.516 81.1952 191.26C81.6032 191.992 81.8072 192.838 81.8072 193.798ZM79.6652 193.15C79.6532 192.394 79.3832 191.788 78.8552 191.332C78.3272 190.876 77.6732 190.648 76.8932 190.648C76.1852 190.648 75.5792 190.876 75.0752 191.332C74.5712 191.776 74.2712 192.382 74.1752 193.15H79.6652ZM86.0766 196.534L83.8986 201.502H82.5666L83.8446 196.534H86.0766ZM105.865 189.082L102.787 199H100.627L98.6293 191.674L96.6313 199H94.4713L91.3753 189.082H93.4633L95.5333 197.056L97.6393 189.082H99.7813L101.797 197.02L103.849 189.082H105.865ZM116.489 193.798C116.489 194.17 116.465 194.506 116.417 194.806H108.839C108.899 195.598 109.193 196.234 109.721 196.714C110.249 197.194 110.897 197.434 111.665 197.434C112.769 197.434 113.549 196.972 114.005 196.048H116.219C115.919 196.96 115.373 197.71 114.581 198.298C113.801 198.874 112.829 199.162 111.665 199.162C110.717 199.162 109.865 198.952 109.109 198.532C108.365 198.1 107.777 197.5 107.345 196.732C106.925 195.952 106.715 195.052 106.715 194.032C106.715 193.012 106.919 192.118 107.327 191.35C107.747 190.57 108.329 189.97 109.073 189.55C109.829 189.13 110.693 188.92 111.665 188.92C112.601 188.92 113.435 189.124 114.167 189.532C114.899 189.94 115.469 190.516 115.877 191.26C116.285 191.992 116.489 192.838 116.489 193.798ZM114.347 193.15C114.335 192.394 114.065 191.788 113.537 191.332C113.009 190.876 112.355 190.648 111.575 190.648C110.867 190.648 110.261 190.876 109.757 191.332C109.253 191.776 108.953 192.382 108.857 193.15H114.347ZM122.5 193.996C122.5 193 122.704 192.118 123.112 191.35C123.532 190.582 124.096 189.988 124.804 189.568C125.524 189.136 126.322 188.92 127.198 188.92C127.846 188.92 128.482 189.064 129.106 189.352C129.742 189.628 130.246 190 130.618 190.468V185.68H132.688V199H130.618V197.506C130.282 197.986 129.814 198.382 129.214 198.694C128.626 199.006 127.948 199.162 127.18 199.162C126.316 199.162 125.524 198.946 124.804 198.514C124.096 198.07 123.532 197.458 123.112 196.678C122.704 195.886 122.5 194.992 122.5 193.996ZM130.618 194.032C130.618 193.348 130.474 192.754 130.186 192.25C129.91 191.746 129.544 191.362 129.088 191.098C128.632 190.834 128.14 190.702 127.612 190.702C127.084 190.702 126.592 190.834 126.136 191.098C125.68 191.35 125.308 191.728 125.02 192.232C124.744 192.724 124.606 193.312 124.606 193.996C124.606 194.68 124.744 195.28 125.02 195.796C125.308 196.312 125.68 196.708 126.136 196.984C126.604 197.248 127.096 197.38 127.612 197.38C128.14 197.38 128.632 197.248 129.088 196.984C129.544 196.72 129.91 196.336 130.186 195.832C130.474 195.316 130.618 194.716 130.618 194.032ZM144.473 193.798C144.473 194.17 144.449 194.506 144.401 194.806H136.823C136.883 195.598 137.177 196.234 137.705 196.714C138.233 197.194 138.881 197.434 139.649 197.434C140.753 197.434 141.533 196.972 141.989 196.048H144.203C143.903 196.96 143.357 197.71 142.565 198.298C141.785 198.874 140.813 199.162 139.649 199.162C138.701 199.162 137.849 198.952 137.093 198.532C136.349 198.1 135.761 197.5 135.329 196.732C134.909 195.952 134.699 195.052 134.699 194.032C134.699 193.012 134.903 192.118 135.311 191.35C135.731 190.57 136.313 189.97 137.057 189.55C137.813 189.13 138.677 188.92 139.649 188.92C140.585 188.92 141.419 189.124 142.151 189.532C142.883 189.94 143.453 190.516 143.861 191.26C144.269 191.992 144.473 192.838 144.473 193.798ZM142.331 193.15C142.319 192.394 142.049 191.788 141.521 191.332C140.993 190.876 140.339 190.648 139.559 190.648C138.851 190.648 138.245 190.876 137.741 191.332C137.237 191.776 136.937 192.382 136.841 193.15H142.331ZM150.327 197.164L153.135 189.082H155.313L151.533 199H149.085L145.323 189.082H147.519L150.327 197.164ZM165.954 193.798C165.954 194.17 165.93 194.506 165.882 194.806H158.304C158.364 195.598 158.658 196.234 159.186 196.714C159.714 197.194 160.362 197.434 161.13 197.434C162.234 197.434 163.014 196.972 163.47 196.048H165.684C165.384 196.96 164.838 197.71 164.046 198.298C163.266 198.874 162.294 199.162 161.13 199.162C160.182 199.162 159.33 198.952 158.574 198.532C157.83 198.1 157.242 197.5 156.81 196.732C156.39 195.952 156.18 195.052 156.18 194.032C156.18 193.012 156.384 192.118 156.792 191.35C157.212 190.57 157.794 189.97 158.538 189.55C159.294 189.13 160.158 188.92 161.13 188.92C162.066 188.92 162.9 189.124 163.632 189.532C164.364 189.94 164.934 190.516 165.342 191.26C165.75 191.992 165.954 192.838 165.954 193.798ZM163.812 193.15C163.8 192.394 163.53 191.788 163.002 191.332C162.474 190.876 161.82 190.648 161.04 190.648C160.332 190.648 159.726 190.876 159.222 191.332C158.718 191.776 158.418 192.382 158.322 193.15H163.812ZM170.025 185.68V199H167.973V185.68H170.025ZM177.021 199.162C176.085 199.162 175.239 198.952 174.483 198.532C173.727 198.1 173.133 197.5 172.701 196.732C172.269 195.952 172.053 195.052 172.053 194.032C172.053 193.024 172.275 192.13 172.719 191.35C173.163 190.57 173.769 189.97 174.537 189.55C175.305 189.13 176.163 188.92 177.111 188.92C178.059 188.92 178.917 189.13 179.685 189.55C180.453 189.97 181.059 190.57 181.503 191.35C181.947 192.13 182.169 193.024 182.169 194.032C182.169 195.04 181.941 195.934 181.485 196.714C181.029 197.494 180.405 198.1 179.613 198.532C178.833 198.952 177.969 199.162 177.021 199.162ZM177.021 197.38C177.549 197.38 178.041 197.254 178.497 197.002C178.965 196.75 179.343 196.372 179.631 195.868C179.919 195.364 180.063 194.752 180.063 194.032C180.063 193.312 179.925 192.706 179.649 192.214C179.373 191.71 179.007 191.332 178.551 191.08C178.095 190.828 177.603 190.702 177.075 190.702C176.547 190.702 176.055 190.828 175.599 191.08C175.155 191.332 174.801 191.71 174.537 192.214C174.273 192.706 174.141 193.312 174.141 194.032C174.141 195.1 174.411 195.928 174.951 196.516C175.503 197.092 176.193 197.38 177.021 197.38ZM186.25 190.54C186.598 190.084 187.072 189.7 187.672 189.388C188.272 189.076 188.95 188.92 189.706 188.92C190.57 188.92 191.356 189.136 192.064 189.568C192.784 189.988 193.348 190.582 193.756 191.35C194.164 192.118 194.368 193 194.368 193.996C194.368 194.992 194.164 195.886 193.756 196.678C193.348 197.458 192.784 198.07 192.064 198.514C191.356 198.946 190.57 199.162 189.706 199.162C188.95 199.162 188.278 199.012 187.69 198.712C187.102 198.4 186.622 198.016 186.25 197.56V203.716H184.198V189.082H186.25V190.54ZM192.28 193.996C192.28 193.312 192.136 192.724 191.848 192.232C191.572 191.728 191.2 191.35 190.732 191.098C190.276 190.834 189.784 190.702 189.256 190.702C188.74 190.702 188.248 190.834 187.78 191.098C187.324 191.362 186.952 191.746 186.664 192.25C186.388 192.754 186.25 193.348 186.25 194.032C186.25 194.716 186.388 195.316 186.664 195.832C186.952 196.336 187.324 196.72 187.78 196.984C188.248 197.248 188.74 197.38 189.256 197.38C189.784 197.38 190.276 197.248 190.732 196.984C191.2 196.708 191.572 196.312 191.848 195.796C192.136 195.28 192.28 194.68 192.28 193.996ZM200.389 194.032C200.389 193.012 200.593 192.118 201.001 191.35C201.421 190.57 201.997 189.97 202.729 189.55C203.461 189.13 204.301 188.92 205.249 188.92C206.449 188.92 207.439 189.208 208.219 189.784C209.011 190.348 209.545 191.158 209.821 192.214H207.607C207.427 191.722 207.139 191.338 206.743 191.062C206.347 190.786 205.849 190.648 205.249 190.648C204.409 190.648 203.737 190.948 203.233 191.548C202.741 192.136 202.495 192.964 202.495 194.032C202.495 195.1 202.741 195.934 203.233 196.534C203.737 197.134 204.409 197.434 205.249 197.434C206.437 197.434 207.223 196.912 207.607 195.868H209.821C209.533 196.876 208.993 197.68 208.201 198.28C207.409 198.868 206.425 199.162 205.249 199.162C204.301 199.162 203.461 198.952 202.729 198.532C201.997 198.1 201.421 197.5 201.001 196.732C200.593 195.952 200.389 195.052 200.389 194.032ZM211.182 193.996C211.182 193 211.386 192.118 211.794 191.35C212.214 190.582 212.778 189.988 213.486 189.568C214.206 189.136 214.998 188.92 215.862 188.92C216.642 188.92 217.32 189.076 217.896 189.388C218.484 189.688 218.952 190.066 219.3 190.522V189.082H221.37V199H219.3V197.524C218.952 197.992 218.478 198.382 217.878 198.694C217.278 199.006 216.594 199.162 215.826 199.162C214.974 199.162 214.194 198.946 213.486 198.514C212.778 198.07 212.214 197.458 211.794 196.678C211.386 195.886 211.182 194.992 211.182 193.996ZM219.3 194.032C219.3 193.348 219.156 192.754 218.868 192.25C218.592 191.746 218.226 191.362 217.77 191.098C217.314 190.834 216.822 190.702 216.294 190.702C215.766 190.702 215.274 190.834 214.818 191.098C214.362 191.35 213.99 191.728 213.702 192.232C213.426 192.724 213.288 193.312 213.288 193.996C213.288 194.68 213.426 195.28 213.702 195.796C213.99 196.312 214.362 196.708 214.818 196.984C215.286 197.248 215.778 197.38 216.294 197.38C216.822 197.38 217.314 197.248 217.77 196.984C218.226 196.72 218.592 196.336 218.868 195.832C219.156 195.316 219.3 194.716 219.3 194.032ZM236.071 188.92C236.851 188.92 237.547 189.082 238.159 189.406C238.783 189.73 239.269 190.21 239.617 190.846C239.977 191.482 240.157 192.25 240.157 193.15V199H238.123V193.456C238.123 192.568 237.901 191.89 237.457 191.422C237.013 190.942 236.407 190.702 235.639 190.702C234.871 190.702 234.259 190.942 233.803 191.422C233.359 191.89 233.137 192.568 233.137 193.456V199H231.103V193.456C231.103 192.568 230.881 191.89 230.437 191.422C229.993 190.942 229.387 190.702 228.619 190.702C227.851 190.702 227.239 190.942 226.783 191.422C226.339 191.89 226.117 192.568 226.117 193.456V199H224.065V189.082H226.117V190.216C226.453 189.808 226.879 189.49 227.395 189.262C227.911 189.034 228.463 188.92 229.051 188.92C229.843 188.92 230.551 189.088 231.175 189.424C231.799 189.76 232.279 190.246 232.615 190.882C232.915 190.282 233.383 189.808 234.019 189.46C234.655 189.1 235.339 188.92 236.071 188.92ZM244.82 190.54C245.168 190.084 245.642 189.7 246.242 189.388C246.842 189.076 247.52 188.92 248.276 188.92C249.14 188.92 249.926 189.136 250.634 189.568C251.354 189.988 251.918 190.582 252.326 191.35C252.734 192.118 252.938 193 252.938 193.996C252.938 194.992 252.734 195.886 252.326 196.678C251.918 197.458 251.354 198.07 250.634 198.514C249.926 198.946 249.14 199.162 248.276 199.162C247.52 199.162 246.848 199.012 246.26 198.712C245.672 198.4 245.192 198.016 244.82 197.56V203.716H242.768V189.082H244.82V190.54ZM250.85 193.996C250.85 193.312 250.706 192.724 250.418 192.232C250.142 191.728 249.77 191.35 249.302 191.098C248.846 190.834 248.354 190.702 247.826 190.702C247.31 190.702 246.818 190.834 246.35 191.098C245.894 191.362 245.522 191.746 245.234 192.25C244.958 192.754 244.82 193.348 244.82 194.032C244.82 194.716 244.958 195.316 245.234 195.832C245.522 196.336 245.894 196.72 246.35 196.984C246.818 197.248 247.31 197.38 247.826 197.38C248.354 197.38 248.846 197.248 249.302 196.984C249.77 196.708 250.142 196.312 250.418 195.796C250.706 195.28 250.85 194.68 250.85 193.996ZM254.283 193.996C254.283 193 254.487 192.118 254.895 191.35C255.315 190.582 255.879 189.988 256.587 189.568C257.307 189.136 258.099 188.92 258.963 188.92C259.743 188.92 260.421 189.076 260.997 189.388C261.585 189.688 262.053 190.066 262.401 190.522V189.082H264.471V199H262.401V197.524C262.053 197.992 261.579 198.382 260.979 198.694C260.379 199.006 259.695 199.162 258.927 199.162C258.075 199.162 257.295 198.946 256.587 198.514C255.879 198.07 255.315 197.458 254.895 196.678C254.487 195.886 254.283 194.992 254.283 193.996ZM262.401 194.032C262.401 193.348 262.257 192.754 261.969 192.25C261.693 191.746 261.327 191.362 260.871 191.098C260.415 190.834 259.923 190.702 259.395 190.702C258.867 190.702 258.375 190.834 257.919 191.098C257.463 191.35 257.091 191.728 256.803 192.232C256.527 192.724 256.389 193.312 256.389 193.996C256.389 194.68 256.527 195.28 256.803 195.796C257.091 196.312 257.463 196.708 257.919 196.984C258.387 197.248 258.879 197.38 259.395 197.38C259.923 197.38 260.415 197.248 260.871 196.984C261.327 196.72 261.693 196.336 261.969 195.832C262.257 195.316 262.401 194.716 262.401 194.032ZM268.21 187.768C267.838 187.768 267.526 187.642 267.274 187.39C267.022 187.138 266.896 186.826 266.896 186.454C266.896 186.082 267.022 185.77 267.274 185.518C267.526 185.266 267.838 185.14 268.21 185.14C268.57 185.14 268.876 185.266 269.128 185.518C269.38 185.77 269.506 186.082 269.506 186.454C269.506 186.826 269.38 187.138 269.128 187.39C268.876 187.642 268.57 187.768 268.21 187.768ZM269.218 189.082V199H267.166V189.082H269.218ZM275.909 188.92C276.677 188.92 277.355 189.076 277.943 189.388C278.543 189.688 279.011 190.066 279.347 190.522V189.082H281.417V199.162C281.417 200.074 281.225 200.884 280.841 201.592C280.457 202.312 279.899 202.876 279.167 203.284C278.447 203.692 277.583 203.896 276.575 203.896C275.231 203.896 274.115 203.578 273.227 202.942C272.339 202.318 271.835 201.466 271.715 200.386H273.749C273.905 200.902 274.235 201.316 274.739 201.628C275.255 201.952 275.867 202.114 276.575 202.114C277.403 202.114 278.069 201.862 278.573 201.358C279.089 200.854 279.347 200.122 279.347 199.162V197.506C278.999 197.974 278.525 198.37 277.925 198.694C277.337 199.006 276.665 199.162 275.909 199.162C275.045 199.162 274.253 198.946 273.533 198.514C272.825 198.07 272.261 197.458 271.841 196.678C271.433 195.886 271.229 194.992 271.229 193.996C271.229 193 271.433 192.118 271.841 191.35C272.261 190.582 272.825 189.988 273.533 189.568C274.253 189.136 275.045 188.92 275.909 188.92ZM279.347 194.032C279.347 193.348 279.203 192.754 278.915 192.25C278.639 191.746 278.273 191.362 277.817 191.098C277.361 190.834 276.869 190.702 276.341 190.702C275.813 190.702 275.321 190.834 274.865 191.098C274.409 191.35 274.037 191.728 273.749 192.232C273.473 192.724 273.335 193.312 273.335 193.996C273.335 194.68 273.473 195.28 273.749 195.796C274.037 196.312 274.409 196.708 274.865 196.984C275.333 197.248 275.825 197.38 276.341 197.38C276.869 197.38 277.361 197.248 277.817 196.984C278.273 196.72 278.639 196.336 278.915 195.832C279.203 195.316 279.347 194.716 279.347 194.032ZM289.116 188.92C289.896 188.92 290.592 189.082 291.204 189.406C291.828 189.73 292.314 190.21 292.662 190.846C293.01 191.482 293.184 192.25 293.184 193.15V199H291.15V193.456C291.15 192.568 290.928 191.89 290.484 191.422C290.04 190.942 289.434 190.702 288.666 190.702C287.898 190.702 287.286 190.942 286.83 191.422C286.386 191.89 286.164 192.568 286.164 193.456V199H284.112V189.082H286.164V190.216C286.5 189.808 286.926 189.49 287.442 189.262C287.97 189.034 288.528 188.92 289.116 188.92ZM299.401 199.162C298.621 199.162 297.919 199.024 297.295 198.748C296.683 198.46 296.197 198.076 295.837 197.596C295.477 197.104 295.285 196.558 295.261 195.958H297.385C297.421 196.378 297.619 196.732 297.979 197.02C298.351 197.296 298.813 197.434 299.365 197.434C299.941 197.434 300.385 197.326 300.697 197.11C301.021 196.882 301.183 196.594 301.183 196.246C301.183 195.874 301.003 195.598 300.643 195.418C300.295 195.238 299.737 195.04 298.969 194.824C298.225 194.62 297.619 194.422 297.151 194.23C296.683 194.038 296.275 193.744 295.927 193.348C295.591 192.952 295.423 192.43 295.423 191.782C295.423 191.254 295.579 190.774 295.891 190.342C296.203 189.898 296.647 189.55 297.223 189.298C297.811 189.046 298.483 188.92 299.239 188.92C300.367 188.92 301.273 189.208 301.957 189.784C302.653 190.348 303.025 191.122 303.073 192.106H301.021C300.985 191.662 300.805 191.308 300.481 191.044C300.157 190.78 299.719 190.648 299.167 190.648C298.627 190.648 298.213 190.75 297.925 190.954C297.637 191.158 297.493 191.428 297.493 191.764C297.493 192.028 297.589 192.25 297.781 192.43C297.973 192.61 298.207 192.754 298.483 192.862C298.759 192.958 299.167 193.084 299.707 193.24C300.427 193.432 301.015 193.63 301.471 193.834C301.939 194.026 302.341 194.314 302.677 194.698C303.013 195.082 303.187 195.592 303.199 196.228C303.199 196.792 303.043 197.296 302.731 197.74C302.419 198.184 301.975 198.532 301.399 198.784C300.835 199.036 300.169 199.162 299.401 199.162ZM3.744 224.756V230.246C3.744 230.618 3.828 230.888 3.996 231.056C4.176 231.212 4.476 231.29 4.896 231.29H6.156V233H4.536C3.612 233 2.904 232.784 2.412 232.352C1.92 231.92 1.674 231.218 1.674 230.246V224.756H0.504V223.082H1.674V220.616H3.744V223.082H6.156V224.756H3.744ZM13.1773 222.92C13.9333 222.92 14.6053 223.082 15.1933 223.406C15.7933 223.73 16.2613 224.21 16.5973 224.846C16.9453 225.482 17.1193 226.25 17.1193 227.15V233H15.0853V227.456C15.0853 226.568 14.8633 225.89 14.4193 225.422C13.9753 224.942 13.3693 224.702 12.6013 224.702C11.8333 224.702 11.2213 224.942 10.7653 225.422C10.3213 225.89 10.0993 226.568 10.0993 227.456V233H8.04727V219.68H10.0993V224.234C10.4473 223.814 10.8853 223.49 11.4133 223.262C11.9533 223.034 12.5413 222.92 13.1773 222.92ZM19.0527 227.996C19.0527 227 19.2567 226.118 19.6647 225.35C20.0847 224.582 20.6487 223.988 21.3567 223.568C22.0767 223.136 22.8687 222.92 23.7327 222.92C24.5127 222.92 25.1907 223.076 25.7667 223.388C26.3547 223.688 26.8227 224.066 27.1707 224.522V223.082H29.2407V233H27.1707V231.524C26.8227 231.992 26.3487 232.382 25.7487 232.694C25.1487 233.006 24.4647 233.162 23.6967 233.162C22.8447 233.162 22.0647 232.946 21.3567 232.514C20.6487 232.07 20.0847 231.458 19.6647 230.678C19.2567 229.886 19.0527 228.992 19.0527 227.996ZM27.1707 228.032C27.1707 227.348 27.0267 226.754 26.7387 226.25C26.4627 225.746 26.0967 225.362 25.6407 225.098C25.1847 224.834 24.6927 224.702 24.1647 224.702C23.6367 224.702 23.1447 224.834 22.6887 225.098C22.2327 225.35 21.8607 225.728 21.5727 226.232C21.2967 226.724 21.1587 227.312 21.1587 227.996C21.1587 228.68 21.2967 229.28 21.5727 229.796C21.8607 230.312 22.2327 230.708 22.6887 230.984C23.1567 231.248 23.6487 231.38 24.1647 231.38C24.6927 231.38 25.1847 231.248 25.6407 230.984C26.0967 230.72 26.4627 230.336 26.7387 229.832C27.0267 229.316 27.1707 228.716 27.1707 228.032ZM34.3299 224.756V230.246C34.3299 230.618 34.4139 230.888 34.5819 231.056C34.7619 231.212 35.0619 231.29 35.4819 231.29H36.7419V233H35.1219C34.1979 233 33.4899 232.784 32.9979 232.352C32.5059 231.92 32.2599 231.218 32.2599 230.246V224.756H31.0899V223.082H32.2599V220.616H34.3299V223.082H36.7419V224.756H34.3299ZM45.361 224.522C45.661 224.018 46.057 223.628 46.549 223.352C47.053 223.064 47.647 222.92 48.331 222.92V225.044H47.809C47.005 225.044 46.393 225.248 45.973 225.656C45.565 226.064 45.361 226.772 45.361 227.78V233H43.309V223.082H45.361V224.522ZM59.3072 227.798C59.3072 228.17 59.2832 228.506 59.2352 228.806H51.6572C51.7172 229.598 52.0112 230.234 52.5392 230.714C53.0672 231.194 53.7152 231.434 54.4832 231.434C55.5872 231.434 56.3672 230.972 56.8232 230.048H59.0372C58.7372 230.96 58.1912 231.71 57.3992 232.298C56.6192 232.874 55.6472 233.162 54.4832 233.162C53.5352 233.162 52.6832 232.952 51.9272 232.532C51.1832 232.1 50.5952 231.5 50.1632 230.732C49.7432 229.952 49.5332 229.052 49.5332 228.032C49.5332 227.012 49.7372 226.118 50.1452 225.35C50.5652 224.57 51.1472 223.97 51.8912 223.55C52.6472 223.13 53.5112 222.92 54.4832 222.92C55.4192 222.92 56.2532 223.124 56.9852 223.532C57.7172 223.94 58.2872 224.516 58.6952 225.26C59.1032 225.992 59.3072 226.838 59.3072 227.798ZM57.1652 227.15C57.1532 226.394 56.8832 225.788 56.3552 225.332C55.8272 224.876 55.1732 224.648 54.3932 224.648C53.6852 224.648 53.0792 224.876 52.5752 225.332C52.0712 225.776 51.7712 226.382 51.6752 227.15H57.1652ZM64.9266 233.162C64.1466 233.162 63.4446 233.024 62.8206 232.748C62.2086 232.46 61.7226 232.076 61.3626 231.596C61.0026 231.104 60.8106 230.558 60.7866 229.958H62.9106C62.9466 230.378 63.1446 230.732 63.5046 231.02C63.8766 231.296 64.3386 231.434 64.8906 231.434C65.4666 231.434 65.9106 231.326 66.2226 231.11C66.5466 230.882 66.7086 230.594 66.7086 230.246C66.7086 229.874 66.5286 229.598 66.1686 229.418C65.8206 229.238 65.2626 229.04 64.4946 228.824C63.7506 228.62 63.1446 228.422 62.6766 228.23C62.2086 228.038 61.8006 227.744 61.4526 227.348C61.1166 226.952 60.9486 226.43 60.9486 225.782C60.9486 225.254 61.1046 224.774 61.4166 224.342C61.7286 223.898 62.1726 223.55 62.7486 223.298C63.3366 223.046 64.0086 222.92 64.7646 222.92C65.8926 222.92 66.7986 223.208 67.4826 223.784C68.1786 224.348 68.5506 225.122 68.5986 226.106H66.5466C66.5106 225.662 66.3306 225.308 66.0066 225.044C65.6826 224.78 65.2446 224.648 64.6926 224.648C64.1526 224.648 63.7386 224.75 63.4506 224.954C63.1626 225.158 63.0186 225.428 63.0186 225.764C63.0186 226.028 63.1146 226.25 63.3066 226.43C63.4986 226.61 63.7326 226.754 64.0086 226.862C64.2846 226.958 64.6926 227.084 65.2326 227.24C65.9526 227.432 66.5406 227.63 66.9966 227.834C67.4646 228.026 67.8666 228.314 68.2026 228.698C68.5386 229.082 68.7126 229.592 68.7246 230.228C68.7246 230.792 68.5686 231.296 68.2566 231.74C67.9446 232.184 67.5006 232.532 66.9246 232.784C66.3606 233.036 65.6946 233.162 64.9266 233.162ZM75.2438 233.162C74.3078 233.162 73.4618 232.952 72.7058 232.532C71.9498 232.1 71.3558 231.5 70.9238 230.732C70.4918 229.952 70.2758 229.052 70.2758 228.032C70.2758 227.024 70.4978 226.13 70.9418 225.35C71.3858 224.57 71.9918 223.97 72.7598 223.55C73.5278 223.13 74.3858 222.92 75.3338 222.92C76.2818 222.92 77.1398 223.13 77.9078 223.55C78.6758 223.97 79.2818 224.57 79.7258 225.35C80.1698 226.13 80.3918 227.024 80.3918 228.032C80.3918 229.04 80.1638 229.934 79.7078 230.714C79.2518 231.494 78.6278 232.1 77.8358 232.532C77.0558 232.952 76.1918 233.162 75.2438 233.162ZM75.2438 231.38C75.7718 231.38 76.2638 231.254 76.7198 231.002C77.1878 230.75 77.5658 230.372 77.8538 229.868C78.1418 229.364 78.2858 228.752 78.2858 228.032C78.2858 227.312 78.1478 226.706 77.8718 226.214C77.5958 225.71 77.2298 225.332 76.7738 225.08C76.3178 224.828 75.8258 224.702 75.2978 224.702C74.7698 224.702 74.2778 224.828 73.8218 225.08C73.3778 225.332 73.0238 225.71 72.7598 226.214C72.4958 226.706 72.3638 227.312 72.3638 228.032C72.3638 229.1 72.6338 229.928 73.1738 230.516C73.7258 231.092 74.4158 231.38 75.2438 231.38ZM87.4243 222.92C88.2043 222.92 88.9003 223.082 89.5123 223.406C90.1363 223.73 90.6223 224.21 90.9703 224.846C91.3183 225.482 91.4923 226.25 91.4923 227.15V233H89.4583V227.456C89.4583 226.568 89.2363 225.89 88.7923 225.422C88.3483 224.942 87.7423 224.702 86.9743 224.702C86.2063 224.702 85.5943 224.942 85.1383 225.422C84.6943 225.89 84.4723 226.568 84.4723 227.456V233H82.4203V223.082H84.4723V224.216C84.8083 223.808 85.2343 223.49 85.7503 223.262C86.2783 223.034 86.8363 222.92 87.4243 222.92ZM93.4258 227.996C93.4258 227 93.6298 226.118 94.0378 225.35C94.4578 224.582 95.0218 223.988 95.7298 223.568C96.4498 223.136 97.2418 222.92 98.1058 222.92C98.8858 222.92 99.5638 223.076 100.14 223.388C100.728 223.688 101.196 224.066 101.544 224.522V223.082H103.614V233H101.544V231.524C101.196 231.992 100.722 232.382 100.122 232.694C99.5218 233.006 98.8378 233.162 98.0698 233.162C97.2178 233.162 96.4378 232.946 95.7298 232.514C95.0218 232.07 94.4578 231.458 94.0378 230.678C93.6298 229.886 93.4258 228.992 93.4258 227.996ZM101.544 228.032C101.544 227.348 101.4 226.754 101.112 226.25C100.836 225.746 100.47 225.362 100.014 225.098C99.5578 224.834 99.0658 224.702 98.5378 224.702C98.0098 224.702 97.5178 224.834 97.0618 225.098C96.6058 225.35 96.2338 225.728 95.9458 226.232C95.6698 226.724 95.5318 227.312 95.5318 227.996C95.5318 228.68 95.6698 229.28 95.9458 229.796C96.2338 230.312 96.6058 230.708 97.0618 230.984C97.5298 231.248 98.0218 231.38 98.5378 231.38C99.0658 231.38 99.5578 231.248 100.014 230.984C100.47 230.72 100.836 230.336 101.112 229.832C101.4 229.316 101.544 228.716 101.544 228.032ZM108.703 224.756V230.246C108.703 230.618 108.787 230.888 108.955 231.056C109.135 231.212 109.435 231.29 109.855 231.29H111.115V233H109.495C108.571 233 107.863 232.784 107.371 232.352C106.879 231.92 106.633 231.218 106.633 230.246V224.756H105.463V223.082H106.633V220.616H108.703V223.082H111.115V224.756H108.703ZM122.096 227.798C122.096 228.17 122.072 228.506 122.024 228.806H114.446C114.506 229.598 114.8 230.234 115.328 230.714C115.856 231.194 116.504 231.434 117.272 231.434C118.376 231.434 119.156 230.972 119.612 230.048H121.826C121.526 230.96 120.98 231.71 120.188 232.298C119.408 232.874 118.436 233.162 117.272 233.162C116.324 233.162 115.472 232.952 114.716 232.532C113.972 232.1 113.384 231.5 112.952 230.732C112.532 229.952 112.322 229.052 112.322 228.032C112.322 227.012 112.526 226.118 112.934 225.35C113.354 224.57 113.936 223.97 114.68 223.55C115.436 223.13 116.3 222.92 117.272 222.92C118.208 222.92 119.042 223.124 119.774 223.532C120.506 223.94 121.076 224.516 121.484 225.26C121.892 225.992 122.096 226.838 122.096 227.798ZM119.954 227.15C119.942 226.394 119.672 225.788 119.144 225.332C118.616 224.876 117.962 224.648 117.182 224.648C116.474 224.648 115.868 224.876 115.364 225.332C114.86 225.776 114.56 226.382 114.464 227.15H119.954ZM142.111 223.082L139.033 233H136.873L134.875 225.674L132.877 233H130.717L127.621 223.082H129.709L131.779 231.056L133.885 223.082H136.027L138.043 231.02L140.095 223.082H142.111ZM144.689 221.768C144.317 221.768 144.005 221.642 143.753 221.39C143.501 221.138 143.375 220.826 143.375 220.454C143.375 220.082 143.501 219.77 143.753 219.518C144.005 219.266 144.317 219.14 144.689 219.14C145.049 219.14 145.355 219.266 145.607 219.518C145.859 219.77 145.985 220.082 145.985 220.454C145.985 220.826 145.859 221.138 145.607 221.39C145.355 221.642 145.049 221.768 144.689 221.768ZM145.697 223.082V233H143.645V223.082H145.697ZM150.785 224.756V230.246C150.785 230.618 150.869 230.888 151.037 231.056C151.217 231.212 151.517 231.29 151.937 231.29H153.197V233H151.577C150.653 233 149.945 232.784 149.453 232.352C148.961 231.92 148.715 231.218 148.715 230.246V224.756H147.545V223.082H148.715V220.616H150.785V223.082H153.197V224.756H150.785ZM160.218 222.92C160.974 222.92 161.646 223.082 162.234 223.406C162.834 223.73 163.302 224.21 163.638 224.846C163.986 225.482 164.16 226.25 164.16 227.15V233H162.126V227.456C162.126 226.568 161.904 225.89 161.46 225.422C161.016 224.942 160.41 224.702 159.642 224.702C158.874 224.702 158.262 224.942 157.806 225.422C157.362 225.89 157.14 226.568 157.14 227.456V233H155.088V219.68H157.14V224.234C157.488 223.814 157.926 223.49 158.454 223.262C158.994 223.034 159.582 222.92 160.218 222.92ZM180.382 223.082L174.298 237.662H172.174L174.19 232.838L170.284 223.082H172.57L175.36 230.642L178.258 223.082H180.382ZM186.232 233.162C185.296 233.162 184.45 232.952 183.694 232.532C182.938 232.1 182.344 231.5 181.912 230.732C181.48 229.952 181.264 229.052 181.264 228.032C181.264 227.024 181.486 226.13 181.93 225.35C182.374 224.57 182.98 223.97 183.748 223.55C184.516 223.13 185.374 222.92 186.322 222.92C187.27 222.92 188.128 223.13 188.896 223.55C189.664 223.97 190.27 224.57 190.714 225.35C191.158 226.13 191.38 227.024 191.38 228.032C191.38 229.04 191.152 229.934 190.696 230.714C190.24 231.494 189.616 232.1 188.824 232.532C188.044 232.952 187.18 233.162 186.232 233.162ZM186.232 231.38C186.76 231.38 187.252 231.254 187.708 231.002C188.176 230.75 188.554 230.372 188.842 229.868C189.13 229.364 189.274 228.752 189.274 228.032C189.274 227.312 189.136 226.706 188.86 226.214C188.584 225.71 188.218 225.332 187.762 225.08C187.306 224.828 186.814 224.702 186.286 224.702C185.758 224.702 185.266 224.828 184.81 225.08C184.366 225.332 184.012 225.71 183.748 226.214C183.484 226.706 183.352 227.312 183.352 228.032C183.352 229.1 183.622 229.928 184.162 230.516C184.714 231.092 185.404 231.38 186.232 231.38ZM202.391 223.082V233H200.339V231.83C200.015 232.238 199.589 232.562 199.061 232.802C198.545 233.03 197.993 233.144 197.405 233.144C196.625 233.144 195.923 232.982 195.299 232.658C194.687 232.334 194.201 231.854 193.841 231.218C193.493 230.582 193.319 229.814 193.319 228.914V223.082H195.353V228.608C195.353 229.496 195.575 230.18 196.019 230.66C196.463 231.128 197.069 231.362 197.837 231.362C198.605 231.362 199.211 231.128 199.655 230.66C200.111 230.18 200.339 229.496 200.339 228.608V223.082H202.391ZM207.15 224.522C207.45 224.018 207.846 223.628 208.338 223.352C208.842 223.064 209.436 222.92 210.12 222.92V225.044H209.598C208.794 225.044 208.182 225.248 207.762 225.656C207.354 226.064 207.15 226.772 207.15 227.78V233H205.098V223.082H207.15V224.522ZM215.998 227.996C215.998 227 216.202 226.118 216.61 225.35C217.03 224.582 217.594 223.988 218.302 223.568C219.022 223.136 219.814 222.92 220.678 222.92C221.458 222.92 222.136 223.076 222.712 223.388C223.3 223.688 223.768 224.066 224.116 224.522V223.082H226.186V233H224.116V231.524C223.768 231.992 223.294 232.382 222.694 232.694C222.094 233.006 221.41 233.162 220.642 233.162C219.79 233.162 219.01 232.946 218.302 232.514C217.594 232.07 217.03 231.458 216.61 230.678C216.202 229.886 215.998 228.992 215.998 227.996ZM224.116 228.032C224.116 227.348 223.972 226.754 223.684 226.25C223.408 225.746 223.042 225.362 222.586 225.098C222.13 224.834 221.638 224.702 221.11 224.702C220.582 224.702 220.09 224.834 219.634 225.098C219.178 225.35 218.806 225.728 218.518 226.232C218.242 226.724 218.104 227.312 218.104 227.996C218.104 228.68 218.242 229.28 218.518 229.796C218.806 230.312 219.178 230.708 219.634 230.984C220.102 231.248 220.594 231.38 221.11 231.38C221.638 231.38 222.13 231.248 222.586 230.984C223.042 230.72 223.408 230.336 223.684 229.832C223.972 229.316 224.116 228.716 224.116 228.032ZM237.863 223.082V233H235.811V231.83C235.487 232.238 235.061 232.562 234.533 232.802C234.017 233.03 233.465 233.144 232.877 233.144C232.097 233.144 231.395 232.982 230.771 232.658C230.159 232.334 229.673 231.854 229.313 231.218C228.965 230.582 228.791 229.814 228.791 228.914V223.082H230.825V228.608C230.825 229.496 231.047 230.18 231.491 230.66C231.935 231.128 232.541 231.362 233.309 231.362C234.077 231.362 234.683 231.128 235.127 230.66C235.583 230.18 235.811 229.496 235.811 228.608V223.082H237.863ZM239.887 227.996C239.887 227 240.091 226.118 240.499 225.35C240.919 224.582 241.483 223.988 242.191 223.568C242.911 223.136 243.709 222.92 244.585 222.92C245.233 222.92 245.869 223.064 246.493 223.352C247.129 223.628 247.633 224 248.005 224.468V219.68H250.075V233H248.005V231.506C247.669 231.986 247.201 232.382 246.601 232.694C246.013 233.006 245.335 233.162 244.567 233.162C243.703 233.162 242.911 232.946 242.191 232.514C241.483 232.07 240.919 231.458 240.499 230.678C240.091 229.886 239.887 228.992 239.887 227.996ZM248.005 228.032C248.005 227.348 247.861 226.754 247.573 226.25C247.297 225.746 246.931 225.362 246.475 225.098C246.019 224.834 245.527 224.702 244.999 224.702C244.471 224.702 243.979 224.834 243.523 225.098C243.067 225.35 242.695 225.728 242.407 226.232C242.131 226.724 241.993 227.312 241.993 227.996C241.993 228.68 242.131 229.28 242.407 229.796C242.695 230.312 243.067 230.708 243.523 230.984C243.991 231.248 244.483 231.38 244.999 231.38C245.527 231.38 246.019 231.248 246.475 230.984C246.931 230.72 247.297 230.336 247.573 229.832C247.861 229.316 248.005 228.716 248.005 228.032ZM253.814 221.768C253.442 221.768 253.13 221.642 252.878 221.39C252.626 221.138 252.5 220.826 252.5 220.454C252.5 220.082 252.626 219.77 252.878 219.518C253.13 219.266 253.442 219.14 253.814 219.14C254.174 219.14 254.48 219.266 254.732 219.518C254.984 219.77 255.11 220.082 255.11 220.454C255.11 220.826 254.984 221.138 254.732 221.39C254.48 221.642 254.174 221.768 253.814 221.768ZM254.822 223.082V233H252.77V223.082H254.822ZM266.606 227.798C266.606 228.17 266.582 228.506 266.534 228.806H258.956C259.016 229.598 259.31 230.234 259.838 230.714C260.366 231.194 261.014 231.434 261.782 231.434C262.886 231.434 263.666 230.972 264.122 230.048H266.336C266.036 230.96 265.49 231.71 264.698 232.298C263.918 232.874 262.946 233.162 261.782 233.162C260.834 233.162 259.982 232.952 259.226 232.532C258.482 232.1 257.894 231.5 257.462 230.732C257.042 229.952 256.832 229.052 256.832 228.032C256.832 227.012 257.036 226.118 257.444 225.35C257.864 224.57 258.446 223.97 259.19 223.55C259.946 223.13 260.81 222.92 261.782 222.92C262.718 222.92 263.552 223.124 264.284 223.532C265.016 223.94 265.586 224.516 265.994 225.26C266.402 225.992 266.606 226.838 266.606 227.798ZM264.464 227.15C264.452 226.394 264.182 225.788 263.654 225.332C263.126 224.876 262.472 224.648 261.692 224.648C260.984 224.648 260.378 224.876 259.874 225.332C259.37 225.776 259.07 226.382 258.974 227.15H264.464ZM273.629 222.92C274.409 222.92 275.105 223.082 275.717 223.406C276.341 223.73 276.827 224.21 277.175 224.846C277.523 225.482 277.697 226.25 277.697 227.15V233H275.663V227.456C275.663 226.568 275.441 225.89 274.997 225.422C274.553 224.942 273.947 224.702 273.179 224.702C272.411 224.702 271.799 224.942 271.343 225.422C270.899 225.89 270.677 226.568 270.677 227.456V233H268.625V223.082H270.677V224.216C271.013 223.808 271.439 223.49 271.955 223.262C272.483 223.034 273.041 222.92 273.629 222.92ZM279.631 228.032C279.631 227.012 279.835 226.118 280.243 225.35C280.663 224.57 281.239 223.97 281.971 223.55C282.703 223.13 283.543 222.92 284.491 222.92C285.691 222.92 286.681 223.208 287.461 223.784C288.253 224.348 288.787 225.158 289.063 226.214H286.849C286.669 225.722 286.381 225.338 285.985 225.062C285.589 224.786 285.091 224.648 284.491 224.648C283.651 224.648 282.979 224.948 282.475 225.548C281.983 226.136 281.737 226.964 281.737 228.032C281.737 229.1 281.983 229.934 282.475 230.534C282.979 231.134 283.651 231.434 284.491 231.434C285.679 231.434 286.465 230.912 286.849 229.868H289.063C288.775 230.876 288.235 231.68 287.443 232.28C286.651 232.868 285.667 233.162 284.491 233.162C283.543 233.162 282.703 232.952 281.971 232.532C281.239 232.1 280.663 231.5 280.243 230.732C279.835 229.952 279.631 229.052 279.631 228.032ZM300.198 227.798C300.198 228.17 300.174 228.506 300.126 228.806H292.548C292.608 229.598 292.902 230.234 293.43 230.714C293.958 231.194 294.606 231.434 295.374 231.434C296.478 231.434 297.258 230.972 297.714 230.048H299.928C299.628 230.96 299.082 231.71 298.29 232.298C297.51 232.874 296.538 233.162 295.374 233.162C294.426 233.162 293.574 232.952 292.818 232.532C292.074 232.1 291.486 231.5 291.054 230.732C290.634 229.952 290.424 229.052 290.424 228.032C290.424 227.012 290.628 226.118 291.036 225.35C291.456 224.57 292.038 223.97 292.782 223.55C293.538 223.13 294.402 222.92 295.374 222.92C296.31 222.92 297.144 223.124 297.876 223.532C298.608 223.94 299.178 224.516 299.586 225.26C299.994 225.992 300.198 226.838 300.198 227.798ZM298.056 227.15C298.044 226.394 297.774 225.788 297.246 225.332C296.718 224.876 296.064 224.648 295.284 224.648C294.576 224.648 293.97 224.876 293.466 225.332C292.962 225.776 292.662 226.382 292.566 227.15H298.056Z" fill="white" fill-opacity="0.8"/>
</svg>
