<svg width="417" height="88" viewBox="0 0 417 88" fill="none" xmlns="http://www.w3.org/2000/svg">
<path d="M132.304 21.576C133.499 21.7893 134.512 22.4187 135.344 23.464C136.176 24.5093 136.592 25.6933 136.592 27.016C136.592 28.1467 136.293 29.1707 135.696 30.088C135.12 30.984 134.277 31.6987 133.168 32.232C132.059 32.744 130.768 33 129.296 33H120.4V10.76H128.88C130.395 10.76 131.696 11.016 132.784 11.528C133.872 12.04 134.693 12.7333 135.248 13.608C135.803 14.4613 136.08 15.4213 136.08 16.488C136.08 17.768 135.739 18.8347 135.056 19.688C134.373 20.5413 133.456 21.1707 132.304 21.576ZM124.048 20.104H128.56C129.755 20.104 130.683 19.8373 131.344 19.304C132.027 18.7493 132.368 17.96 132.368 16.936C132.368 15.9333 132.027 15.1547 131.344 14.6C130.683 14.024 129.755 13.736 128.56 13.736H124.048V20.104ZM128.976 30.024C130.213 30.024 131.184 29.7253 131.888 29.128C132.592 28.5307 132.944 27.6987 132.944 26.632C132.944 25.544 132.571 24.68 131.824 24.04C131.077 23.4 130.085 23.08 128.848 23.08H124.048V30.024H128.976ZM144.204 17.928C144.738 17.032 145.442 16.3387 146.316 15.848C147.212 15.336 148.268 15.08 149.484 15.08V18.856H148.556C147.127 18.856 146.039 19.2187 145.292 19.944C144.567 20.6693 144.204 21.928 144.204 23.72V33H140.556V15.368H144.204V17.928ZM151.622 24.104C151.622 22.3333 151.984 20.7653 152.71 19.4C153.456 18.0347 154.459 16.9787 155.718 16.232C156.998 15.464 158.406 15.08 159.942 15.08C161.328 15.08 162.534 15.3573 163.558 15.912C164.603 16.4453 165.435 17.1173 166.054 17.928V15.368H169.734V33H166.054V30.376C165.435 31.208 164.592 31.9013 163.526 32.456C162.459 33.0107 161.243 33.288 159.878 33.288C158.363 33.288 156.976 32.904 155.718 32.136C154.459 31.3467 153.456 30.2587 152.71 28.872C151.984 27.464 151.622 25.8747 151.622 24.104ZM166.054 24.168C166.054 22.952 165.798 21.896 165.286 21C164.795 20.104 164.144 19.4213 163.334 18.952C162.523 18.4827 161.648 18.248 160.71 18.248C159.771 18.248 158.896 18.4827 158.086 18.952C157.275 19.4 156.614 20.072 156.102 20.968C155.611 21.8427 155.366 22.888 155.366 24.104C155.366 25.32 155.611 26.3867 156.102 27.304C156.614 28.2213 157.275 28.9253 158.086 29.416C158.918 29.8853 159.792 30.12 160.71 30.12C161.648 30.12 162.523 29.8853 163.334 29.416C164.144 28.9467 164.795 28.264 165.286 27.368C165.798 26.4507 166.054 25.384 166.054 24.168ZM183.421 15.08C184.808 15.08 186.045 15.368 187.133 15.944C188.242 16.52 189.106 17.3733 189.725 18.504C190.344 19.6347 190.653 21 190.653 22.6V33H187.037V23.144C187.037 21.5653 186.642 20.36 185.853 19.528C185.064 18.6747 183.986 18.248 182.621 18.248C181.256 18.248 180.168 18.6747 179.357 19.528C178.568 20.36 178.173 21.5653 178.173 23.144V33H174.525V15.368H178.173V17.384C178.77 16.6587 179.528 16.0933 180.445 15.688C181.384 15.2827 182.376 15.08 183.421 15.08ZM194.09 24.104C194.09 22.3333 194.453 20.7653 195.178 19.4C195.925 18.0347 196.928 16.9787 198.186 16.232C199.466 15.464 200.885 15.08 202.442 15.08C203.594 15.08 204.725 15.336 205.834 15.848C206.965 16.3387 207.861 17 208.522 17.832V9.32H212.202V33H208.522V30.344C207.925 31.1973 207.093 31.9013 206.026 32.456C204.981 33.0107 203.776 33.288 202.41 33.288C200.874 33.288 199.466 32.904 198.186 32.136C196.928 31.3467 195.925 30.2587 195.178 28.872C194.453 27.464 194.09 25.8747 194.09 24.104ZM208.522 24.168C208.522 22.952 208.266 21.896 207.754 21C207.264 20.104 206.613 19.4213 205.802 18.952C204.992 18.4827 204.117 18.248 203.178 18.248C202.24 18.248 201.365 18.4827 200.554 18.952C199.744 19.4 199.082 20.072 198.57 20.968C198.08 21.8427 197.834 22.888 197.834 24.104C197.834 25.32 198.08 26.3867 198.57 27.304C199.082 28.2213 199.744 28.9253 200.554 29.416C201.386 29.8853 202.261 30.12 203.178 30.12C204.117 30.12 204.992 29.8853 205.802 29.416C206.613 28.9467 207.264 28.264 207.754 27.368C208.266 26.4507 208.522 25.384 208.522 24.168ZM223.394 33.288C222.007 33.288 220.759 33.0427 219.65 32.552C218.562 32.04 217.698 31.3573 217.058 30.504C216.418 29.6293 216.076 28.6587 216.034 27.592H219.81C219.874 28.3387 220.226 28.968 220.866 29.48C221.527 29.9707 222.348 30.216 223.33 30.216C224.354 30.216 225.143 30.024 225.698 29.64C226.274 29.2347 226.562 28.7227 226.562 28.104C226.562 27.4427 226.242 26.952 225.602 26.632C224.983 26.312 223.991 25.96 222.626 25.576C221.303 25.2133 220.226 24.8613 219.394 24.52C218.562 24.1787 217.836 23.656 217.218 22.952C216.62 22.248 216.322 21.32 216.322 20.168C216.322 19.2293 216.599 18.376 217.154 17.608C217.708 16.8187 218.498 16.2 219.522 15.752C220.567 15.304 221.762 15.08 223.106 15.08C225.111 15.08 226.722 15.592 227.938 16.616C229.175 17.6187 229.836 18.9947 229.922 20.744H226.274C226.21 19.9547 225.89 19.3253 225.314 18.856C224.738 18.3867 223.959 18.152 222.978 18.152C222.018 18.152 221.282 18.3333 220.77 18.696C220.258 19.0587 220.002 19.5387 220.002 20.136C220.002 20.6053 220.172 21 220.514 21.32C220.855 21.64 221.271 21.896 221.762 22.088C222.252 22.2587 222.978 22.4827 223.938 22.76C225.218 23.1013 226.263 23.4533 227.074 23.816C227.906 24.1573 228.62 24.6693 229.218 25.352C229.815 26.0347 230.124 26.9413 230.146 28.072C230.146 29.0747 229.868 29.9707 229.314 30.76C228.759 31.5493 227.97 32.168 226.946 32.616C225.943 33.064 224.759 33.288 223.394 33.288ZM256.768 10.76V13.736H250.848V33H247.2V13.736H241.248V10.76H256.768ZM269.583 15.08C270.927 15.08 272.121 15.368 273.167 15.944C274.233 16.52 275.065 17.3733 275.663 18.504C276.281 19.6347 276.591 21 276.591 22.6V33H272.975V23.144C272.975 21.5653 272.58 20.36 271.791 19.528C271.001 18.6747 269.924 18.248 268.559 18.248C267.193 18.248 266.105 18.6747 265.295 19.528C264.505 20.36 264.111 21.5653 264.111 23.144V33H260.463V9.32H264.111V17.416C264.729 16.6693 265.508 16.0933 266.447 15.688C267.407 15.2827 268.452 15.08 269.583 15.08ZM284.892 17.928C285.425 17.032 286.129 16.3387 287.004 15.848C287.9 15.336 288.956 15.08 290.172 15.08V18.856H289.244C287.814 18.856 286.726 19.2187 285.98 19.944C285.254 20.6693 284.892 21.928 284.892 23.72V33H281.244V15.368H284.892V17.928ZM301.173 33.288C299.509 33.288 298.005 32.9147 296.661 32.168C295.317 31.4 294.261 30.3333 293.493 28.968C292.725 27.5813 292.341 25.9813 292.341 24.168C292.341 22.376 292.736 20.7867 293.525 19.4C294.314 18.0133 295.392 16.9467 296.757 16.2C298.122 15.4533 299.648 15.08 301.333 15.08C303.018 15.08 304.544 15.4533 305.909 16.2C307.274 16.9467 308.352 18.0133 309.141 19.4C309.93 20.7867 310.325 22.376 310.325 24.168C310.325 25.96 309.92 27.5493 309.109 28.936C308.298 30.3227 307.189 31.4 305.781 32.168C304.394 32.9147 302.858 33.288 301.173 33.288ZM301.173 30.12C302.112 30.12 302.986 29.896 303.797 29.448C304.629 29 305.301 28.328 305.813 27.432C306.325 26.536 306.581 25.448 306.581 24.168C306.581 22.888 306.336 21.8107 305.845 20.936C305.354 20.04 304.704 19.368 303.893 18.92C303.082 18.472 302.208 18.248 301.269 18.248C300.33 18.248 299.456 18.472 298.645 18.92C297.856 19.368 297.226 20.04 296.757 20.936C296.288 21.8107 296.053 22.888 296.053 24.168C296.053 26.0667 296.533 27.5387 297.493 28.584C298.474 29.608 299.701 30.12 301.173 30.12ZM329.899 15.368V33H326.251V30.92C325.675 31.6453 324.918 32.2213 323.979 32.648C323.062 33.0533 322.081 33.256 321.035 33.256C319.649 33.256 318.401 32.968 317.291 32.392C316.203 31.816 315.339 30.9627 314.699 29.832C314.081 28.7013 313.771 27.336 313.771 25.736V15.368H317.387V25.192C317.387 26.7707 317.782 27.9867 318.571 28.84C319.361 29.672 320.438 30.088 321.803 30.088C323.169 30.088 324.246 29.672 325.035 28.84C325.846 27.9867 326.251 26.7707 326.251 25.192V15.368H329.899ZM341.817 15.08C343.182 15.08 344.387 15.3573 345.433 15.912C346.499 16.4453 347.331 17.1173 347.929 17.928V15.368H351.609V33.288C351.609 34.9093 351.267 36.3493 350.585 37.608C349.902 38.888 348.91 39.8907 347.609 40.616C346.329 41.3413 344.793 41.704 343.001 41.704C340.611 41.704 338.627 41.1387 337.049 40.008C335.47 38.8987 334.574 37.384 334.361 35.464H337.977C338.254 36.3813 338.841 37.1173 339.737 37.672C340.654 38.248 341.742 38.536 343.001 38.536C344.473 38.536 345.657 38.088 346.553 37.192C347.47 36.296 347.929 34.9947 347.929 33.288V30.344C347.31 31.176 346.467 31.88 345.401 32.456C344.355 33.0107 343.161 33.288 341.817 33.288C340.281 33.288 338.873 32.904 337.593 32.136C336.334 31.3467 335.331 30.2587 334.585 28.872C333.859 27.464 333.497 25.8747 333.497 24.104C333.497 22.3333 333.859 20.7653 334.585 19.4C335.331 18.0347 336.334 16.9787 337.593 16.232C338.873 15.464 340.281 15.08 341.817 15.08ZM347.929 24.168C347.929 22.952 347.673 21.896 347.161 21C346.67 20.104 346.019 19.4213 345.209 18.952C344.398 18.4827 343.523 18.248 342.585 18.248C341.646 18.248 340.771 18.4827 339.961 18.952C339.15 19.4 338.489 20.072 337.977 20.968C337.486 21.8427 337.241 22.888 337.241 24.104C337.241 25.32 337.486 26.3867 337.977 27.304C338.489 28.2213 339.15 28.9253 339.961 29.416C340.793 29.8853 341.667 30.12 342.585 30.12C343.523 30.12 344.398 29.8853 345.209 29.416C346.019 28.9467 346.67 28.264 347.161 27.368C347.673 26.4507 347.929 25.384 347.929 24.168ZM365.52 15.08C366.864 15.08 368.059 15.368 369.104 15.944C370.171 16.52 371.003 17.3733 371.6 18.504C372.219 19.6347 372.528 21 372.528 22.6V33H368.912V23.144C368.912 21.5653 368.517 20.36 367.728 19.528C366.939 18.6747 365.861 18.248 364.496 18.248C363.131 18.248 362.043 18.6747 361.232 19.528C360.443 20.36 360.048 21.5653 360.048 23.144V33H356.4V9.32H360.048V17.416C360.667 16.6693 361.445 16.0933 362.384 15.688C363.344 15.2827 364.389 15.08 365.52 15.08ZM119.184 65.832C119.184 63.656 119.685 61.704 120.688 59.976C121.712 58.248 123.088 56.904 124.816 55.944C126.565 54.9627 128.475 54.472 130.544 54.472C132.912 54.472 135.013 55.0587 136.848 56.232C138.704 57.384 140.048 59.0267 140.88 61.16H136.496C135.92 59.9867 135.12 59.112 134.096 58.536C133.072 57.96 131.888 57.672 130.544 57.672C129.072 57.672 127.76 58.0027 126.608 58.664C125.456 59.3253 124.549 60.2747 123.888 61.512C123.248 62.7493 122.928 64.1893 122.928 65.832C122.928 67.4747 123.248 68.9147 123.888 70.152C124.549 71.3893 125.456 72.3493 126.608 73.032C127.76 73.6933 129.072 74.024 130.544 74.024C131.888 74.024 133.072 73.736 134.096 73.16C135.12 72.584 135.92 71.7093 136.496 70.536H140.88C140.048 72.6693 138.704 74.312 136.848 75.464C135.013 76.616 132.912 77.192 130.544 77.192C128.453 77.192 126.544 76.712 124.816 75.752C123.088 74.7707 121.712 73.416 120.688 71.688C119.685 69.96 119.184 68.008 119.184 65.832ZM148.798 61.928C149.331 61.032 150.035 60.3387 150.91 59.848C151.806 59.336 152.862 59.08 154.078 59.08V62.856H153.15C151.721 62.856 150.633 63.2187 149.886 63.944C149.161 64.6693 148.798 65.928 148.798 67.72V77H145.15V59.368H148.798V61.928ZM173.591 67.752C173.591 68.4133 173.549 69.0107 173.463 69.544H159.991C160.098 70.952 160.621 72.0827 161.559 72.936C162.498 73.7893 163.65 74.216 165.015 74.216C166.978 74.216 168.365 73.3947 169.175 71.752H173.111C172.578 73.3733 171.607 74.7067 170.199 75.752C168.813 76.776 167.085 77.288 165.015 77.288C163.33 77.288 161.815 76.9147 160.471 76.168C159.149 75.4 158.103 74.3333 157.335 72.968C156.589 71.5813 156.215 69.9813 156.215 68.168C156.215 66.3547 156.578 64.7653 157.303 63.4C158.05 62.0133 159.085 60.9467 160.407 60.2C161.751 59.4533 163.287 59.08 165.015 59.08C166.679 59.08 168.162 59.4427 169.463 60.168C170.765 60.8933 171.778 61.9173 172.503 63.24C173.229 64.5413 173.591 66.0453 173.591 67.752ZM169.783 66.6C169.762 65.256 169.282 64.1787 168.343 63.368C167.405 62.5573 166.242 62.152 164.855 62.152C163.597 62.152 162.519 62.5573 161.623 63.368C160.727 64.1573 160.194 65.2347 160.023 66.6H169.783ZM175.965 68.104C175.965 66.3333 176.328 64.7653 177.053 63.4C177.8 62.0347 178.803 60.9787 180.061 60.232C181.341 59.464 182.749 59.08 184.285 59.08C185.672 59.08 186.877 59.3573 187.901 59.912C188.947 60.4453 189.779 61.1173 190.397 61.928V59.368H194.077V77H190.397V74.376C189.779 75.208 188.936 75.9013 187.869 76.456C186.803 77.0107 185.587 77.288 184.221 77.288C182.707 77.288 181.32 76.904 180.061 76.136C178.803 75.3467 177.8 74.2587 177.053 72.872C176.328 71.464 175.965 69.8747 175.965 68.104ZM190.397 68.168C190.397 66.952 190.141 65.896 189.629 65C189.139 64.104 188.488 63.4213 187.677 62.952C186.867 62.4827 185.992 62.248 185.053 62.248C184.115 62.248 183.24 62.4827 182.429 62.952C181.619 63.4 180.957 64.072 180.445 64.968C179.955 65.8427 179.709 66.888 179.709 68.104C179.709 69.32 179.955 70.3867 180.445 71.304C180.957 72.2213 181.619 72.9253 182.429 73.416C183.261 73.8853 184.136 74.12 185.053 74.12C185.992 74.12 186.867 73.8853 187.677 73.416C188.488 72.9467 189.139 72.264 189.629 71.368C190.141 70.4507 190.397 69.384 190.397 68.168ZM203.125 62.344V72.104C203.125 72.7653 203.274 73.2453 203.573 73.544C203.893 73.8213 204.426 73.96 205.173 73.96H207.413V77H204.533C202.89 77 201.631 76.616 200.757 75.848C199.882 75.08 199.445 73.832 199.445 72.104V62.344H197.365V59.368H199.445V54.984H203.125V59.368H207.413V62.344H203.125ZM212.631 57.032C211.97 57.032 211.415 56.808 210.967 56.36C210.519 55.912 210.295 55.3573 210.295 54.696C210.295 54.0347 210.519 53.48 210.967 53.032C211.415 52.584 211.97 52.36 212.631 52.36C213.271 52.36 213.815 52.584 214.263 53.032C214.711 53.48 214.935 54.0347 214.935 54.696C214.935 55.3573 214.711 55.912 214.263 56.36C213.815 56.808 213.271 57.032 212.631 57.032ZM214.423 59.368V77H210.775V59.368H214.423ZM226.029 73.736L231.021 59.368H234.892L228.173 77H223.821L217.133 59.368H221.036L226.029 73.736ZM253.81 67.752C253.81 68.4133 253.767 69.0107 253.682 69.544H240.21C240.317 70.952 240.839 72.0827 241.778 72.936C242.717 73.7893 243.869 74.216 245.234 74.216C247.197 74.216 248.583 73.3947 249.394 71.752H253.33C252.797 73.3733 251.826 74.7067 250.418 75.752C249.031 76.776 247.303 77.288 245.234 77.288C243.549 77.288 242.034 76.9147 240.69 76.168C239.367 75.4 238.322 74.3333 237.554 72.968C236.807 71.5813 236.434 69.9813 236.434 68.168C236.434 66.3547 236.797 64.7653 237.522 63.4C238.269 62.0133 239.303 60.9467 240.626 60.2C241.97 59.4533 243.506 59.08 245.234 59.08C246.898 59.08 248.381 59.4427 249.682 60.168C250.983 60.8933 251.997 61.9173 252.722 63.24C253.447 64.5413 253.81 66.0453 253.81 67.752ZM250.002 66.6C249.981 65.256 249.501 64.1787 248.562 63.368C247.623 62.5573 246.461 62.152 245.074 62.152C243.815 62.152 242.738 62.5573 241.842 63.368C240.946 64.1573 240.413 65.2347 240.242 66.6H250.002Z" fill="white"/>
<rect width="88" height="84" rx="13" fill="#11F2BE" fill-opacity="0.12"/>
<mask id="mask0_6_189" style="mask-type:alpha" maskUnits="userSpaceOnUse" x="11" y="9" width="66" height="66">
<rect x="11.3333" y="9.33325" width="65.3333" height="65.3333" fill="#D9D9D9"/>
</mask>
<g mask="url(#mask0_6_189)">
<path d="M41.2777 63.7777H26.6199C25.3668 63.7777 24.3205 63.3581 23.4812 62.5187C22.6418 61.6793 22.2221 60.6331 22.2221 59.38V24.6199C22.2221 23.3668 22.6418 22.3205 23.4812 21.4812C24.3205 20.6418 25.3668 20.2222 26.6199 20.2222H41.2777V63.7777ZM46.7221 39.2777V20.2222H61.3799C62.6331 20.2222 63.6793 20.6418 64.5187 21.4812C65.358 22.3205 65.7777 23.3668 65.7777 24.6199V39.2777H46.7221ZM46.7221 63.7777V44.7222H65.7777V59.38C65.7777 60.6331 65.358 61.6793 64.5187 62.5187C63.6793 63.3581 62.6331 63.7777 61.3799 63.7777H46.7221Z" fill="#11F2BE"/>
</g>
</svg>
