<svg width="417" height="88" viewBox="0 0 417 88" fill="none" xmlns="http://www.w3.org/2000/svg">
<path d="M135.952 17.384C135.952 18.5147 135.685 19.5813 135.152 20.584C134.619 21.5867 133.765 22.408 132.592 23.048C131.419 23.6667 129.915 23.976 128.08 23.976H124.048V33H120.4V10.76H128.08C129.787 10.76 131.227 11.0587 132.4 11.656C133.595 12.232 134.48 13.0213 135.056 14.024C135.653 15.0267 135.952 16.1467 135.952 17.384ZM128.08 21C129.467 21 130.501 20.6907 131.184 20.072C131.867 19.432 132.208 18.536 132.208 17.384C132.208 14.952 130.832 13.736 128.08 13.736H124.048V21H128.08ZM147.079 33.288C145.415 33.288 143.911 32.9147 142.567 32.168C141.223 31.4 140.167 30.3333 139.399 28.968C138.631 27.5813 138.247 25.9813 138.247 24.168C138.247 22.376 138.642 20.7867 139.431 19.4C140.221 18.0133 141.298 16.9467 142.663 16.2C144.029 15.4533 145.554 15.08 147.239 15.08C148.925 15.08 150.45 15.4533 151.815 16.2C153.181 16.9467 154.258 18.0133 155.047 19.4C155.837 20.7867 156.231 22.376 156.231 24.168C156.231 25.96 155.826 27.5493 155.015 28.936C154.205 30.3227 153.095 31.4 151.687 32.168C150.301 32.9147 148.765 33.288 147.079 33.288ZM147.079 30.12C148.018 30.12 148.893 29.896 149.703 29.448C150.535 29 151.207 28.328 151.719 27.432C152.231 26.536 152.487 25.448 152.487 24.168C152.487 22.888 152.242 21.8107 151.751 20.936C151.261 20.04 150.61 19.368 149.799 18.92C148.989 18.472 148.114 18.248 147.175 18.248C146.237 18.248 145.362 18.472 144.551 18.92C143.762 19.368 143.133 20.04 142.663 20.936C142.194 21.8107 141.959 22.888 141.959 24.168C141.959 26.0667 142.439 27.5387 143.399 28.584C144.381 29.608 145.607 30.12 147.079 30.12ZM164.094 18.344V28.104C164.094 28.7653 164.243 29.2453 164.542 29.544C164.862 29.8213 165.395 29.96 166.142 29.96H168.382V33H165.502C163.859 33 162.6 32.616 161.726 31.848C160.851 31.08 160.414 29.832 160.414 28.104V18.344H158.334V15.368H160.414V10.984H164.094V15.368H168.382V18.344H164.094ZM187.904 23.752C187.904 24.4133 187.861 25.0107 187.776 25.544H174.304C174.41 26.952 174.933 28.0827 175.872 28.936C176.81 29.7893 177.962 30.216 179.328 30.216C181.29 30.216 182.677 29.3947 183.488 27.752H187.424C186.89 29.3733 185.92 30.7067 184.512 31.752C183.125 32.776 181.397 33.288 179.328 33.288C177.642 33.288 176.128 32.9147 174.784 32.168C173.461 31.4 172.416 30.3333 171.648 28.968C170.901 27.5813 170.528 25.9813 170.528 24.168C170.528 22.3547 170.89 20.7653 171.616 19.4C172.362 18.0133 173.397 16.9467 174.72 16.2C176.064 15.4533 177.6 15.08 179.328 15.08C180.992 15.08 182.474 15.4427 183.776 16.168C185.077 16.8933 186.09 17.9173 186.816 19.24C187.541 20.5413 187.904 22.0453 187.904 23.752ZM184.096 22.6C184.074 21.256 183.594 20.1787 182.656 19.368C181.717 18.5573 180.554 18.152 179.168 18.152C177.909 18.152 176.832 18.5573 175.936 19.368C175.04 20.1573 174.506 21.2347 174.336 22.6H184.096ZM200.39 15.08C201.776 15.08 203.014 15.368 204.102 15.944C205.211 16.52 206.075 17.3733 206.694 18.504C207.312 19.6347 207.622 21 207.622 22.6V33H204.006V23.144C204.006 21.5653 203.611 20.36 202.822 19.528C202.032 18.6747 200.955 18.248 199.59 18.248C198.224 18.248 197.136 18.6747 196.326 19.528C195.536 20.36 195.142 21.5653 195.142 23.144V33H191.494V15.368H195.142V17.384C195.739 16.6587 196.496 16.0933 197.414 15.688C198.352 15.2827 199.344 15.08 200.39 15.08ZM216.531 18.344V28.104C216.531 28.7653 216.68 29.2453 216.979 29.544C217.299 29.8213 217.832 29.96 218.579 29.96H220.819V33H217.939C216.296 33 215.038 32.616 214.163 31.848C213.288 31.08 212.851 29.832 212.851 28.104V18.344H210.771V15.368H212.851V10.984H216.531V15.368H220.819V18.344H216.531ZM226.037 13.032C225.376 13.032 224.821 12.808 224.373 12.36C223.925 11.912 223.701 11.3573 223.701 10.696C223.701 10.0347 223.925 9.48 224.373 9.032C224.821 8.584 225.376 8.36 226.037 8.36C226.677 8.36 227.221 8.584 227.669 9.032C228.117 9.48 228.341 10.0347 228.341 10.696C228.341 11.3573 228.117 11.912 227.669 12.36C227.221 12.808 226.677 13.032 226.037 13.032ZM227.829 15.368V33H224.181V15.368H227.829ZM231.403 24.104C231.403 22.3333 231.765 20.7653 232.491 19.4C233.237 18.0347 234.24 16.9787 235.499 16.232C236.779 15.464 238.187 15.08 239.723 15.08C241.109 15.08 242.315 15.3573 243.339 15.912C244.384 16.4453 245.216 17.1173 245.835 17.928V15.368H249.515V33H245.835V30.376C245.216 31.208 244.373 31.9013 243.307 32.456C242.24 33.0107 241.024 33.288 239.659 33.288C238.144 33.288 236.757 32.904 235.499 32.136C234.24 31.3467 233.237 30.2587 232.491 28.872C231.765 27.464 231.403 25.8747 231.403 24.104ZM245.835 24.168C245.835 22.952 245.579 21.896 245.067 21C244.576 20.104 243.925 19.4213 243.115 18.952C242.304 18.4827 241.429 18.248 240.491 18.248C239.552 18.248 238.677 18.4827 237.867 18.952C237.056 19.4 236.395 20.072 235.883 20.968C235.392 21.8427 235.147 22.888 235.147 24.104C235.147 25.32 235.392 26.3867 235.883 27.304C236.395 28.2213 237.056 28.9253 237.867 29.416C238.699 29.8853 239.573 30.12 240.491 30.12C241.429 30.12 242.304 29.8853 243.115 29.416C243.925 28.9467 244.576 28.264 245.067 27.368C245.579 26.4507 245.835 25.384 245.835 24.168ZM257.954 9.32V33H254.306V9.32H257.954ZM294.736 15.368L289.264 33H285.424L281.872 19.976L278.32 33H274.48L268.976 15.368H272.688L276.368 29.544L280.112 15.368H283.92L287.504 29.48L291.152 15.368H294.736ZM299.319 13.032C298.657 13.032 298.103 12.808 297.655 12.36C297.207 11.912 296.983 11.3573 296.983 10.696C296.983 10.0347 297.207 9.48 297.655 9.032C298.103 8.584 298.657 8.36 299.319 8.36C299.959 8.36 300.503 8.584 300.951 9.032C301.399 9.48 301.623 10.0347 301.623 10.696C301.623 11.3573 301.399 11.912 300.951 12.36C300.503 12.808 299.959 13.032 299.319 13.032ZM301.111 15.368V33H297.463V15.368H301.111ZM310.156 18.344V28.104C310.156 28.7653 310.305 29.2453 310.604 29.544C310.924 29.8213 311.457 29.96 312.204 29.96H314.444V33H311.564C309.921 33 308.663 32.616 307.788 31.848C306.913 31.08 306.476 29.832 306.476 28.104V18.344H304.396V15.368H306.476V10.984H310.156V15.368H314.444V18.344H310.156ZM326.926 15.08C328.27 15.08 329.465 15.368 330.51 15.944C331.577 16.52 332.409 17.3733 333.006 18.504C333.625 19.6347 333.934 21 333.934 22.6V33H330.318V23.144C330.318 21.5653 329.924 20.36 329.134 19.528C328.345 18.6747 327.268 18.248 325.902 18.248C324.537 18.248 323.449 18.6747 322.638 19.528C321.849 20.36 321.454 21.5653 321.454 23.144V33H317.806V9.32H321.454V17.416C322.073 16.6693 322.852 16.0933 323.79 15.688C324.75 15.2827 325.796 15.08 326.926 15.08ZM124.048 54.76V77H120.4V54.76H124.048ZM137.734 59.08C139.12 59.08 140.358 59.368 141.446 59.944C142.555 60.52 143.419 61.3733 144.038 62.504C144.656 63.6347 144.966 65 144.966 66.6V77H141.35V67.144C141.35 65.5653 140.955 64.36 140.166 63.528C139.376 62.6747 138.299 62.248 136.934 62.248C135.568 62.248 134.48 62.6747 133.67 63.528C132.88 64.36 132.486 65.5653 132.486 67.144V77H128.838V59.368H132.486V61.384C133.083 60.6587 133.84 60.0933 134.758 59.688C135.696 59.2827 136.688 59.08 137.734 59.08ZM158.515 59.08C159.901 59.08 161.139 59.368 162.227 59.944C163.336 60.52 164.2 61.3733 164.819 62.504C165.437 63.6347 165.747 65 165.747 66.6V77H162.131V67.144C162.131 65.5653 161.736 64.36 160.947 63.528C160.157 62.6747 159.08 62.248 157.715 62.248C156.349 62.248 155.261 62.6747 154.451 63.528C153.661 64.36 153.267 65.5653 153.267 67.144V77H149.619V59.368H153.267V61.384C153.864 60.6587 154.621 60.0933 155.539 59.688C156.477 59.2827 157.469 59.08 158.515 59.08ZM178.048 77.288C176.384 77.288 174.88 76.9147 173.536 76.168C172.192 75.4 171.136 74.3333 170.368 72.968C169.6 71.5813 169.216 69.9813 169.216 68.168C169.216 66.376 169.611 64.7867 170.4 63.4C171.189 62.0133 172.267 60.9467 173.632 60.2C174.997 59.4533 176.523 59.08 178.208 59.08C179.893 59.08 181.419 59.4533 182.784 60.2C184.149 60.9467 185.227 62.0133 186.016 63.4C186.805 64.7867 187.2 66.376 187.2 68.168C187.2 69.96 186.795 71.5493 185.984 72.936C185.173 74.3227 184.064 75.4 182.656 76.168C181.269 76.9147 179.733 77.288 178.048 77.288ZM178.048 74.12C178.987 74.12 179.861 73.896 180.672 73.448C181.504 73 182.176 72.328 182.688 71.432C183.2 70.536 183.456 69.448 183.456 68.168C183.456 66.888 183.211 65.8107 182.72 64.936C182.229 64.04 181.579 63.368 180.768 62.92C179.957 62.472 179.083 62.248 178.144 62.248C177.205 62.248 176.331 62.472 175.52 62.92C174.731 63.368 174.101 64.04 173.632 64.936C173.163 65.8107 172.928 66.888 172.928 68.168C172.928 70.0667 173.408 71.5387 174.368 72.584C175.349 73.608 176.576 74.12 178.048 74.12ZM197.622 73.736L202.614 59.368H206.486L199.766 77H195.414L188.726 59.368H192.63L197.622 73.736ZM208.028 68.104C208.028 66.3333 208.39 64.7653 209.116 63.4C209.862 62.0347 210.865 60.9787 212.124 60.232C213.404 59.464 214.812 59.08 216.348 59.08C217.734 59.08 218.94 59.3573 219.964 59.912C221.009 60.4453 221.841 61.1173 222.46 61.928V59.368H226.14V77H222.46V74.376C221.841 75.208 220.998 75.9013 219.932 76.456C218.865 77.0107 217.649 77.288 216.284 77.288C214.769 77.288 213.382 76.904 212.124 76.136C210.865 75.3467 209.862 74.2587 209.116 72.872C208.39 71.464 208.028 69.8747 208.028 68.104ZM222.46 68.168C222.46 66.952 222.204 65.896 221.692 65C221.201 64.104 220.55 63.4213 219.74 62.952C218.929 62.4827 218.054 62.248 217.116 62.248C216.177 62.248 215.302 62.4827 214.492 62.952C213.681 63.4 213.02 64.072 212.508 64.968C212.017 65.8427 211.772 66.888 211.772 68.104C211.772 69.32 212.017 70.3867 212.508 71.304C213.02 72.2213 213.681 72.9253 214.492 73.416C215.324 73.8853 216.198 74.12 217.116 74.12C218.054 74.12 218.929 73.8853 219.74 73.416C220.55 72.9467 221.201 72.264 221.692 71.368C222.204 70.4507 222.46 69.384 222.46 68.168ZM235.187 62.344V72.104C235.187 72.7653 235.337 73.2453 235.635 73.544C235.955 73.8213 236.489 73.96 237.235 73.96H239.475V77H236.595C234.953 77 233.694 76.616 232.819 75.848C231.945 75.08 231.507 73.832 231.507 72.104V62.344H229.427V59.368H231.507V54.984H235.187V59.368H239.475V62.344H235.187ZM244.694 57.032C244.032 57.032 243.478 56.808 243.03 56.36C242.582 55.912 242.358 55.3573 242.358 54.696C242.358 54.0347 242.582 53.48 243.03 53.032C243.478 52.584 244.032 52.36 244.694 52.36C245.334 52.36 245.878 52.584 246.326 53.032C246.774 53.48 246.998 54.0347 246.998 54.696C246.998 55.3573 246.774 55.912 246.326 56.36C245.878 56.808 245.334 57.032 244.694 57.032ZM246.486 59.368V77H242.838V59.368H246.486ZM258.091 73.736L263.083 59.368H266.955L260.235 77H255.883L249.195 59.368H253.099L258.091 73.736ZM285.873 67.752C285.873 68.4133 285.83 69.0107 285.745 69.544H272.273C272.379 70.952 272.902 72.0827 273.841 72.936C274.779 73.7893 275.931 74.216 277.297 74.216C279.259 74.216 280.646 73.3947 281.457 71.752H285.392C284.859 73.3733 283.889 74.7067 282.481 75.752C281.094 76.776 279.366 77.288 277.297 77.288C275.611 77.288 274.097 76.9147 272.753 76.168C271.43 75.4 270.385 74.3333 269.617 72.968C268.87 71.5813 268.497 69.9813 268.497 68.168C268.497 66.3547 268.859 64.7653 269.585 63.4C270.331 62.0133 271.366 60.9467 272.689 60.2C274.033 59.4533 275.569 59.08 277.297 59.08C278.961 59.08 280.443 59.4427 281.745 60.168C283.046 60.8933 284.059 61.9173 284.785 63.24C285.51 64.5413 285.873 66.0453 285.873 67.752ZM282.065 66.6C282.043 65.256 281.563 64.1787 280.625 63.368C279.686 62.5573 278.523 62.152 277.137 62.152C275.878 62.152 274.801 62.5573 273.905 63.368C273.009 64.1573 272.475 65.2347 272.305 66.6H282.065Z" fill="white"/>
<rect width="88" height="84" rx="13" fill="#11F2BE" fill-opacity="0.12"/>
<mask id="mask0_6_182" style="mask-type:alpha" maskUnits="userSpaceOnUse" x="11" y="9" width="66" height="66">
<rect x="11.3333" y="9.33325" width="65.3333" height="65.3333" fill="#D9D9D9"/>
</mask>
<g mask="url(#mask0_6_182)">
<path d="M37.2414 51.685L44 47.586L50.7586 51.685L48.9626 43.9947L54.9413 38.864L47.0836 38.1678L44 30.9539L40.9164 38.1678L33.0587 38.864L39.0374 43.9947L37.2414 51.685ZM44 68.9922L36.032 61.0556H24.9444V49.9679L17.0078 42L24.9444 34.0321V22.9445H36.032L44 15.0078L51.9679 22.9445H63.0555V34.0321L70.9922 42L63.0555 49.9679V61.0556H51.9679L44 68.9922Z" fill="#11F2BE"/>
</g>
</svg>
